<svg width="27" height="26" viewBox="0 0 27 26" fill="none" xmlns="http://www.w3.org/2000/svg">
<path d="M13.3429 0.0041025C16.8468 0.0041025 20.3507 0.0041025 23.8546 0.0041025C25.2504 0.0041025 26.3013 0.837437 26.5671 2.15077C26.6058 2.37611 26.622 2.60473 26.6154 2.83327C26.6154 7.15771 26.6154 11.4822 26.6154 15.8066C26.6154 17.5116 25.5087 18.6183 23.8104 18.6249C23.1662 18.6249 22.5212 18.6174 21.8771 18.6249C21.0604 18.6374 20.3829 18.3383 19.8104 17.7641C18.4826 16.4308 17.1524 15.0997 15.8196 13.7708C14.2937 12.2483 12.3254 12.2499 10.7987 13.7749C9.48208 15.0899 8.16125 16.4008 6.85292 17.7241C6.24875 18.3349 5.54042 18.6474 4.67708 18.6266C4.03292 18.6108 3.38792 18.6266 2.74375 18.6216C1.13542 18.6066 0.00875 17.4974 0.00625 15.8949C-0.00208333 11.506 -0.00208333 7.1191 0.00625 2.7341C0.00625 1.1166 1.13792 0.00493593 2.76792 0.0016026C6.29347 -0.00117518 9.81847 -0.000341948 13.3429 0.0041025ZM13.3012 11.9808C13.8291 11.9827 14.3456 11.828 14.7855 11.5362C15.2253 11.2444 15.5687 10.8286 15.772 10.3415C15.9754 9.85445 16.0297 9.31796 15.9279 8.80002C15.8261 8.28208 15.5729 7.80599 15.2004 7.43205C14.8279 7.05811 14.3527 6.80314 13.8352 6.69943C13.3176 6.59572 12.7809 6.64795 12.2931 6.84948C11.8052 7.05102 11.3882 7.3928 11.0947 7.83155C10.8012 8.27029 10.6446 8.78626 10.6446 9.3141C10.6481 10.0185 10.9288 10.6933 11.4259 11.1924C11.9231 11.6914 12.5968 11.9746 13.3012 11.9808ZM5.31292 10.3141C5.74875 10.3141 6.18458 10.3191 6.62042 10.3141C7.21125 10.3058 7.64042 9.88744 7.64542 9.32744C7.64542 8.7541 7.21542 8.32744 6.61042 8.32077C5.74875 8.31522 4.88764 8.31522 4.02708 8.32077C3.43375 8.32577 3.00792 8.74327 3.00292 9.30577C3.00292 9.88244 3.42958 10.3058 4.03708 10.3141C4.46125 10.3183 4.88708 10.3141 5.31292 10.3141ZM21.2929 10.3141C21.7287 10.3141 22.1646 10.3191 22.6012 10.3141C23.1887 10.3049 23.6171 9.88327 23.6196 9.3216C23.6218 9.18883 23.5971 9.05699 23.5469 8.93402C23.4968 8.81105 23.4224 8.69949 23.328 8.60606C23.2336 8.51263 23.1213 8.43927 22.9979 8.39038C22.8744 8.3415 22.7423 8.3181 22.6096 8.3216C21.7379 8.31327 20.866 8.31327 19.9937 8.3216C19.4021 8.3216 18.9779 8.74744 18.9762 9.31244C18.9746 9.87744 19.3987 10.3033 19.9846 10.3124C20.4204 10.3199 20.8571 10.3141 21.2929 10.3141Z" fill="url(#paint0_linear_359_2344)"/>
<path d="M12.3063 16.405L9.2921 19.4309C9.10127 19.6217 8.91377 19.8175 8.7171 20.0025C8.2871 20.4059 7.67794 20.4059 7.28794 20.0109C6.89794 19.6159 6.90044 19.0109 7.31794 18.585C8.41544 17.4775 9.5221 16.3784 10.6246 15.275C11.2571 14.6434 11.8879 14.0092 12.5221 13.3792C13.0296 12.8792 13.5779 12.87 14.0829 13.3734C15.814 15.0984 17.5418 16.8259 19.2663 18.5559C19.7446 19.035 19.7738 19.6275 19.3554 20.0492C18.9371 20.4709 18.3204 20.4317 17.8379 19.95C16.7563 18.87 15.6752 17.7895 14.5946 16.7084C14.5171 16.6309 14.4346 16.5575 14.3029 16.4334V16.8217C14.3029 19.4 14.3029 21.9784 14.3029 24.5567C14.3029 25.1467 13.9513 25.58 13.4379 25.64C12.8054 25.71 12.3104 25.2659 12.3079 24.6092C12.3029 23.1842 12.3079 21.76 12.3079 20.3359V16.405H12.3063Z" fill="#50D843"/>
<defs>
<linearGradient id="paint0_linear_359_2344" x1="13.3084" y1="0" x2="13.3084" y2="18.6276" gradientUnits="userSpaceOnUse">
<stop stop-color="#B7B7B7"/>
<stop offset="1" stop-color="#909090"/>
</linearGradient>
</defs>
</svg>
