<svg width="237" height="50" viewBox="0 0 237 50" fill="none" xmlns="http://www.w3.org/2000/svg">
<path d="M203.195 46.168H197.095V41.368H203.195V46.168Z" fill="#CCCCCC"/>
<path d="M78.6856 49.9432L75.9856 48.9182L78.5356 41.6682L81.4356 42.7432L78.6856 49.9432Z" fill="#CCCCCC"/>
<path d="M34.8605 0.0599365H1.63278C1.12825 0.0599365 0.719238 0.472341 0.719238 0.981064V45.1657C0.719238 45.6744 1.12825 46.0868 1.63278 46.0868H34.8605C35.3651 46.0868 35.7741 45.6744 35.7741 45.1657V0.981064C35.7741 0.472341 35.3651 0.0599365 34.8605 0.0599365Z" fill="black"/>
<path d="M2.54639 27.1165V18.4637H3.63487C3.73112 18.4663 3.82257 18.5067 3.88974 18.5762C3.95691 18.6458 3.99449 18.739 3.99445 18.8361V26.7539C3.99199 26.8493 3.95332 26.9401 3.88641 27.0075C3.8195 27.075 3.72946 27.114 3.63487 27.1165H2.54639Z" fill="url(#paint0_linear_331_1251)"/>
<path d="M4.37348 18.8355V22.3339C4.37593 22.4292 4.41461 22.52 4.48152 22.5875C4.54843 22.6549 4.63847 22.6939 4.73306 22.6964H31.7604C31.8557 22.6964 31.9472 22.6582 32.0146 22.5902C32.0821 22.5222 32.1199 22.43 32.1199 22.3339V18.8355C32.1199 18.6406 32.1967 18.4537 32.3334 18.3158C32.4701 18.178 32.6555 18.1006 32.8488 18.1006H33.5874C33.6837 18.098 33.7752 18.0577 33.8423 17.9881C33.9095 17.9186 33.9471 17.8253 33.947 17.7282V2.45126C33.9471 2.30481 33.89 2.16419 33.7882 2.05972C33.6864 1.95525 33.548 1.89527 33.4028 1.8927H3.09063C2.9454 1.89527 2.80698 1.95525 2.70519 2.05972C2.60339 2.16419 2.54636 2.30481 2.54639 2.45126V17.7282C2.54635 17.8253 2.58393 17.9186 2.6511 17.9881C2.71827 18.0577 2.80972 18.098 2.90597 18.1006H3.63487C3.7314 18.0993 3.82723 18.1174 3.91679 18.1537C4.00634 18.1901 4.08785 18.244 4.15656 18.3123C4.22528 18.3807 4.27984 18.4622 4.31708 18.552C4.35431 18.6418 4.37348 18.7382 4.37348 18.8355Z" fill="url(#paint1_linear_331_1251)"/>
<path d="M4.37356 26.9394V23.4313C4.37602 23.3359 4.41469 23.2451 4.48161 23.1777C4.54852 23.1102 4.63855 23.0712 4.73315 23.0687H31.7604C31.8558 23.0687 31.9473 23.1069 32.0147 23.1749C32.0821 23.2429 32.12 23.3351 32.12 23.4313V26.9394C32.1225 27.1335 32.2001 27.319 32.3363 27.4563C32.4725 27.5935 32.6564 27.6718 32.8489 27.6743H33.5875C33.6829 27.6743 33.7744 27.7126 33.8418 27.7806C33.9092 27.8486 33.9471 27.9408 33.9471 28.0369V43.3139C33.9484 43.3868 33.9353 43.4592 33.9085 43.5269C33.8817 43.5946 33.8419 43.6563 33.7912 43.7083C33.7405 43.7603 33.6801 43.8016 33.6134 43.8297C33.5467 43.8579 33.4752 43.8724 33.4029 43.8724H3.09071C3.01842 43.8724 2.94684 43.8579 2.88017 43.8297C2.8135 43.8016 2.75307 43.7603 2.7024 43.7083C2.65173 43.6563 2.61185 43.5946 2.58508 43.5269C2.55831 43.4592 2.54518 43.3868 2.54647 43.3139V28.0369C2.54647 27.9408 2.58436 27.8486 2.6518 27.7806C2.71923 27.7126 2.81069 27.6743 2.90606 27.6743H3.63495C3.82917 27.6744 4.01558 27.5973 4.15382 27.4597C4.29206 27.3222 4.37101 27.1352 4.37356 26.9394Z" fill="black"/>
<path d="M34.2483 27.3306V18.6779H33.1501C33.0539 18.6804 32.9624 18.7208 32.8952 18.7903C32.8281 18.8599 32.7905 18.9531 32.7905 19.0502V26.968C32.793 27.0634 32.8317 27.1542 32.8986 27.2216C32.9655 27.2891 33.0555 27.3281 33.1501 27.3306H34.2483Z" fill="url(#paint2_linear_331_1251)"/>
<path d="M18.0389 33.8719L11.9909 23.3119V21.9039H12.6949C13.8256 21.9039 14.7749 21.7972 15.5429 21.5839C16.3322 21.3706 16.9509 21.0186 17.3989 20.5279C17.8469 20.0372 18.1136 19.3652 18.1989 18.5119H11.9909V16.4639H18.1669C18.0176 15.6746 17.7189 15.0346 17.2709 14.5439C16.8229 14.0319 16.2149 13.6586 15.4469 13.4239C14.7002 13.1892 13.7829 13.0719 12.6949 13.0719H11.9909V11.0239H25.2389V13.0719H19.1909C19.6816 13.4772 20.0869 13.9572 20.4069 14.5119C20.7269 15.0666 20.9296 15.7172 21.0149 16.4639H25.2389V18.5119H21.0789C20.9296 20.0692 20.3322 21.2852 19.2869 22.1599C18.2629 23.0132 16.8976 23.5572 15.1909 23.7919L21.3029 33.8719H18.0389Z" fill="#CCCCCC"/>
<path d="M74.7756 0.0599365H41.5478C41.0433 0.0599365 40.6343 0.472341 40.6343 0.981064V45.1657C40.6343 45.6744 41.0433 46.0868 41.5478 46.0868H74.7756C75.2801 46.0868 75.6891 45.6744 75.6891 45.1657V0.981064C75.6891 0.472341 75.2801 0.0599365 74.7756 0.0599365Z" fill="black"/>
<path d="M42.4609 27.1165V18.4637H43.5494C43.6457 18.4663 43.7371 18.5067 43.8043 18.5762C43.8715 18.6458 43.909 18.739 43.909 18.8361V26.7539C43.9065 26.8493 43.8679 26.9401 43.801 27.0075C43.7341 27.075 43.644 27.114 43.5494 27.1165H42.4609Z" fill="url(#paint3_linear_331_1251)"/>
<path d="M44.288 18.8355V22.3339C44.2905 22.4292 44.3292 22.52 44.3961 22.5875C44.463 22.6549 44.553 22.6939 44.6476 22.6964H71.6749C71.7703 22.6964 71.8617 22.6582 71.9292 22.5902C71.9966 22.5222 72.0345 22.43 72.0345 22.3339V18.8355C72.0345 18.6406 72.1113 18.4537 72.248 18.3158C72.3847 18.178 72.5701 18.1006 72.7634 18.1006H73.502C73.5982 18.098 73.6897 18.0577 73.7569 17.9881C73.824 17.9186 73.8616 17.8253 73.8616 17.7282V2.45126C73.8616 2.30481 73.8046 2.16419 73.7028 2.05972C73.601 1.95525 73.4626 1.89527 73.3173 1.8927H43.0052C42.8599 1.89527 42.7215 1.95525 42.6197 2.05972C42.5179 2.16419 42.4609 2.30481 42.4609 2.45126V17.7282C42.4609 17.8253 42.4985 17.9186 42.5656 17.9881C42.6328 18.0577 42.7243 18.098 42.8205 18.1006H43.5494C43.646 18.0993 43.7418 18.1174 43.8313 18.1537C43.9209 18.1901 44.0024 18.244 44.0711 18.3123C44.1398 18.3807 44.1944 18.4622 44.2316 18.552C44.2689 18.6418 44.288 18.7382 44.288 18.8355Z" fill="url(#paint4_linear_331_1251)"/>
<path d="M44.2881 26.9394V23.4313C44.2906 23.3359 44.3292 23.2451 44.3962 23.1777C44.4631 23.1102 44.5531 23.0712 44.6477 23.0687H71.675C71.7704 23.0687 71.8618 23.1069 71.9293 23.1749C71.9967 23.2429 72.0346 23.3351 72.0346 23.4313V26.9394C72.0371 27.1335 72.1147 27.319 72.2509 27.4563C72.387 27.5935 72.5709 27.6718 72.7635 27.6743H73.5021C73.5974 27.6743 73.6889 27.7126 73.7563 27.7806C73.8238 27.8486 73.8617 27.9408 73.8617 28.0369V43.3139C73.863 43.3868 73.8498 43.4592 73.8231 43.5269C73.7963 43.5946 73.7564 43.6563 73.7057 43.7083C73.6551 43.7603 73.5946 43.8016 73.528 43.8297C73.4613 43.8579 73.3897 43.8724 73.3174 43.8724H43.0053C42.933 43.8724 42.8614 43.8579 42.7947 43.8297C42.7281 43.8016 42.6676 43.7603 42.617 43.7083C42.5663 43.6563 42.5264 43.5946 42.4996 43.5269C42.4729 43.4592 42.4597 43.3868 42.461 43.3139V28.0369C42.461 27.9408 42.4989 27.8486 42.5663 27.7806C42.6338 27.7126 42.7252 27.6743 42.8206 27.6743H43.5495C43.7437 27.6744 43.9301 27.5973 44.0684 27.4597C44.2066 27.3222 44.2856 27.1352 44.2881 26.9394Z" fill="black"/>
<path d="M74.1638 27.3306V18.6779H73.0656C72.9694 18.6804 72.8779 18.7208 72.8108 18.7903C72.7436 18.8599 72.706 18.9531 72.7061 19.0502V26.968C72.7085 27.0634 72.7472 27.1542 72.8141 27.2216C72.881 27.2891 72.9711 27.3281 73.0656 27.3306H74.1638Z" fill="url(#paint5_linear_331_1251)"/>
<path d="M67.9116 27.7935C67.9262 28.1574 67.8599 28.52 67.7176 28.8539C67.6707 28.9671 67.5925 29.0639 67.4926 29.1325C67.3928 29.2011 67.2756 29.2386 67.1553 29.2404H64.2464V34.7802C64.2485 34.8755 64.2214 34.9691 64.1688 35.0478C64.0901 35.1384 63.9899 35.2066 63.8779 35.246C63.7044 35.3034 63.5257 35.3433 63.3446 35.365C63.0637 35.3827 62.7819 35.3827 62.501 35.365C62.2265 35.3825 61.9513 35.3825 61.6768 35.365C61.4988 35.3434 61.3234 35.3035 61.1532 35.246C61.0493 35.2068 60.9584 35.138 60.8914 35.0478C60.8416 34.9682 60.8179 34.8745 60.8235 34.7802V29.2404H50.2739C50.139 29.2447 50.0044 29.2245 49.8764 29.1809C49.7632 29.1294 49.6635 29.0514 49.5855 28.953C49.496 28.812 49.4365 28.6533 49.4109 28.4872C49.3768 28.2244 49.3606 27.9595 49.3624 27.6944C49.3624 27.4367 49.3624 27.1989 49.3624 27.0007C49.3713 26.8103 49.3972 26.6212 49.44 26.4358C49.4815 26.2707 49.5333 26.1085 49.5952 25.9502C49.6662 25.7802 49.7471 25.6147 49.8376 25.4547L59.0588 9.4396C59.1336 9.32544 59.2331 9.23047 59.3497 9.16211C59.5047 9.07039 59.671 9.00037 59.8442 8.95397C60.0929 8.89611 60.3459 8.85966 60.6005 8.84497C60.9011 8.84497 61.2502 8.84497 61.6574 8.84497C62.0459 8.83908 62.4344 8.85561 62.821 8.89451C63.0919 8.91762 63.3609 8.96068 63.6258 9.02335C63.7935 9.06376 63.9518 9.13787 64.0912 9.24138C64.1412 9.27725 64.1821 9.32467 64.2108 9.37977C64.2394 9.43488 64.2549 9.49612 64.256 9.55851V26.406H67.165C67.2799 26.4092 67.392 26.4441 67.4892 26.5068C67.5865 26.5696 67.6654 26.658 67.7176 26.7628C67.8616 27.0857 67.9281 27.439 67.9116 27.7935ZM60.8235 11.937L52.5428 26.3961H60.872L60.8235 11.937Z" fill="#CCCCCC"/>
<path d="M114.691 0.0599365H81.4629C80.9583 0.0599365 80.5493 0.472341 80.5493 0.981064V45.1657C80.5493 45.6744 80.9583 46.0868 81.4629 46.0868H114.691C115.195 46.0868 115.604 45.6744 115.604 45.1657V0.981064C115.604 0.472341 115.195 0.0599365 114.691 0.0599365Z" fill="black"/>
<path d="M82.377 27.1165V18.4637H83.4654C83.5617 18.4663 83.6531 18.5067 83.7203 18.5762C83.7875 18.6458 83.8251 18.739 83.825 18.8361V26.7539C83.8226 26.8493 83.7839 26.9401 83.717 27.0075C83.6501 27.075 83.56 27.114 83.4654 27.1165H82.377Z" fill="url(#paint6_linear_331_1251)"/>
<path d="M84.204 18.8355V22.3339C84.2065 22.4292 84.2452 22.52 84.3121 22.5875C84.379 22.6549 84.469 22.6939 84.5636 22.6964H111.591C111.686 22.6964 111.778 22.6582 111.845 22.5902C111.913 22.5222 111.951 22.43 111.951 22.3339V18.8355C111.951 18.6406 112.027 18.4537 112.164 18.3158C112.301 18.178 112.486 18.1006 112.679 18.1006H113.418C113.514 18.098 113.606 18.0577 113.673 17.9881C113.74 17.9186 113.778 17.8253 113.778 17.7282V2.45126C113.778 2.30481 113.721 2.16419 113.619 2.05972C113.517 1.95525 113.379 1.89527 113.233 1.8927H82.9212C82.776 1.89527 82.6375 1.95525 82.5358 2.05972C82.434 2.16419 82.3769 2.30481 82.377 2.45126V17.7282C82.3769 17.8253 82.4145 17.9186 82.4817 17.9881C82.5488 18.0577 82.6403 18.098 82.7365 18.1006H83.4654C83.562 18.0993 83.6578 18.1174 83.7474 18.1537C83.8369 18.1901 83.9184 18.244 83.9871 18.3123C84.0558 18.3807 84.1104 18.4622 84.1476 18.552C84.1849 18.6418 84.2041 18.7382 84.204 18.8355Z" fill="url(#paint7_linear_331_1251)"/>
<path d="M84.2041 26.9394V23.4313C84.2066 23.3359 84.2453 23.2451 84.3122 23.1777C84.3791 23.1102 84.4691 23.0712 84.5637 23.0687H111.591C111.686 23.0687 111.778 23.1069 111.845 23.1749C111.913 23.2429 111.951 23.3351 111.951 23.4313V26.9394C111.953 27.1335 112.031 27.319 112.167 27.4563C112.303 27.5935 112.487 27.6718 112.679 27.6743H113.418C113.513 27.6743 113.605 27.7126 113.672 27.7806C113.74 27.8486 113.778 27.9408 113.778 28.0369V43.3139C113.779 43.3868 113.766 43.4592 113.739 43.5269C113.712 43.5946 113.672 43.6563 113.622 43.7083C113.571 43.7603 113.511 43.8016 113.444 43.8297C113.377 43.8579 113.306 43.8724 113.233 43.8724H82.9213C82.849 43.8724 82.7774 43.8579 82.7107 43.8297C82.6441 43.8016 82.5836 43.7603 82.533 43.7083C82.4823 43.6563 82.4424 43.5946 82.4156 43.5269C82.3889 43.4592 82.3757 43.3868 82.377 43.3139V28.0369C82.377 27.9408 82.4149 27.8486 82.4824 27.7806C82.5498 27.7126 82.6413 27.6743 82.7366 27.6743H83.4655C83.6597 27.6744 83.8461 27.5973 83.9844 27.4597C84.1226 27.3222 84.2016 27.1352 84.2041 26.9394Z" fill="black"/>
<path d="M114.079 27.3306V18.6779H112.981C112.884 18.6804 112.793 18.7208 112.726 18.7903C112.659 18.8599 112.621 18.9531 112.621 19.0502V26.968C112.624 27.0634 112.662 27.1542 112.729 27.2216C112.796 27.2891 112.886 27.3281 112.981 27.3306H114.079Z" fill="url(#paint8_linear_331_1251)"/>
<path d="M106.916 33.7803C106.933 33.998 106.933 34.2167 106.916 34.4344C106.885 34.598 106.836 34.7575 106.771 34.9101C106.723 35.0276 106.642 35.1277 106.538 35.1975C106.438 35.2558 106.324 35.2865 106.208 35.2867H91.916C91.7486 35.2915 91.5815 35.2681 91.4215 35.2173C91.2861 35.1663 91.1635 35.085 91.0628 34.9795C90.9503 34.8477 90.8764 34.6863 90.8494 34.5137C90.795 34.2666 90.7689 34.0138 90.7719 33.7605C90.7557 33.5229 90.7557 33.2845 90.7719 33.0469C90.7863 32.8597 90.8288 32.6759 90.8979 32.5019C90.9725 32.3395 91.0601 32.1838 91.1597 32.0361C91.2789 31.8602 91.4119 31.6945 91.5573 31.5406L96.7157 26.1196C97.7386 25.0636 98.6941 23.9414 99.5762 22.7601C100.207 21.9086 100.765 21.0034 101.244 20.0545C101.592 19.3516 101.85 18.6054 102.01 17.8346C102.13 17.2177 102.192 16.5905 102.194 15.9616C102.198 15.3963 102.099 14.8352 101.903 14.3066C101.72 13.7944 101.436 13.3257 101.069 12.929C100.685 12.5187 100.219 12.1976 99.7022 11.9875C99.0851 11.7402 98.4256 11.6223 97.7629 11.6407C96.9997 11.6314 96.24 11.7485 95.5134 11.9875C94.9153 12.1972 94.3321 12.4488 93.768 12.7407C93.2638 13.0182 92.7984 13.266 92.5172 13.4939C92.3 13.6767 92.0388 13.7965 91.7609 13.8408C91.6711 13.8403 91.5833 13.8127 91.5088 13.7615C91.4206 13.6951 91.3559 13.6012 91.3246 13.4939C91.2664 13.3376 91.2273 13.1744 91.2082 13.0083C91.1912 12.7641 91.1912 12.5191 91.2082 12.2749C91.1976 12.1 91.1976 11.9246 91.2082 11.7497C91.2171 11.6187 91.2398 11.4891 91.2761 11.3632C91.3062 11.2561 91.3485 11.153 91.4021 11.056C91.4911 10.9217 91.5989 10.8015 91.7221 10.6992C91.9845 10.4821 92.2633 10.2865 92.556 10.1145C93.0272 9.83285 93.5202 9.59089 94.0298 9.39103C94.6595 9.13955 95.308 8.94068 95.9691 8.79641C96.704 8.62655 97.4555 8.54342 98.209 8.54865C99.3239 8.52558 100.434 8.70683 101.486 9.08381C102.358 9.40393 103.154 9.90695 103.823 10.5605C104.428 11.1791 104.898 11.9223 105.2 12.7407C105.513 13.5861 105.67 14.4831 105.665 15.3868C105.664 16.2309 105.589 17.0733 105.442 17.904C105.247 18.8486 104.921 19.7597 104.473 20.6095C103.901 21.7562 103.219 22.8418 102.437 23.8502C101.332 25.2865 100.147 26.6564 98.8877 27.953L94.8056 32.3136H106.141C106.25 32.3153 106.357 32.3461 106.451 32.4028C106.556 32.4725 106.643 32.5678 106.703 32.6803C106.784 32.8209 106.84 32.9754 106.868 33.1362C106.901 33.3492 106.917 33.5646 106.916 33.7803Z" fill="#CCCCCC"/>
<path d="M154.607 0.0599365H121.379C120.874 0.0599365 120.465 0.472341 120.465 0.981064V45.1657C120.465 45.6744 120.874 46.0868 121.379 46.0868H154.607C155.111 46.0868 155.52 45.6744 155.52 45.1657V0.981064C155.52 0.472341 155.111 0.0599365 154.607 0.0599365Z" fill="black"/>
<path d="M122.292 27.1165V18.4637H123.381C123.477 18.4663 123.569 18.5067 123.636 18.5762C123.703 18.6458 123.741 18.739 123.741 18.8361V26.7539C123.738 26.8493 123.699 26.9401 123.633 27.0075C123.566 27.075 123.476 27.114 123.381 27.1165H122.292Z" fill="url(#paint9_linear_331_1251)"/>
<path d="M124.12 18.8355V22.3339C124.122 22.4292 124.161 22.52 124.228 22.5875C124.295 22.6549 124.385 22.6939 124.479 22.6964H151.506C151.602 22.6964 151.693 22.6582 151.761 22.5902C151.828 22.5222 151.866 22.43 151.866 22.3339V18.8355C151.866 18.6406 151.943 18.4537 152.08 18.3158C152.216 18.178 152.402 18.1006 152.595 18.1006H153.334C153.43 18.098 153.521 18.0577 153.588 17.9881C153.656 17.9186 153.693 17.8253 153.693 17.7282V2.45126C153.693 2.30481 153.636 2.16419 153.534 2.05972C153.433 1.95525 153.294 1.89527 153.149 1.8927H122.837C122.691 1.89527 122.553 1.95525 122.451 2.05972C122.349 2.16419 122.292 2.30481 122.292 2.45126V17.7282C122.292 17.8253 122.33 17.9186 122.397 17.9881C122.464 18.0577 122.556 18.098 122.652 18.1006H123.381C123.477 18.0993 123.573 18.1174 123.663 18.1537C123.752 18.1901 123.834 18.244 123.903 18.3123C123.971 18.3807 124.026 18.4622 124.063 18.552C124.1 18.6418 124.12 18.7382 124.12 18.8355Z" fill="url(#paint10_linear_331_1251)"/>
<path d="M124.12 26.9394V23.4313C124.122 23.3359 124.161 23.2451 124.228 23.1777C124.295 23.1102 124.385 23.0712 124.479 23.0687H151.507C151.602 23.0687 151.693 23.1069 151.761 23.1749C151.828 23.2429 151.866 23.3351 151.866 23.4313V26.9394C151.869 27.1335 151.946 27.319 152.082 27.4563C152.219 27.5935 152.402 27.6718 152.595 27.6743H153.334C153.429 27.6743 153.52 27.7126 153.588 27.7806C153.655 27.8486 153.693 27.9408 153.693 28.0369V43.3139C153.694 43.3868 153.681 43.4592 153.655 43.5269C153.628 43.5946 153.588 43.6563 153.537 43.7083C153.487 43.7603 153.426 43.8016 153.36 43.8297C153.293 43.8579 153.221 43.8724 153.149 43.8724H122.837C122.765 43.8724 122.693 43.8579 122.626 43.8297C122.56 43.8016 122.499 43.7603 122.448 43.7083C122.398 43.6563 122.358 43.5946 122.331 43.5269C122.304 43.4592 122.291 43.3868 122.293 43.3139V28.0369C122.293 27.9408 122.33 27.8486 122.398 27.7806C122.465 27.7126 122.557 27.6743 122.652 27.6743H123.381C123.575 27.6744 123.762 27.5973 123.9 27.4597C124.038 27.3222 124.117 27.1352 124.12 26.9394Z" fill="black"/>
<path d="M153.994 27.3306V18.6779H152.896C152.8 18.6804 152.709 18.7208 152.641 18.7903C152.574 18.8599 152.537 18.9531 152.537 19.0502V26.968C152.539 27.0634 152.578 27.1542 152.645 27.2216C152.712 27.2891 152.802 27.3281 152.896 27.3306H153.994Z" fill="url(#paint11_linear_331_1251)"/>
<path d="M147.244 22.046C147.259 23.9034 147.103 25.7582 146.779 27.5858C146.518 29.1076 145.989 30.5683 145.218 31.8968C144.531 33.0641 143.554 34.0249 142.386 34.6816C141.072 35.3154 139.639 35.6531 138.185 35.6719C136.731 35.6907 135.291 35.3902 133.96 34.7906C132.85 34.1916 131.923 33.2893 131.284 32.1842C130.549 30.8745 130.059 29.436 129.839 27.9426C129.534 26.0363 129.391 24.1064 129.413 22.1748C129.397 20.3202 129.556 18.4683 129.888 16.6449C130.15 15.1218 130.675 13.6587 131.439 12.324C132.126 11.1567 133.103 10.1959 134.271 9.53915C135.6 8.83937 137.082 8.49824 138.576 8.54812C139.999 8.50261 141.411 8.80502 142.697 9.43015C143.808 10.0292 144.734 10.9314 145.373 12.0366C146.104 13.3483 146.594 14.7859 146.818 16.2782C147.118 18.1851 147.261 20.1145 147.244 22.046ZM143.734 22.2937C143.734 20.9757 143.686 19.7963 143.599 18.7558C143.519 17.8231 143.383 16.8964 143.191 15.9808C143.037 15.2684 142.803 14.5767 142.493 13.9195C142.239 13.3834 141.891 12.8997 141.465 12.4924C141.072 12.1218 140.606 11.8414 140.098 11.6699C139.542 11.496 138.963 11.4124 138.382 11.4221C137.401 11.3745 136.433 11.6602 135.628 12.2348C134.891 12.8199 134.316 13.592 133.96 14.4745C133.53 15.5415 133.252 16.6663 133.136 17.8143C132.828 20.8534 132.854 23.9183 133.214 26.9516C133.36 28.1202 133.687 29.2576 134.183 30.3211C134.54 31.1062 135.117 31.7652 135.841 32.2139C136.588 32.6261 137.428 32.8279 138.275 32.7986C138.939 32.8097 139.598 32.685 140.215 32.432C140.771 32.1996 141.269 31.8403 141.669 31.3815C142.08 30.8958 142.407 30.343 142.639 29.7463C142.924 29.0641 143.138 28.3533 143.279 27.6255C143.449 26.7992 143.559 25.9611 143.608 25.1182C143.692 24.2196 143.734 23.2782 143.734 22.2937Z" fill="#CCCCCC"/>
<path d="M194.521 0.0599365H161.293C160.789 0.0599365 160.38 0.472341 160.38 0.981064V45.1657C160.38 45.6744 160.789 46.0868 161.293 46.0868H194.521C195.026 46.0868 195.435 45.6744 195.435 45.1657V0.981064C195.435 0.472341 195.026 0.0599365 194.521 0.0599365Z" fill="black"/>
<path d="M162.207 27.1165V18.4637H163.296C163.392 18.4663 163.483 18.5067 163.55 18.5762C163.618 18.6458 163.655 18.739 163.655 18.8361V26.7539C163.653 26.8493 163.614 26.9401 163.547 27.0075C163.48 27.075 163.39 27.114 163.296 27.1165H162.207Z" fill="url(#paint12_linear_331_1251)"/>
<path d="M164.034 18.8355V22.3339C164.037 22.4292 164.075 22.52 164.142 22.5875C164.209 22.6549 164.299 22.6939 164.394 22.6964H191.421C191.516 22.6964 191.608 22.6582 191.675 22.5902C191.743 22.5222 191.781 22.43 191.781 22.3339V18.8355C191.781 18.6406 191.857 18.4537 191.994 18.3158C192.131 18.178 192.316 18.1006 192.509 18.1006H193.248C193.344 18.098 193.436 18.0577 193.503 17.9881C193.57 17.9186 193.608 17.8253 193.608 17.7282V2.45126C193.608 2.30481 193.551 2.16419 193.449 2.05972C193.347 1.95525 193.209 1.89527 193.063 1.8927H162.751C162.606 1.89527 162.468 1.95525 162.366 2.05972C162.264 2.16419 162.207 2.30481 162.207 2.45126V17.7282C162.207 17.8253 162.245 17.9186 162.312 17.9881C162.379 18.0577 162.47 18.098 162.567 18.1006H163.296C163.392 18.0993 163.488 18.1174 163.577 18.1537C163.667 18.1901 163.748 18.244 163.817 18.3123C163.886 18.3807 163.94 18.4622 163.978 18.552C164.015 18.6418 164.034 18.7382 164.034 18.8355Z" fill="url(#paint13_linear_331_1251)"/>
<path d="M164.034 26.9394V23.4313C164.037 23.3359 164.075 23.2451 164.142 23.1777C164.209 23.1102 164.299 23.0712 164.394 23.0687H191.421C191.516 23.0687 191.608 23.1069 191.675 23.1749C191.743 23.2429 191.781 23.3351 191.781 23.4313V26.9394C191.783 27.1335 191.861 27.319 191.997 27.4563C192.133 27.5935 192.317 27.6718 192.51 27.6743H193.248C193.344 27.6743 193.435 27.7126 193.502 27.7806C193.57 27.8486 193.608 27.9408 193.608 28.0369V43.3139C193.609 43.3868 193.596 43.4592 193.569 43.5269C193.542 43.5946 193.502 43.6563 193.452 43.7083C193.401 43.7603 193.341 43.8016 193.274 43.8297C193.207 43.8579 193.136 43.8724 193.064 43.8724H162.751C162.679 43.8724 162.607 43.8579 162.541 43.8297C162.474 43.8016 162.414 43.7603 162.363 43.7083C162.312 43.6563 162.272 43.5946 162.246 43.5269C162.219 43.4592 162.206 43.3868 162.207 43.3139V28.0369C162.207 27.9408 162.245 27.8486 162.312 27.7806C162.38 27.7126 162.471 27.6743 162.567 27.6743H163.296C163.49 27.6744 163.676 27.5973 163.814 27.4597C163.953 27.3222 164.032 27.1352 164.034 26.9394Z" fill="black"/>
<path d="M193.909 27.3306V18.6779H192.811C192.715 18.6804 192.624 18.7208 192.556 18.7903C192.489 18.8599 192.452 18.9531 192.452 19.0502V26.968C192.454 27.0634 192.493 27.1542 192.56 27.2216C192.627 27.2891 192.717 27.3281 192.811 27.3306H193.909Z" fill="url(#paint14_linear_331_1251)"/>
<path d="M187.656 27.7935C187.67 28.1574 187.604 28.52 187.462 28.8539C187.415 28.9671 187.337 29.0639 187.237 29.1325C187.137 29.2011 187.02 29.2386 186.899 29.2404H183.99V34.7802C183.993 34.8755 183.966 34.9691 183.913 35.0478C183.834 35.1384 183.734 35.2066 183.622 35.246C183.449 35.3034 183.27 35.3433 183.089 35.365C182.808 35.3827 182.526 35.3827 182.245 35.365C181.971 35.3825 181.695 35.3825 181.421 35.365C181.243 35.3434 181.068 35.3035 180.897 35.246C180.793 35.2068 180.703 35.138 180.636 35.0478C180.586 34.9682 180.562 34.8745 180.568 34.7802V29.2404H170.018C169.883 29.2447 169.749 29.2245 169.62 29.1809C169.507 29.1294 169.408 29.0514 169.33 28.953C169.24 28.812 169.181 28.6533 169.155 28.4872C169.121 28.2244 169.105 27.9595 169.107 27.6944C169.107 27.4367 169.107 27.1989 169.107 27.0007C169.115 26.8103 169.141 26.6212 169.184 26.4358C169.226 26.2707 169.277 26.1085 169.339 25.9502C169.41 25.7802 169.491 25.6147 169.582 25.4547L178.803 9.4396C178.878 9.32544 178.977 9.23047 179.094 9.16211C179.249 9.07039 179.415 9.00037 179.588 8.95397C179.837 8.89611 180.09 8.85966 180.345 8.84497C180.645 8.84497 180.994 8.84497 181.402 8.84497C181.79 8.83908 182.178 8.85561 182.565 8.89451C182.836 8.91762 183.105 8.96068 183.37 9.02335C183.538 9.06376 183.696 9.13787 183.835 9.24138C183.885 9.27725 183.926 9.32467 183.955 9.37977C183.984 9.43488 183.999 9.49612 184 9.55851V26.406H186.909C187.024 26.4092 187.136 26.4441 187.233 26.5068C187.331 26.5696 187.41 26.658 187.462 26.7628C187.606 27.0857 187.672 27.439 187.656 27.7935ZM180.568 11.937L172.287 26.3961H180.616L180.568 11.937Z" fill="#CCCCCC"/>
<path d="M236.087 0.0599365H202.859C202.354 0.0599365 201.945 0.472341 201.945 0.981064V45.1657C201.945 45.6744 202.354 46.0868 202.859 46.0868H236.087C236.591 46.0868 237 45.6744 237 45.1657V0.981064C237 0.472341 236.591 0.0599365 236.087 0.0599365Z" fill="black"/>
<path d="M203.772 27.1165V18.4637H204.861C204.957 18.4663 205.049 18.5067 205.116 18.5762C205.183 18.6458 205.221 18.739 205.221 18.8361V26.7539C205.218 26.8493 205.179 26.9401 205.112 27.0075C205.046 27.075 204.956 27.114 204.861 27.1165H203.772Z" fill="url(#paint15_linear_331_1251)"/>
<path d="M205.6 18.8355V22.3339C205.602 22.4292 205.641 22.52 205.708 22.5875C205.775 22.6549 205.865 22.6939 205.959 22.6964H232.986C233.082 22.6964 233.173 22.6582 233.241 22.5902C233.308 22.5222 233.346 22.43 233.346 22.3339V18.8355C233.346 18.6406 233.423 18.4537 233.56 18.3158C233.696 18.178 233.882 18.1006 234.075 18.1006H234.814C234.91 18.098 235.001 18.0577 235.068 17.9881C235.136 17.9186 235.173 17.8253 235.173 17.7282V2.45126C235.173 2.30481 235.116 2.16419 235.014 2.05972C234.913 1.95525 234.774 1.89527 234.629 1.8927H204.317C204.171 1.89527 204.033 1.95525 203.931 2.05972C203.829 2.16419 203.772 2.30481 203.772 2.45126V17.7282C203.772 17.8253 203.81 17.9186 203.877 17.9881C203.944 18.0577 204.036 18.098 204.132 18.1006H204.861C204.957 18.0993 205.053 18.1174 205.143 18.1537C205.232 18.1901 205.314 18.244 205.383 18.3123C205.451 18.3807 205.506 18.4622 205.543 18.552C205.58 18.6418 205.6 18.7382 205.6 18.8355Z" fill="url(#paint16_linear_331_1251)"/>
<path d="M205.6 26.9394V23.4313C205.602 23.3359 205.641 23.2451 205.708 23.1777C205.775 23.1102 205.865 23.0712 205.959 23.0687H232.987C233.082 23.0687 233.173 23.1069 233.241 23.1749C233.308 23.2429 233.346 23.3351 233.346 23.4313V26.9394C233.349 27.1335 233.426 27.319 233.562 27.4563C233.699 27.5935 233.882 27.6718 234.075 27.6743H234.814C234.909 27.6743 235 27.7126 235.068 27.7806C235.135 27.8486 235.173 27.9408 235.173 28.0369V43.3139C235.174 43.3868 235.161 43.4592 235.135 43.5269C235.108 43.5946 235.068 43.6563 235.017 43.7083C234.967 43.7603 234.906 43.8016 234.839 43.8297C234.773 43.8579 234.701 43.8724 234.629 43.8724H204.317C204.244 43.8724 204.173 43.8579 204.106 43.8297C204.04 43.8016 203.979 43.7603 203.928 43.7083C203.878 43.6563 203.838 43.5946 203.811 43.5269C203.784 43.4592 203.771 43.3868 203.773 43.3139V28.0369C203.773 27.9408 203.81 27.8486 203.878 27.7806C203.945 27.7126 204.037 27.6743 204.132 27.6743H204.861C205.055 27.6744 205.242 27.5973 205.38 27.4597C205.518 27.3222 205.597 27.1352 205.6 26.9394Z" fill="black"/>
<path d="M235.474 27.3306V18.6779H234.376C234.28 18.6804 234.188 18.7208 234.121 18.7903C234.054 18.8599 234.017 18.9531 234.017 19.0502V26.968C234.019 27.0634 234.058 27.1542 234.125 27.2216C234.192 27.2891 234.282 27.3281 234.376 27.3306H235.474Z" fill="url(#paint17_linear_331_1251)"/>
<path d="M229.221 27.7933C229.236 28.1572 229.169 28.5198 229.027 28.8537C228.98 28.9669 228.902 29.0637 228.802 29.1323C228.702 29.201 228.585 29.2384 228.465 29.2402H225.556V34.78C225.558 34.8753 225.531 34.9689 225.478 35.0476C225.4 35.1382 225.299 35.2064 225.187 35.2458C225.014 35.3032 224.835 35.3431 224.654 35.3648C224.373 35.3825 224.092 35.3825 223.811 35.3648C223.536 35.3823 223.261 35.3823 222.986 35.3648C222.808 35.3432 222.633 35.3034 222.463 35.2458C222.359 35.2066 222.268 35.1379 222.201 35.0476C222.151 34.9681 222.127 34.8743 222.133 34.78V29.2402H211.583C211.449 29.2445 211.314 29.2244 211.186 29.1807C211.073 29.1293 210.973 29.0512 210.895 28.9528C210.806 28.8118 210.746 28.6531 210.721 28.487C210.686 28.2242 210.67 27.9593 210.672 27.6942C210.672 27.4365 210.672 27.1987 210.672 27.0005C210.681 26.8101 210.707 26.621 210.75 26.4356C210.791 26.2705 210.843 26.1083 210.905 25.95C210.976 25.78 211.057 25.6145 211.147 25.4545L220.368 9.43941C220.443 9.32526 220.543 9.23029 220.659 9.16192C220.814 9.07021 220.981 9.00019 221.154 8.95379C221.402 8.89593 221.655 8.85948 221.91 8.84479C222.211 8.84479 222.56 8.84479 222.967 8.84479C223.355 8.8389 223.744 8.85543 224.131 8.89433C224.402 8.91743 224.67 8.9605 224.935 9.02317C225.103 9.06357 225.261 9.13769 225.401 9.24119C225.451 9.27706 225.492 9.32448 225.52 9.37959C225.549 9.4347 225.565 9.49594 225.566 9.55833V26.4059H228.475C228.59 26.4091 228.702 26.4439 228.799 26.5067C228.896 26.5694 228.975 26.6579 229.027 26.7626C229.171 27.0855 229.238 27.4389 229.221 27.7933ZM222.133 11.9368L213.852 26.3959H222.182L222.133 11.9368Z" fill="#CCCCCC"/>
<defs>
<linearGradient id="paint0_linear_331_1251" x1="3.27528" y1="27.1165" x2="3.27528" y2="18.4637" gradientUnits="userSpaceOnUse">
<stop stop-color="#1C1C1C"/>
<stop offset="0.12" stop-color="#606060"/>
<stop offset="0.15" stop-color="#090909"/>
<stop offset="0.56" stop-color="#C0C0C0"/>
<stop offset="0.77" stop-color="#707070"/>
<stop offset="0.79" stop-color="#919191"/>
<stop offset="0.92" stop-color="#848484"/>
<stop offset="0.93" stop-color="#555555"/>
<stop offset="1" stop-color="#1A1A1A"/>
</linearGradient>
<linearGradient id="paint1_linear_331_1251" x1="18.2516" y1="22.6964" x2="18.2516" y2="1.8927" gradientUnits="userSpaceOnUse">
<stop stop-color="#333333"/>
<stop offset="0.13" stop-color="#3C3C3C"/>
<stop offset="0.32" stop-color="#454545"/>
<stop offset="1" stop-color="#292929"/>
</linearGradient>
<linearGradient id="paint2_linear_331_1251" x1="33.5194" y1="27.3306" x2="33.5194" y2="18.6779" gradientUnits="userSpaceOnUse">
<stop stop-color="#1C1C1C"/>
<stop offset="0.12" stop-color="#606060"/>
<stop offset="0.15" stop-color="#090909"/>
<stop offset="0.56" stop-color="#C0C0C0"/>
<stop offset="0.77" stop-color="#707070"/>
<stop offset="0.79" stop-color="#919191"/>
<stop offset="0.92" stop-color="#848484"/>
<stop offset="0.93" stop-color="#555555"/>
<stop offset="1" stop-color="#1A1A1A"/>
</linearGradient>
<linearGradient id="paint3_linear_331_1251" x1="43.1898" y1="27.1165" x2="43.1898" y2="18.4637" gradientUnits="userSpaceOnUse">
<stop stop-color="#1C1C1C"/>
<stop offset="0.12" stop-color="#606060"/>
<stop offset="0.15" stop-color="#090909"/>
<stop offset="0.56" stop-color="#C0C0C0"/>
<stop offset="0.77" stop-color="#707070"/>
<stop offset="0.79" stop-color="#919191"/>
<stop offset="0.92" stop-color="#848484"/>
<stop offset="0.93" stop-color="#555555"/>
<stop offset="1" stop-color="#1A1A1A"/>
</linearGradient>
<linearGradient id="paint4_linear_331_1251" x1="58.1661" y1="22.6964" x2="58.1661" y2="1.8927" gradientUnits="userSpaceOnUse">
<stop stop-color="#333333"/>
<stop offset="0.13" stop-color="#3C3C3C"/>
<stop offset="0.32" stop-color="#454545"/>
<stop offset="1" stop-color="#292929"/>
</linearGradient>
<linearGradient id="paint5_linear_331_1251" x1="73.4349" y1="27.3306" x2="73.4349" y2="18.6779" gradientUnits="userSpaceOnUse">
<stop stop-color="#1C1C1C"/>
<stop offset="0.12" stop-color="#606060"/>
<stop offset="0.15" stop-color="#090909"/>
<stop offset="0.56" stop-color="#C0C0C0"/>
<stop offset="0.77" stop-color="#707070"/>
<stop offset="0.79" stop-color="#919191"/>
<stop offset="0.92" stop-color="#848484"/>
<stop offset="0.93" stop-color="#555555"/>
<stop offset="1" stop-color="#1A1A1A"/>
</linearGradient>
<linearGradient id="paint6_linear_331_1251" x1="83.1058" y1="27.1165" x2="83.1058" y2="18.4637" gradientUnits="userSpaceOnUse">
<stop stop-color="#1C1C1C"/>
<stop offset="0.12" stop-color="#606060"/>
<stop offset="0.15" stop-color="#090909"/>
<stop offset="0.56" stop-color="#C0C0C0"/>
<stop offset="0.77" stop-color="#707070"/>
<stop offset="0.79" stop-color="#919191"/>
<stop offset="0.92" stop-color="#848484"/>
<stop offset="0.93" stop-color="#555555"/>
<stop offset="1" stop-color="#1A1A1A"/>
</linearGradient>
<linearGradient id="paint7_linear_331_1251" x1="98.0821" y1="22.6964" x2="98.0821" y2="1.8927" gradientUnits="userSpaceOnUse">
<stop stop-color="#333333"/>
<stop offset="0.13" stop-color="#3C3C3C"/>
<stop offset="0.32" stop-color="#454545"/>
<stop offset="1" stop-color="#292929"/>
</linearGradient>
<linearGradient id="paint8_linear_331_1251" x1="113.35" y1="27.3306" x2="113.35" y2="18.6779" gradientUnits="userSpaceOnUse">
<stop stop-color="#1C1C1C"/>
<stop offset="0.12" stop-color="#606060"/>
<stop offset="0.15" stop-color="#090909"/>
<stop offset="0.56" stop-color="#C0C0C0"/>
<stop offset="0.77" stop-color="#707070"/>
<stop offset="0.79" stop-color="#919191"/>
<stop offset="0.92" stop-color="#848484"/>
<stop offset="0.93" stop-color="#555555"/>
<stop offset="1" stop-color="#1A1A1A"/>
</linearGradient>
<linearGradient id="paint9_linear_331_1251" x1="123.021" y1="27.1165" x2="123.021" y2="18.4637" gradientUnits="userSpaceOnUse">
<stop stop-color="#1C1C1C"/>
<stop offset="0.12" stop-color="#606060"/>
<stop offset="0.15" stop-color="#090909"/>
<stop offset="0.56" stop-color="#C0C0C0"/>
<stop offset="0.77" stop-color="#707070"/>
<stop offset="0.79" stop-color="#919191"/>
<stop offset="0.92" stop-color="#848484"/>
<stop offset="0.93" stop-color="#555555"/>
<stop offset="1" stop-color="#1A1A1A"/>
</linearGradient>
<linearGradient id="paint10_linear_331_1251" x1="137.998" y1="22.6964" x2="137.998" y2="1.8927" gradientUnits="userSpaceOnUse">
<stop stop-color="#333333"/>
<stop offset="0.13" stop-color="#3C3C3C"/>
<stop offset="0.32" stop-color="#454545"/>
<stop offset="1" stop-color="#292929"/>
</linearGradient>
<linearGradient id="paint11_linear_331_1251" x1="153.266" y1="27.3306" x2="153.266" y2="18.6779" gradientUnits="userSpaceOnUse">
<stop stop-color="#1C1C1C"/>
<stop offset="0.12" stop-color="#606060"/>
<stop offset="0.15" stop-color="#090909"/>
<stop offset="0.56" stop-color="#C0C0C0"/>
<stop offset="0.77" stop-color="#707070"/>
<stop offset="0.79" stop-color="#919191"/>
<stop offset="0.92" stop-color="#848484"/>
<stop offset="0.93" stop-color="#555555"/>
<stop offset="1" stop-color="#1A1A1A"/>
</linearGradient>
<linearGradient id="paint12_linear_331_1251" x1="162.936" y1="27.1165" x2="162.936" y2="18.4637" gradientUnits="userSpaceOnUse">
<stop stop-color="#1C1C1C"/>
<stop offset="0.12" stop-color="#606060"/>
<stop offset="0.15" stop-color="#090909"/>
<stop offset="0.56" stop-color="#C0C0C0"/>
<stop offset="0.77" stop-color="#707070"/>
<stop offset="0.79" stop-color="#919191"/>
<stop offset="0.92" stop-color="#848484"/>
<stop offset="0.93" stop-color="#555555"/>
<stop offset="1" stop-color="#1A1A1A"/>
</linearGradient>
<linearGradient id="paint13_linear_331_1251" x1="177.912" y1="22.6964" x2="177.912" y2="1.8927" gradientUnits="userSpaceOnUse">
<stop stop-color="#333333"/>
<stop offset="0.13" stop-color="#3C3C3C"/>
<stop offset="0.32" stop-color="#454545"/>
<stop offset="1" stop-color="#292929"/>
</linearGradient>
<linearGradient id="paint14_linear_331_1251" x1="193.181" y1="27.3306" x2="193.181" y2="18.6779" gradientUnits="userSpaceOnUse">
<stop stop-color="#1C1C1C"/>
<stop offset="0.12" stop-color="#606060"/>
<stop offset="0.15" stop-color="#090909"/>
<stop offset="0.56" stop-color="#C0C0C0"/>
<stop offset="0.77" stop-color="#707070"/>
<stop offset="0.79" stop-color="#919191"/>
<stop offset="0.92" stop-color="#848484"/>
<stop offset="0.93" stop-color="#555555"/>
<stop offset="1" stop-color="#1A1A1A"/>
</linearGradient>
<linearGradient id="paint15_linear_331_1251" x1="204.501" y1="27.1165" x2="204.501" y2="18.4637" gradientUnits="userSpaceOnUse">
<stop stop-color="#1C1C1C"/>
<stop offset="0.12" stop-color="#606060"/>
<stop offset="0.15" stop-color="#090909"/>
<stop offset="0.56" stop-color="#C0C0C0"/>
<stop offset="0.77" stop-color="#707070"/>
<stop offset="0.79" stop-color="#919191"/>
<stop offset="0.92" stop-color="#848484"/>
<stop offset="0.93" stop-color="#555555"/>
<stop offset="1" stop-color="#1A1A1A"/>
</linearGradient>
<linearGradient id="paint16_linear_331_1251" x1="219.478" y1="22.6964" x2="219.478" y2="1.8927" gradientUnits="userSpaceOnUse">
<stop stop-color="#333333"/>
<stop offset="0.13" stop-color="#3C3C3C"/>
<stop offset="0.32" stop-color="#454545"/>
<stop offset="1" stop-color="#292929"/>
</linearGradient>
<linearGradient id="paint17_linear_331_1251" x1="234.745" y1="27.3306" x2="234.745" y2="18.6779" gradientUnits="userSpaceOnUse">
<stop stop-color="#1C1C1C"/>
<stop offset="0.12" stop-color="#606060"/>
<stop offset="0.15" stop-color="#090909"/>
<stop offset="0.56" stop-color="#C0C0C0"/>
<stop offset="0.77" stop-color="#707070"/>
<stop offset="0.79" stop-color="#919191"/>
<stop offset="0.92" stop-color="#848484"/>
<stop offset="0.93" stop-color="#555555"/>
<stop offset="1" stop-color="#1A1A1A"/>
</linearGradient>
</defs>
</svg>
