<svg width="27" height="27" viewBox="0 0 27 27" fill="none" xmlns="http://www.w3.org/2000/svg">
<path d="M13.3429 26.1432C16.8468 26.1432 20.3507 26.1432 23.8546 26.1432C25.2504 26.1432 26.3013 25.3098 26.5671 23.9965C26.6058 23.7712 26.622 23.5425 26.6154 23.314C26.6154 18.9896 26.6154 14.6651 26.6154 10.3407C26.6154 8.63568 25.5087 7.52901 23.8104 7.52234C23.1662 7.52234 22.5212 7.52984 21.8771 7.52234C21.0604 7.50984 20.3829 7.80901 19.8104 8.38317C18.4826 9.71651 17.1524 11.0476 15.8196 12.3765C14.2937 13.899 12.3254 13.8973 10.7987 12.3723C9.48208 11.0573 8.16125 9.74651 6.85292 8.42317C6.24875 7.81234 5.54042 7.49984 4.67708 7.52068C4.03292 7.53651 3.38792 7.52068 2.74375 7.52567C1.13542 7.54067 0.00875 8.64984 0.00625 10.2523C-0.00208333 14.6412 -0.00208333 19.0282 0.00625 23.4132C0.00625 25.0307 1.13792 26.1423 2.76792 26.1457C6.29347 26.1485 9.81847 26.1476 13.3429 26.1432ZM13.3012 14.1665C13.8291 14.1645 14.3456 14.3192 14.7855 14.6111C15.2253 14.9029 15.5687 15.3186 15.772 15.8057C15.9754 16.2928 16.0297 16.8293 15.9279 17.3473C15.8261 17.8652 15.5729 18.3413 15.2004 18.7152C14.8279 19.0892 14.3527 19.3441 13.8352 19.4478C13.3176 19.5516 12.7809 19.4993 12.2931 19.2978C11.8052 19.0963 11.3882 18.7545 11.0947 18.3157C10.8012 17.877 10.6446 17.361 10.6446 16.8332C10.6481 16.1287 10.9288 15.454 11.4259 14.9549C11.9231 14.4559 12.5968 14.1726 13.3012 14.1665ZM5.31292 15.8332C5.74875 15.8332 6.18458 15.8282 6.62042 15.8332C7.21125 15.8415 7.64042 16.2598 7.64542 16.8198C7.64542 17.3932 7.21542 17.8198 6.61042 17.8265C5.74875 17.8321 4.88764 17.8321 4.02708 17.8265C3.43375 17.8215 3.00792 17.404 3.00292 16.8415C3.00292 16.2648 3.42958 15.8415 4.03708 15.8332C4.46125 15.829 4.88708 15.8332 5.31292 15.8332ZM21.2929 15.8332C21.7287 15.8332 22.1646 15.8282 22.6012 15.8332C23.1887 15.8423 23.6171 16.264 23.6196 16.8257C23.6218 16.9584 23.5971 17.0903 23.5469 17.2133C23.4968 17.3362 23.4224 17.4478 23.328 17.5412C23.2336 17.6346 23.1213 17.708 22.9979 17.7569C22.8744 17.8058 22.7423 17.8292 22.6096 17.8257C21.7379 17.834 20.866 17.834 19.9937 17.8257C19.4021 17.8257 18.9779 17.3998 18.9762 16.8348C18.9746 16.2698 19.3987 15.844 19.9846 15.8348C20.4204 15.8273 20.8571 15.8332 21.2929 15.8332Z" fill="url(#paint0_linear_359_2363)"/>
<path d="M12.3063 9.74226L9.2921 6.71642C9.10127 6.52559 8.91377 6.32976 8.7171 6.14476C8.2871 5.74143 7.67794 5.74143 7.28794 6.13643C6.89794 6.53142 6.90044 7.13642 7.31794 7.56226C8.41544 8.66976 9.5221 9.76892 10.6246 10.8723C11.2571 11.5039 11.8879 12.1381 12.5221 12.7681C13.0296 13.2681 13.5779 13.2773 14.0829 12.7739C15.814 11.0489 17.5418 9.32142 19.2663 7.59142C19.7446 7.11226 19.7738 6.51976 19.3554 6.09809C18.9371 5.67643 18.3204 5.71559 17.8379 6.19726C16.7563 7.27726 15.6752 8.35781 14.5946 9.43893C14.5171 9.51642 14.4346 9.58976 14.3029 9.71392V9.32559C14.3029 6.74726 14.3029 4.16892 14.3029 1.59059C14.3029 1.00059 13.9513 0.567256 13.4379 0.507257C12.8054 0.437256 12.3104 0.881423 12.3079 1.53809C12.3029 2.96309 12.3079 4.38726 12.3079 5.81143V9.74226H12.3063Z" fill="#FF0000" fill-opacity="0.8"/>
<defs>
<linearGradient id="paint0_linear_359_2363" x1="13.3084" y1="26.1473" x2="13.3084" y2="7.5197" gradientUnits="userSpaceOnUse">
<stop stop-color="#B7B7B7"/>
<stop offset="1" stop-color="#909090"/>
</linearGradient>
</defs>
</svg>
