<svg width="44" height="44" viewBox="0 0 44 44" fill="none" xmlns="http://www.w3.org/2000/svg">
<g clip-path="url(#clip0_434_3647)">
<path d="M15.7076 33C15.1204 32.9734 14.5286 32.9891 13.9484 32.9122C12.4307 32.7116 11.2462 31.6055 11.0909 30.0753C10.9702 28.8846 10.9694 27.6617 11.0902 26.471C11.2469 24.9259 12.4244 23.7885 13.9767 23.6458C15.1118 23.5416 16.2729 23.5345 17.4072 23.6411C19.0747 23.7987 20.2467 25.027 20.3604 26.6999C20.4372 27.8287 20.4215 28.9747 20.3227 30.102C20.1903 31.6133 18.8223 32.8417 17.2951 32.9303C16.7683 32.9608 16.2384 32.935 15.71 32.935C15.7084 32.9577 15.7084 32.9789 15.7076 33ZM12.916 28.263C12.9168 28.263 12.9175 28.263 12.9191 28.263C12.9191 28.7325 12.9011 29.2028 12.923 29.6708C12.9591 30.4469 13.5369 31.0332 14.3192 31.056C15.238 31.0826 16.1584 31.0834 17.0772 31.0575C17.8878 31.0348 18.4758 30.4469 18.5001 29.6324C18.5275 28.7231 18.5275 27.8122 18.4993 26.9029C18.4742 26.1057 17.8894 25.5107 17.0968 25.4841C16.1686 25.4527 15.2373 25.4519 14.3091 25.4848C13.5149 25.5138 12.9567 26.1104 12.9207 26.9131C12.8995 27.3623 12.916 27.813 12.916 28.263Z" fill="white"/>
<path d="M15.7092 11C16.3057 11.029 16.9086 11.011 17.4973 11.0956C19.0574 11.3214 20.1918 12.4486 20.3415 14.0439C20.445 15.1499 20.4473 16.2811 20.3462 17.3872C20.1949 19.0498 19.0409 20.2115 17.379 20.3652C16.254 20.4694 15.1032 20.4608 13.9782 20.3558C12.4173 20.21 11.2242 19.0514 11.0854 17.5032C10.9757 16.2819 10.9882 15.0324 11.1144 13.8126C11.2696 12.3099 12.6392 11.1489 14.1514 11.069C14.6688 11.0415 15.1886 11.0643 15.7076 11.0643C15.7084 11.0431 15.7084 11.0219 15.7092 11ZM15.6974 12.9394C15.6974 12.9401 15.6974 12.9401 15.6974 12.9409C15.238 12.9409 14.777 12.9237 14.3184 12.9448C13.5368 12.9817 12.9465 13.5555 12.9246 14.3316C12.8979 15.2503 12.8979 16.1706 12.9222 17.0893C12.9434 17.8912 13.5133 18.4885 14.309 18.5175C15.2372 18.552 16.1685 18.5505 17.0967 18.5191C17.8783 18.4925 18.4671 17.9092 18.4953 17.1285C18.529 16.2004 18.529 15.2691 18.4961 14.341C18.4687 13.543 17.8744 12.9801 17.0764 12.9433C16.6178 12.9229 16.1568 12.9394 15.6974 12.9394Z" fill="white"/>
<path d="M32.9795 28.2664C32.9513 28.8629 32.9693 29.4657 32.8862 30.0545C32.6714 31.5697 31.5809 32.7315 30.0593 32.8867C28.8685 33.0082 27.6455 33.0113 26.4555 32.8898C24.8782 32.7291 23.7524 31.5313 23.609 29.9228C23.5117 28.8347 23.5102 27.7247 23.6066 26.6375C23.7571 24.9466 24.9558 23.7559 26.6436 23.6265C27.7811 23.5395 28.9375 23.5591 30.075 23.6587C31.5927 23.7919 32.8188 25.1528 32.909 26.6806C32.9403 27.2073 32.9137 27.7373 32.9137 28.2664C32.9364 28.2656 32.9576 28.2664 32.9795 28.2664ZM28.2531 31.0625C28.2531 31.0618 28.2531 31.061 28.2531 31.0602C28.7227 31.0602 29.193 31.079 29.661 31.0563C30.4223 31.0186 31.011 30.4409 31.0322 29.6782C31.0588 28.7501 31.0596 27.8196 31.0337 26.8914C31.0118 26.0997 30.4246 25.5079 29.6273 25.4828C28.7086 25.4538 27.7874 25.4538 26.8686 25.4836C26.087 25.5086 25.4912 26.0903 25.463 26.8671C25.4293 27.8055 25.4285 28.7461 25.4638 29.6845C25.4936 30.4636 26.0917 31.0233 26.8741 31.0594C27.3327 31.0798 27.7929 31.0625 28.2531 31.0625Z" fill="white"/>
<path d="M33.0003 15.7138C32.9477 16.4154 32.9564 17.1288 32.8286 17.817C32.5973 19.0532 31.4567 20.2839 29.899 20.3772C28.8069 20.4431 27.7 20.4705 26.6126 20.3725C24.9405 20.2228 23.7638 19.0595 23.6132 17.3914C23.5121 16.2657 23.5207 15.1157 23.6258 13.99C23.7708 12.4364 24.9405 11.2394 26.4872 11.1053C27.7086 10.9995 28.9574 11.0159 30.178 11.1374C31.644 11.2833 32.8176 12.6457 32.9085 14.1249C32.9407 14.6516 32.914 15.1816 32.914 15.7107C32.943 15.7123 32.9713 15.713 33.0003 15.7138ZM28.2629 12.9451C28.2629 12.9435 28.2629 12.9412 28.2629 12.9396C27.8035 12.9396 27.3425 12.9224 26.8839 12.9435C26.0741 12.9804 25.4822 13.5573 25.4587 14.3679C25.432 15.2772 25.432 16.1881 25.4594 17.0974C25.483 17.8923 26.067 18.4912 26.8596 18.5186C27.7878 18.5515 28.7191 18.5523 29.6473 18.5178C30.443 18.4888 31.0153 17.893 31.0357 17.0911C31.06 16.1528 31.0584 15.2129 31.0294 14.2754C31.0075 13.5675 30.4101 12.9867 29.7006 12.9498C29.2224 12.9247 28.7418 12.9451 28.2629 12.9451Z" fill="white"/>
</g>
<defs>
<clipPath id="clip0_434_3647">
<rect width="22" height="22" fill="white" transform="translate(11 11)"/>
</clipPath>
</defs>
</svg>
