<svg width="241" height="10" viewBox="0 0 241 10" fill="none" xmlns="http://www.w3.org/2000/svg">
<path d="M2.57 10C1.758 10 1.13267 9.804 0.694 9.412C0.264667 9.01067 0.05 8.41333 0.05 7.62V2.58C0.05 1.78667 0.264667 1.194 0.694 0.802C1.13267 0.400666 1.758 0.199999 2.57 0.199999H4.278V1.264H2.43C2.08467 1.264 1.80467 1.36667 1.59 1.572C1.37533 1.77733 1.268 2.02467 1.268 2.314V7.886C1.268 8.17533 1.37533 8.42267 1.59 8.628C1.80467 8.83333 2.08467 8.936 2.43 8.936H4.278V10H2.57ZM21.4279 7.62C21.4279 8.41333 21.2086 9.01067 20.7699 9.412C20.3406 9.804 19.7199 10 18.9079 10H18.6979C17.8859 10 17.2606 9.804 16.8219 9.412C16.3926 9.01067 16.1779 8.41333 16.1779 7.62V0.199999H17.3959V7.886C17.3959 8.17533 17.5032 8.42267 17.7179 8.628C17.9326 8.83333 18.2126 8.936 18.5579 8.936H19.0479C19.3932 8.936 19.6732 8.83333 19.8879 8.628C20.1026 8.42267 20.2099 8.17533 20.2099 7.886V0.199999H21.4279V7.62ZM36.4241 5.94H35.1781V10H33.9601V0.199999H36.4661C37.2594 0.199999 37.8567 0.377333 38.2581 0.731999C38.6687 1.07733 38.8741 1.628 38.8741 2.384V3.728C38.8741 4.78267 38.4541 5.44067 37.6141 5.702L39.5601 10H38.2301L36.4241 5.94ZM37.6561 2.258C37.6561 1.90333 37.5721 1.64667 37.4041 1.488C37.2454 1.32933 36.9887 1.25 36.6341 1.25H35.1781V4.89H36.6341C36.9887 4.89 37.2454 4.81067 37.4041 4.652C37.5721 4.484 37.6561 4.22267 37.6561 3.868V2.258ZM53.9175 5.94H52.6715V10H51.4535V0.199999H53.9595C54.7528 0.199999 55.3502 0.377333 55.7515 0.731999C56.1622 1.07733 56.3675 1.628 56.3675 2.384V3.728C56.3675 4.78267 55.9475 5.44067 55.1075 5.702L57.0535 10H55.7235L53.9175 5.94ZM55.1495 2.258C55.1495 1.90333 55.0655 1.64667 54.8975 1.488C54.7388 1.32933 54.4822 1.25 54.1275 1.25H52.6715V4.89H54.1275C54.4822 4.89 54.7388 4.81067 54.8975 4.652C55.0655 4.484 55.1495 4.22267 55.1495 3.868V2.258ZM68.947 10V0.199999H73.539V1.222H70.165V4.428H73.189V5.45H70.165V8.978H73.539V10H68.947ZM89.0601 10L86.9181 1.236V10H85.7841V0.199999H87.7721L89.9281 8.964V0.199999H91.0621V10H89.0601ZM106.054 1.264V10H104.836V1.264H102.68V0.199999H108.21V1.264H106.054ZM138.724 7.788C138.724 8.59067 138.538 9.16 138.164 9.496C137.8 9.832 137.194 10 136.344 10H133.684V0.199999H136.176C137.007 0.199999 137.614 0.367999 137.996 0.704C138.388 1.04 138.584 1.6 138.584 2.384V3.182C138.584 3.90067 138.328 4.442 137.814 4.806C138.421 5.142 138.724 5.716 138.724 6.528V7.788ZM137.366 2.258C137.366 1.90333 137.282 1.64667 137.114 1.488C136.956 1.32933 136.699 1.25 136.344 1.25H134.902V4.344H136.344C136.634 4.344 136.876 4.25067 137.072 4.064C137.268 3.87733 137.366 3.63 137.366 3.322V2.258ZM137.506 6.402C137.506 6.094 137.413 5.85133 137.226 5.674C137.04 5.48733 136.792 5.394 136.484 5.394H134.902V8.95H136.47C136.825 8.95 137.086 8.87067 137.254 8.712C137.422 8.544 137.506 8.28267 137.506 7.928V6.402ZM155.392 10L154.86 7.522H152.13L151.584 10H150.338L152.704 0.199999H154.314L156.638 10H155.392ZM153.488 1.124L152.354 6.472H154.636L153.488 1.124ZM168.398 10V0.199999H169.616V8.936H172.738V10H168.398ZM188.574 10L188.042 7.522H185.312L184.766 10H183.52L185.886 0.199999H187.496L189.82 10H188.574ZM186.67 1.124L185.536 6.472H187.818L186.67 1.124ZM204.856 10L202.714 1.236V10H201.58V0.199999H203.568L205.724 8.964V0.199999H206.858V10H204.856ZM221.836 10C221.024 10 220.399 9.804 219.96 9.412C219.531 9.01067 219.316 8.41333 219.316 7.62V2.58C219.316 1.78667 219.531 1.194 219.96 0.802C220.399 0.400666 221.024 0.199999 221.836 0.199999H223.544V1.264H221.696C221.351 1.264 221.071 1.36667 220.856 1.572C220.642 1.77733 220.534 2.02467 220.534 2.314V7.886C220.534 8.17533 220.642 8.42267 220.856 8.628C221.071 8.83333 221.351 8.936 221.696 8.936H223.544V10H221.836ZM235.514 10V0.199999H240.106V1.222H236.732V4.428H239.756V5.45H236.732V8.978H240.106V10H235.514Z" fill="#FF1E1E"/>
</svg>
