<svg width="8" height="8" viewBox="0 0 8 8" fill="none" xmlns="http://www.w3.org/2000/svg">
<path d="M7.90938 6.72358L5.17604 3.98126L7.91562 1.27434C8.02812 1.16189 8.02812 0.978657 7.91562 0.866216L7.13646 0.08329C7.08229 0.0291515 7.00938 0 6.93229 0C6.85521 0 6.78229 0.0312337 6.72812 0.08329L4.00104 2.78188L1.26979 0.0853723C1.21563 0.0312339 1.14271 0.00208238 1.06562 0.00208238C0.988542 0.00208238 0.915625 0.0333161 0.861458 0.0853723L0.084375 0.868298C-0.028125 0.980739 -0.028125 1.16398 0.084375 1.27642L2.82396 3.98334L0.0927084 6.72358C0.0385417 6.77772 0.00729173 6.8506 0.00729173 6.92764C0.00729173 7.00468 0.0364584 7.07756 0.0927084 7.1317L0.871875 7.91463C0.928125 7.97085 1.00104 8 1.07604 8C1.14896 8 1.22396 7.97293 1.28021 7.91463L4.00104 5.18272L6.72396 7.91255C6.78021 7.96877 6.85313 7.99792 6.92812 7.99792C7.00104 7.99792 7.07604 7.97085 7.13229 7.91255L7.91146 7.12962C7.96563 7.07548 7.99687 7.0026 7.99687 6.92556C7.99479 6.8506 7.96354 6.77772 7.90938 6.72358Z" fill="white"/>
</svg>
