<svg width="721" height="873" viewBox="0 0 721 873" fill="none" xmlns="http://www.w3.org/2000/svg">
<path d="M316.249 329.255C324.115 321.236 329.96 311.564 333.156 301.279C336.889 288.979 337.1 273.886 334.28 256.488L334.229 256.435C333.916 254.341 333.464 252.352 332.94 250.448C332.94 250.448 287.39 32.9104 287.205 31.817C285.997 23.4848 283.088 4.24119 295.414 -6.86869C295.414 -6.86869 279.767 -1.90694 267.869 8.68572C267.869 8.68572 252.745 20.2467 250.861 36.541C250.346 41.3266 249.962 53.1942 249.674 67.339C249.559 69.3123 249.518 71.4436 249.55 73.7329C249.497 76.1241 249.452 78.5468 249.415 81.001L249.814 80.6139C253.18 136.106 286.349 256.833 294.684 286.483L294.64 286.526C294.687 292.564 296.973 303.564 296.841 306.033C296.403 313.698 301.007 333.677 288.632 344.718C288.669 344.756 304.352 339.832 316.249 329.255Z" fill="url(#paint0_linear_416_2087)"/>
<path d="M418.897 -34.6237L393.012 2.22054C392.249 3.4737 391.159 4.52845 389.881 5.24801C388.603 5.96757 387.198 6.31873 385.847 6.25596C385.847 6.25596 373.751 6.84651 350.687 4.24284C327.622 1.63917 283.176 -6.46067 264.844 11.4196L298.818 -17.1509C298.818 -17.1509 313.17 -28.9568 325.346 -31.8202C325.346 -31.8202 349.738 -36.2677 372.602 -34.6682C395.466 -33.0686 411.96 -29.4498 418.897 -34.6237Z" fill="url(#paint1_linear_416_2087)"/>
<path d="M240.469 466.793C240.469 466.793 261.229 438.919 242.385 408.729C242.385 408.729 214.211 368.969 204.228 355.573L181.352 352.933L165.302 372.648C165.302 372.648 164.277 377.051 171.335 385.185C178.393 393.319 219.31 446.499 219.31 446.499C219.31 446.499 236.902 466.718 231.558 478.476L240.469 466.793Z" fill="url(#paint2_linear_416_2087)"/>
<path d="M165.331 372.59L191.207 335.754C191.98 334.498 193.082 333.444 194.37 332.731C195.658 332.017 197.071 331.677 198.426 331.755C198.426 331.755 210.521 331.165 233.606 333.807C256.691 336.45 301.096 344.472 319.437 326.583L285.425 355.132C285.425 355.132 271.073 366.938 258.88 369.803C258.88 369.803 234.505 374.249 211.632 372.658C188.76 371.067 172.269 367.416 165.331 372.59Z" fill="url(#paint3_linear_416_2087)"/>
<path d="M247.659 452.043C247.659 452.043 240.062 471.547 203.974 496.364C167.887 521.182 154.749 512.884 154.749 512.884L172.193 549.129C172.193 549.129 205.839 538.208 224.186 506.521C224.186 506.521 243.935 461.057 247.659 452.043Z" fill="url(#paint4_linear_416_2087)"/>
<path d="M293.946 33.3865C292.479 34.5367 291.266 35.9886 290.413 37.6125C289.561 39.2365 289.097 40.9822 289.062 42.694C289.054 48.4632 293.021 82.6351 293.021 82.6351L304.64 75.5303C304.64 75.5303 304.166 74.8649 303.69 64.9295C303.213 54.9941 301.908 45.1621 301.788 42.4699C301.669 39.7777 299.179 32.4124 303.126 28.9442C299.862 29.6929 296.707 31.2197 293.946 33.3865Z" fill="url(#paint5_linear_416_2087)"/>
<path d="M417.029 137.643C417.029 137.643 406.644 139.658 401.479 154.648C401.479 154.648 395.15 175.422 393.075 182.571L397.944 185.811L403.215 189.466C403.215 189.466 404.525 188.457 405.63 183.8C406.735 179.144 414.781 150.356 414.781 150.356C414.781 150.356 417.557 138.753 421.399 136.879L417.029 137.643Z" fill="url(#paint6_linear_416_2087)"/>
<path d="M217.328 -46.2315C217.328 -46.2315 206.953 -44.2253 201.772 -29.2334C201.772 -29.2334 195.442 -8.46014 193.376 -1.31963L198.238 1.91345L203.509 5.56791C203.509 5.56791 204.812 4.55162 205.924 -0.0975694C207.037 -4.74676 215.034 -33.5313 215.034 -33.5313C215.034 -33.5313 217.783 -45.108 221.66 -47.0172L217.328 -46.2315Z" fill="url(#paint7_linear_416_2087)"/>
<path d="M305.888 287.401L298.178 299.541C297.939 299.96 297.569 300.303 297.135 300.507C296.701 300.711 296.233 300.763 295.815 300.653C291.53 300.214 287.323 299.494 283.22 298.496C274.868 296.65 258.728 291.942 252.933 297.6L263.875 288.77C263.875 288.77 268.505 285.12 272.701 284.584C278.377 284.265 283.971 284.563 289.385 285.474C297.622 287.007 303.597 289.012 305.888 287.401Z" fill="url(#paint8_linear_416_2087)"/>
<path d="M218.229 398.586L207.739 391.899C207.344 391.7 207.065 391.345 206.958 390.906C206.851 390.468 206.924 389.977 207.163 389.533C208.622 385.188 210.354 380.897 212.346 376.688C216.232 368.161 224.857 351.505 220.537 346.136L226.856 356.451C226.856 356.451 229.452 360.789 228.978 364.979C227.943 370.668 226.301 376.327 224.082 381.859C220.603 390.239 217.164 396.462 218.229 398.586Z" fill="url(#paint9_linear_416_2087)"/>
<path d="M116.075 506.475L102.563 509.115C102.101 509.239 101.636 509.195 101.257 508.992C100.878 508.788 100.612 508.439 100.508 508.01C98.8547 504.231 97.474 500.306 96.3751 496.26C94.0268 488.172 90.3072 471.69 82.9877 471.137L95.311 473.528C95.311 473.528 100.452 474.603 102.853 477.624C105.76 481.989 108.129 486.733 109.92 491.775C112.536 499.5 113.746 505.813 116.075 506.475Z" fill="url(#paint10_linear_416_2087)"/>
<path d="M601.741 15.5298L588.237 18.1613C587.775 18.2855 587.311 18.2416 586.932 18.0379C586.553 17.8342 586.286 17.4849 586.183 17.0565C584.532 13.2762 583.151 9.35103 582.05 5.30586C579.692 -2.77344 575.989 -19.2559 568.653 -19.8081L580.977 -17.4173C580.977 -17.4173 586.109 -16.3335 588.519 -13.3214C591.427 -8.95361 593.799 -4.207 595.593 0.83694C598.202 8.55494 599.397 14.8529 601.741 15.5298Z" fill="url(#paint11_linear_416_2087)"/>
<path d="M282.402 211.747C282.402 211.747 284.303 205.074 296.131 197.651C307.958 190.228 312.986 193.738 312.986 193.738L305.296 180.046C305.296 180.046 293.769 182.585 288.527 193.191C288.527 193.191 283.356 208.671 282.402 211.747Z" fill="url(#paint12_linear_416_2087)"/>
<path d="M399.223 110.86C399.223 110.86 401.16 104.153 412.904 96.7512C424.649 89.3496 429.76 92.8385 429.76 92.8385L422.117 79.1587C422.117 79.1587 410.59 81.6984 405.348 92.3037C405.348 92.3037 400.177 107.784 399.223 110.86Z" fill="url(#paint13_linear_416_2087)"/>
<path d="M131.03 342.044C131.03 342.044 132.939 335.363 144.766 327.939C156.594 320.516 161.614 324.019 161.614 324.019L153.893 310.329C153.893 310.329 142.356 312.877 137.124 323.474C137.163 323.479 131.97 338.937 131.03 342.044Z" fill="url(#paint14_linear_416_2087)"/>
<path d="M45.504 400.758C44.5717 399.466 43.2912 398.478 41.7762 397.883C40.2612 397.288 38.5588 397.104 36.8202 397.347C31.0084 398.24 -4.42939 407.831 -4.42939 407.831L0.902543 418.388C0.902543 418.388 1.65756 417.801 11.8592 415.686C22.0608 413.571 32.222 410.706 35.0265 410.102C37.8311 409.498 45.6925 405.825 48.5776 409.238C48.3262 406.083 47.27 403.169 45.504 400.758Z" fill="url(#paint15_linear_416_2087)"/>
<path d="M173.439 296.109C173.439 296.109 173.094 285.973 158.688 283.192C158.688 283.192 138.575 280.207 131.636 279.284L127.541 284.725L122.958 290.64C122.958 290.64 123.779 291.787 128.331 292.148C132.882 292.509 160.877 295.866 160.877 295.866C160.877 295.866 172.193 296.793 173.502 300.392L173.439 296.109Z" fill="url(#paint16_linear_416_2087)"/>
<path d="M47.668 693.917L47.2073 680.719C47.1538 680.274 47.2735 679.797 47.5433 679.381C47.8131 678.965 48.2138 678.639 48.6682 678.467C52.7859 676.181 57.0081 674.146 61.3072 672.375C69.9181 668.676 87.3055 662.228 89.0664 654.756L84.6162 667.575C84.6162 667.575 82.6732 672.929 79.2051 675.845C74.2978 679.485 69.0913 682.645 63.6764 685.269C55.3406 689.198 48.7407 691.441 47.668 693.917Z" fill="url(#paint17_linear_416_2087)"/>
<path d="M513.322 63.5562C513.322 63.5562 512.997 53.4584 498.598 50.6852C498.598 50.6852 478.478 47.6928 471.547 46.7771L467.451 52.2182L462.868 58.1325C462.868 58.1325 463.69 59.2795 468.241 59.6409C472.792 60.0023 500.783 63.4071 500.783 63.4071C500.783 63.4071 512.147 64.2434 513.407 67.861L513.322 63.5562Z" fill="url(#paint18_linear_416_2087)"/>
<path d="M389.028 55.976L377.921 50.195C377.534 50.021 377.246 49.7017 377.111 49.2956C376.976 48.8896 377.002 48.4242 377.185 47.9846C378.327 43.5903 379.749 39.2291 381.441 34.9292C384.717 26.2338 392.144 9.17714 387.331 4.25821L394.53 13.8493C394.53 13.8493 397.489 17.9224 397.355 22.0736C396.741 27.7528 395.516 33.4488 393.702 39.0629C390.781 47.5744 387.792 53.9592 389.028 55.976Z" fill="url(#paint19_linear_416_2087)"/>
<path d="M-32.9946 701.765L-33.4642 688.577C-33.5151 688.131 -33.3944 687.655 -33.125 687.24C-32.8556 686.824 -32.4564 686.498 -32.0033 686.324C-27.8847 684.04 -23.6627 682.005 -19.3643 680.233C-10.7535 676.534 6.63251 670.102 8.39492 662.613L3.90814 675.395C3.90814 675.395 1.97241 680.756 -1.50446 683.68C-6.42443 687.325 -11.6419 690.491 -17.0671 693.123C-25.3148 697.055 -31.9308 699.299 -32.9946 701.765Z" fill="url(#paint20_linear_416_2087)"/>
<path d="M9.42653 480.307C9.42653 480.307 15.916 481.14 21.5381 491.854C27.1602 502.567 22.7637 508.213 22.7637 508.213L37.9617 498.217C37.9617 498.217 37.2622 487.007 27.323 483.456C27.323 483.456 12.4096 480.773 9.42653 480.307Z" fill="url(#paint21_linear_416_2087)"/>
<path d="M383.196 381.925C382.264 380.633 380.983 379.645 379.468 379.05C377.953 378.455 376.251 378.271 374.512 378.514C368.647 379.458 333.209 389.049 333.209 389.049L338.534 399.599C338.534 399.599 339.289 399.011 349.489 396.913C359.689 394.814 369.853 391.917 372.649 391.322C375.445 390.726 383.322 387.052 386.216 390.457C385.988 387.288 384.95 384.355 383.196 381.925Z" fill="url(#paint22_linear_416_2087)"/>
<path d="M180.669 442.691C180.669 442.691 180.324 432.555 165.918 429.774C165.918 429.774 145.805 426.789 138.866 425.866L134.771 431.307L130.188 437.221C130.188 437.221 131.001 438.377 135.56 438.73C140.12 439.083 168.099 442.456 168.099 442.456C168.099 442.456 179.427 443.327 180.736 446.925L180.669 442.691Z" fill="url(#paint23_linear_416_2087)"/>
<path d="M482.511 239.66C482.511 239.66 482.157 229.533 467.751 226.752C467.751 226.752 447.638 223.767 440.707 222.851L436.611 228.292L432.028 234.207C432.028 234.207 432.841 235.362 437.401 235.715C441.961 236.068 469.948 239.433 469.948 239.433C469.948 239.433 481.284 240.311 482.593 243.909L482.511 239.66Z" fill="url(#paint24_linear_416_2087)"/>
<path d="M277.352 315.882C277.352 315.882 283.834 316.708 289.457 327.422C295.079 338.135 290.682 343.781 290.682 343.781L305.887 333.793C305.887 333.793 305.188 322.582 295.249 319.031C295.241 319.023 280.328 316.341 277.352 315.882Z" fill="url(#paint25_linear_416_2087)"/>
<path d="M223.436 484.698C223.436 484.698 229.917 485.54 235.539 496.254C241.161 506.967 236.774 512.604 236.774 512.604L251.979 502.616C251.979 502.616 251.279 491.406 241.34 487.854C241.368 487.812 226.455 485.13 223.436 484.698Z" fill="url(#paint26_linear_416_2087)"/>
<path d="M421.771 154.096C422.184 154.643 422.333 155.368 422.185 156.112C422.037 156.857 421.604 157.56 420.98 158.067C420.673 158.318 420.327 158.514 419.965 158.643C419.602 158.772 419.228 158.832 418.865 158.819C418.502 158.806 418.158 158.72 417.85 158.567C417.543 158.414 417.279 158.197 417.075 157.927C416.659 157.383 416.507 156.659 416.652 155.915C416.797 155.171 417.228 154.467 417.849 153.957C418.158 153.705 418.504 153.508 418.869 153.379C419.233 153.249 419.608 153.189 419.972 153.202C420.337 153.215 420.683 153.3 420.992 153.454C421.3 153.607 421.565 153.826 421.771 154.096Z" fill="#B4904F"/>
<path d="M367.611 152.156C367.871 152.499 368.01 152.929 368.009 153.391C368.008 153.853 367.868 154.328 367.606 154.753C367.343 155.179 366.971 155.538 366.536 155.783C366.101 156.029 365.622 156.15 365.161 156.133C364.7 156.115 364.277 155.959 363.945 155.685C363.614 155.41 363.389 155.029 363.299 154.589C363.209 154.15 363.258 153.673 363.441 153.217C363.623 152.762 363.929 152.349 364.322 152.031C364.847 151.606 365.487 151.381 366.104 151.404C366.72 151.428 367.262 151.698 367.611 152.156Z" fill="#B4904F"/>
<path d="M322.436 248.016C322.544 248.158 322.618 248.325 322.656 248.506C322.693 248.688 322.693 248.882 322.654 249.076C322.615 249.27 322.539 249.46 322.43 249.636C322.321 249.813 322.181 249.971 322.019 250.103C321.69 250.367 321.29 250.506 320.905 250.492C320.52 250.477 320.181 250.309 319.962 250.024C319.75 249.734 319.675 249.354 319.753 248.964C319.831 248.574 320.055 248.206 320.379 247.937C320.708 247.673 321.108 247.533 321.493 247.548C321.878 247.562 322.217 247.731 322.436 248.016Z" fill="#B4904F"/>
<path d="M290.03 193.179C290.087 193.255 290.108 193.356 290.088 193.459C290.067 193.563 290.007 193.66 289.921 193.731C289.834 193.802 289.728 193.839 289.626 193.835C289.524 193.832 289.434 193.787 289.376 193.711C289.322 193.633 289.304 193.532 289.326 193.429C289.348 193.326 289.408 193.229 289.494 193.159C289.579 193.09 289.684 193.054 289.784 193.058C289.884 193.061 289.972 193.105 290.03 193.179Z" fill="#B4904F"/>
<path d="M281.714 195.144C281.799 195.254 281.845 195.392 281.846 195.542C281.847 195.691 281.803 195.845 281.719 195.983C281.635 196.122 281.515 196.238 281.374 196.319C281.234 196.399 281.079 196.44 280.929 196.435C280.78 196.43 280.642 196.381 280.534 196.293C280.426 196.205 280.353 196.082 280.323 195.94C280.293 195.798 280.307 195.643 280.366 195.496C280.424 195.348 280.522 195.214 280.649 195.11C280.819 194.975 281.025 194.903 281.223 194.909C281.422 194.915 281.598 194.999 281.714 195.144Z" fill="#B4904F"/>
<path d="M280.91 283.732C280.973 283.822 280.994 283.939 280.969 284.059C280.944 284.178 280.875 284.291 280.776 284.374C280.676 284.453 280.556 284.494 280.439 284.49C280.323 284.486 280.22 284.436 280.152 284.351C280.119 284.308 280.096 284.258 280.084 284.203C280.073 284.148 280.073 284.089 280.084 284.03C280.096 283.971 280.119 283.913 280.152 283.86C280.185 283.806 280.228 283.758 280.277 283.718C280.326 283.676 280.382 283.643 280.44 283.621C280.499 283.598 280.56 283.588 280.619 283.589C280.678 283.59 280.734 283.604 280.784 283.628C280.834 283.653 280.877 283.688 280.91 283.732Z" fill="#B4904F"/>
<path d="M245.558 208.123C245.654 208.271 245.699 208.452 245.688 208.642C245.677 208.832 245.61 209.024 245.496 209.194C245.382 209.364 245.225 209.505 245.045 209.599C244.865 209.694 244.669 209.738 244.482 209.726C244.295 209.714 244.124 209.647 243.991 209.532C243.857 209.418 243.767 209.261 243.732 209.081C243.696 208.902 243.716 208.707 243.789 208.521C243.863 208.335 243.986 208.165 244.145 208.033C244.257 207.94 244.384 207.868 244.518 207.821C244.652 207.775 244.789 207.755 244.922 207.764C245.054 207.772 245.179 207.809 245.289 207.87C245.398 207.932 245.49 208.018 245.558 208.123Z" fill="#B4904F"/>
<path d="M256.7 247.025C257.008 247.431 257.171 247.939 257.17 248.486C257.168 249.033 257.002 249.594 256.691 250.098C256.38 250.601 255.94 251.025 255.425 251.315C254.91 251.606 254.344 251.75 253.798 251.729C253.253 251.708 252.752 251.523 252.36 251.198C251.968 250.873 251.702 250.423 251.595 249.903C251.489 249.384 251.546 248.819 251.761 248.28C251.976 247.741 252.339 247.253 252.803 246.876C253.425 246.372 254.184 246.104 254.915 246.132C255.645 246.16 256.287 246.481 256.7 247.025Z" fill="#B4904F"/>
<path d="M218.093 214.971C218.201 215.111 218.258 215.287 218.258 215.477C218.259 215.667 218.202 215.861 218.094 216.036C217.987 216.212 217.835 216.359 217.657 216.461C217.478 216.562 217.282 216.613 217.093 216.606C216.903 216.6 216.729 216.536 216.592 216.424C216.456 216.312 216.363 216.156 216.325 215.976C216.287 215.796 216.307 215.6 216.381 215.413C216.454 215.226 216.58 215.056 216.74 214.925C216.846 214.837 216.966 214.768 217.091 214.722C217.217 214.676 217.347 214.655 217.473 214.659C217.599 214.664 217.719 214.694 217.825 214.747C217.932 214.801 218.023 214.877 218.093 214.971Z" fill="#B4904F"/>
<path d="M250.62 312.586C250.925 312.994 251.038 313.532 250.934 314.086C250.83 314.64 250.517 315.167 250.062 315.555C249.598 315.932 249.032 316.134 248.485 316.118C247.938 316.102 247.455 315.87 247.139 315.47C246.828 315.065 246.713 314.526 246.819 313.971C246.925 313.416 247.243 312.89 247.704 312.508C248.166 312.133 248.73 311.931 249.275 311.945C249.82 311.96 250.303 312.19 250.62 312.586Z" fill="#B4904F"/>
<path d="M248.391 312.966C248.612 313.252 248.696 313.633 248.623 314.026C248.551 314.419 248.329 314.793 248.005 315.067C247.669 315.338 247.26 315.482 246.866 315.468C246.472 315.453 246.125 315.282 245.9 314.991C245.68 314.697 245.601 314.309 245.681 313.91C245.762 313.511 245.995 313.135 246.329 312.863C246.662 312.602 247.065 312.467 247.45 312.486C247.836 312.505 248.174 312.678 248.391 312.966Z" fill="#B4904F"/>
<path d="M186.155 251.114C186.249 251.237 186.284 251.401 186.251 251.57C186.218 251.739 186.121 251.899 185.981 252.015C185.84 252.113 185.675 252.161 185.519 252.149C185.363 252.136 185.227 252.065 185.138 251.948C185.048 251.832 185.012 251.679 185.036 251.519C185.06 251.359 185.142 251.204 185.267 251.085C185.408 250.97 185.581 250.908 185.747 250.914C185.914 250.919 186.06 250.991 186.155 251.114Z" fill="#B4904F"/>
<path d="M162.01 323.24C162.177 323.463 162.264 323.741 162.262 324.039C162.26 324.338 162.168 324.644 161.998 324.918C161.828 325.192 161.587 325.423 161.306 325.581C161.025 325.739 160.716 325.817 160.418 325.806C160.121 325.795 159.848 325.694 159.633 325.518C159.419 325.341 159.273 325.095 159.214 324.812C159.155 324.529 159.185 324.221 159.301 323.927C159.417 323.633 159.613 323.365 159.866 323.159C160.034 323.02 160.224 322.912 160.424 322.841C160.623 322.77 160.829 322.738 161.028 322.745C161.228 322.753 161.417 322.8 161.586 322.885C161.754 322.97 161.898 323.091 162.01 323.24Z" fill="#B4904F"/>
<path d="M112.624 321.006C112.784 321.214 112.896 321.458 112.953 321.725C113.01 321.992 113.011 322.277 112.955 322.562C112.899 322.847 112.788 323.128 112.629 323.388C112.469 323.647 112.263 323.881 112.024 324.075C111.666 324.368 111.244 324.562 110.812 324.632C110.381 324.702 109.959 324.644 109.6 324.467C109.241 324.289 108.961 324 108.795 323.635C108.63 323.27 108.586 322.846 108.67 322.417C108.754 321.987 108.961 321.572 109.266 321.223C109.571 320.874 109.96 320.607 110.383 320.456C110.806 320.305 111.245 320.277 111.644 320.375C112.043 320.473 112.384 320.693 112.624 321.006Z" fill="#B4904F"/>
<path d="M56.825 337.989C57.0642 338.291 57.1949 338.673 57.2005 339.086C57.2061 339.499 57.0862 339.924 56.8562 340.308C56.6262 340.692 56.2964 341.016 55.9088 341.241C55.5211 341.465 55.0931 341.579 54.6792 341.568C54.2653 341.558 53.8842 341.422 53.5842 341.18C53.2843 340.937 53.0792 340.599 52.9949 340.207C52.9106 339.815 52.951 339.387 53.1109 338.979C53.2708 338.57 53.543 338.199 53.8929 337.912C54.3577 337.534 54.9247 337.331 55.4726 337.346C56.0205 337.36 56.5058 337.591 56.825 337.989Z" fill="#B4904F"/>
<path d="M47.4027 399.045C47.449 399.106 47.481 399.177 47.4969 399.255C47.5128 399.333 47.5123 399.416 47.4954 399.499C47.4784 399.582 47.4454 399.664 47.3983 399.739C47.3511 399.815 47.2907 399.882 47.2206 399.938C47.0798 400.052 46.908 400.112 46.743 400.105C46.578 400.098 46.4333 400.024 46.3408 399.901C46.2482 399.777 46.2154 399.614 46.2496 399.446C46.2837 399.279 46.382 399.121 46.5228 399.007C46.5924 398.951 46.6705 398.907 46.7525 398.878C46.8345 398.849 46.9189 398.836 47.0008 398.839C47.0826 398.843 47.1603 398.863 47.2293 398.898C47.2983 398.933 47.3572 398.983 47.4027 399.045Z" fill="#B4904F"/>
<path d="M19.7308 379.667C19.8022 379.754 19.8527 379.858 19.8792 379.972C19.9056 380.086 19.9076 380.208 19.885 380.331C19.8623 380.453 19.8155 380.574 19.7473 380.686C19.6791 380.798 19.5909 380.898 19.4881 380.982C19.3852 381.065 19.2697 381.129 19.1484 381.171C19.0272 381.212 18.9027 381.23 18.7824 381.223C18.662 381.216 18.5483 381.184 18.448 381.13C18.3476 381.076 18.2628 381 18.1984 380.907C18.0741 380.727 18.0335 380.495 18.0853 380.258C18.137 380.021 18.2771 379.799 18.4758 379.638C18.6746 379.477 18.9166 379.39 19.1507 379.396C19.3849 379.401 19.5929 379.498 19.7308 379.667Z" fill="#B4904F"/>
<path d="M49.4475 550.868C49.8707 551.424 50.0243 552.164 49.8746 552.923C49.725 553.683 49.2843 554.401 48.6493 554.919C48.0137 555.437 47.2361 555.713 46.4872 555.686C45.7384 555.66 45.0796 555.333 44.6554 554.777C44.2323 554.221 44.0786 553.482 44.2283 552.722C44.3779 551.963 44.8187 551.245 45.4536 550.726C46.0893 550.208 46.8669 549.932 47.6157 549.959C48.3645 549.986 49.0233 550.313 49.4475 550.868Z" fill="#B4904F"/>
<path d="M3.7854 197.106C3.86939 197.222 3.91281 197.365 3.91024 197.519C3.90768 197.672 3.85926 197.829 3.771 197.969C3.68273 198.109 3.55856 198.227 3.41402 198.308C3.26948 198.388 3.11099 198.428 2.95837 198.421C2.80575 198.415 2.66575 198.363 2.55593 198.272C2.44611 198.181 2.37131 198.055 2.34091 197.91C2.3105 197.765 2.32585 197.607 2.385 197.456C2.44415 197.305 2.5445 197.167 2.67348 197.06C2.76107 196.988 2.85965 196.932 2.96342 196.895C3.0672 196.858 3.17406 196.841 3.2777 196.845C3.38133 196.85 3.47963 196.875 3.56683 196.92C3.65403 196.965 3.72836 197.028 3.7854 197.106Z" fill="#B4904F"/>
<path d="M56.5274 182.435C56.6614 182.61 56.7332 182.83 56.7336 183.066C56.734 183.302 56.6629 183.545 56.5295 183.763C56.3961 183.982 56.2063 184.166 55.9841 184.292C55.7618 184.419 55.5171 184.482 55.281 184.474C55.0448 184.467 54.8277 184.388 54.6572 184.248C54.4867 184.109 54.3704 183.915 54.323 183.691C54.2756 183.466 54.2992 183.222 54.3909 182.989C54.4826 182.756 54.6383 182.544 54.8382 182.38C54.9709 182.271 55.12 182.186 55.2767 182.13C55.4335 182.074 55.5949 182.047 55.7517 182.053C55.9086 182.058 56.0579 182.094 56.191 182.16C56.324 182.225 56.4384 182.319 56.5274 182.435Z" fill="#B4904F"/>
<path d="M89.11 156.313C89.1664 156.382 89.2061 156.464 89.2268 156.554C89.2476 156.645 89.2488 156.741 89.2305 156.838C89.2122 156.935 89.1747 157.031 89.1203 157.119C89.0659 157.207 88.9957 157.286 88.9139 157.352C88.7497 157.485 88.5488 157.557 88.3553 157.55C88.1618 157.543 87.9914 157.459 87.8813 157.316C87.8274 157.245 87.7902 157.162 87.7717 157.071C87.7532 156.98 87.7538 156.884 87.7736 156.787C87.7933 156.69 87.8317 156.596 87.8866 156.508C87.9416 156.42 88.0119 156.342 88.0935 156.277C88.1732 156.21 88.263 156.158 88.3576 156.124C88.4523 156.09 88.5499 156.074 88.6446 156.077C88.7394 156.081 88.8293 156.103 88.9093 156.144C88.9892 156.184 89.0574 156.242 89.11 156.313Z" fill="#B4904F"/>
<path d="M46.3522 245.057C46.4569 245.205 46.4932 245.397 46.4534 245.594C46.4136 245.79 46.3009 245.976 46.1385 246.113C46.015 246.212 45.8706 246.276 45.7234 246.298C45.5761 246.32 45.4326 246.299 45.3109 246.237C45.1893 246.175 45.0948 246.076 45.0395 245.95C44.9842 245.825 44.9706 245.68 45.0002 245.534C45.0299 245.387 45.1015 245.246 45.2061 245.127C45.3107 245.009 45.4437 244.918 45.5882 244.867C45.7328 244.816 45.8824 244.807 46.0183 244.841C46.1543 244.875 46.2704 244.95 46.3522 245.057Z" fill="#B4904F"/>
<path d="M78.344 277.335C78.379 277.38 78.4034 277.433 78.4159 277.491C78.4285 277.549 78.4287 277.61 78.4168 277.672C78.4049 277.734 78.381 277.795 78.3465 277.851C78.312 277.908 78.2676 277.958 78.2159 278.001C78.111 278.07 77.9901 278.103 77.876 278.092C77.7619 278.082 77.6625 278.029 77.5966 277.944C77.5306 277.858 77.5027 277.746 77.5181 277.629C77.5335 277.512 77.5911 277.398 77.68 277.307C77.7865 277.222 77.9158 277.178 78.0401 277.183C78.1644 277.188 78.2736 277.243 78.344 277.335Z" fill="#B4904F"/>
<path d="M138.426 314.253C138.647 314.553 138.762 314.928 138.756 315.328C138.751 315.729 138.625 316.139 138.395 316.506C138.165 316.873 137.841 317.181 137.464 317.392C137.086 317.602 136.672 317.706 136.273 317.689C135.874 317.673 135.508 317.537 135.221 317.299C134.935 317.061 134.74 316.731 134.661 316.351C134.583 315.971 134.624 315.558 134.78 315.163C134.936 314.769 135.2 314.41 135.538 314.133C135.766 313.948 136.022 313.804 136.291 313.709C136.56 313.615 136.837 313.572 137.105 313.583C137.374 313.594 137.629 313.659 137.855 313.774C138.082 313.889 138.276 314.052 138.426 314.253Z" fill="#B4904F"/>
<path d="M151.543 259.8C151.69 259.994 151.767 260.236 151.765 260.497C151.764 260.758 151.683 261.025 151.533 261.264C151.384 261.503 151.172 261.703 150.926 261.839C150.68 261.975 150.41 262.04 150.151 262.027C149.892 262.013 149.655 261.921 149.472 261.763C149.288 261.604 149.166 261.386 149.121 261.137C149.076 260.888 149.109 260.618 149.218 260.363C149.326 260.108 149.504 259.879 149.729 259.705C149.874 259.59 150.036 259.501 150.206 259.443C150.375 259.386 150.55 259.36 150.718 259.369C150.887 259.378 151.046 259.421 151.188 259.495C151.329 259.569 151.45 259.673 151.543 259.8Z" fill="#B4904F"/>
<path d="M155.724 225.51C155.985 225.837 156.128 226.252 156.135 226.701C156.141 227.15 156.01 227.613 155.759 228.029C155.507 228.446 155.147 228.798 154.725 229.039C154.302 229.281 153.836 229.401 153.387 229.385C152.938 229.369 152.526 229.217 152.204 228.949C151.882 228.68 151.665 228.308 151.581 227.879C151.497 227.45 151.549 226.985 151.731 226.543C151.913 226.101 152.216 225.702 152.603 225.398C153.103 225.004 153.707 224.795 154.289 224.816C154.871 224.837 155.385 225.086 155.724 225.51Z" fill="#B4904F"/>
<path d="M160.355 213.231C160.683 213.661 160.858 214.2 160.857 214.78C160.857 215.361 160.681 215.956 160.353 216.491C160.024 217.026 159.557 217.476 159.011 217.785C158.465 218.095 157.865 218.249 157.286 218.228C156.706 218.207 156.175 218.012 155.758 217.669C155.341 217.325 155.057 216.847 154.943 216.296C154.828 215.746 154.888 215.146 155.115 214.574C155.342 214.002 155.726 213.483 156.217 213.082C156.876 212.546 157.682 212.26 158.458 212.288C159.234 212.316 159.916 212.655 160.355 213.231Z" fill="#B4904F"/>
<path d="M204.374 242.952C204.417 243.007 204.446 243.071 204.461 243.142C204.477 243.212 204.477 243.288 204.462 243.363C204.447 243.439 204.418 243.513 204.376 243.582C204.334 243.65 204.279 243.712 204.216 243.763C204.152 243.816 204.08 243.858 204.004 243.885C203.928 243.913 203.85 243.926 203.774 243.923C203.698 243.921 203.626 243.903 203.562 243.871C203.497 243.84 203.442 243.794 203.399 243.738C203.342 243.686 203.298 243.62 203.272 243.544C203.246 243.469 203.238 243.386 203.248 243.302C203.258 243.217 203.287 243.133 203.332 243.054C203.377 242.976 203.437 242.906 203.508 242.849C203.579 242.792 203.66 242.749 203.744 242.723C203.828 242.697 203.914 242.689 203.996 242.7C204.077 242.711 204.153 242.739 204.216 242.784C204.28 242.829 204.331 242.889 204.365 242.96L204.374 242.952Z" fill="#B4904F"/>
<path d="M215.413 161.019C215.74 161.452 215.914 161.993 215.912 162.576C215.91 163.158 215.732 163.755 215.401 164.291C215.07 164.826 214.601 165.277 214.054 165.587C213.506 165.896 212.903 166.049 212.323 166.028C211.742 166.006 211.209 165.81 210.791 165.465C210.373 165.12 210.089 164.641 209.974 164.088C209.86 163.536 209.92 162.935 210.147 162.361C210.375 161.787 210.759 161.266 211.252 160.864C211.916 160.327 212.726 160.041 213.506 160.07C214.286 160.099 214.972 160.44 215.413 161.019Z" fill="#B4904F"/>
<path d="M276.19 195.464C276.388 195.728 276.494 196.058 276.492 196.413C276.491 196.767 276.382 197.131 276.18 197.457C275.979 197.783 275.693 198.058 275.359 198.246C275.026 198.434 274.659 198.527 274.305 198.514C273.952 198.501 273.627 198.382 273.372 198.171C273.118 197.961 272.945 197.669 272.875 197.333C272.805 196.996 272.842 196.63 272.98 196.281C273.119 195.931 273.353 195.614 273.653 195.369C273.853 195.206 274.077 195.079 274.313 194.995C274.549 194.912 274.792 194.873 275.028 194.882C275.263 194.891 275.487 194.947 275.687 195.047C275.886 195.147 276.057 195.289 276.19 195.464Z" fill="#B4904F"/>
<path d="M277.827 162.152C277.92 162.273 277.984 162.415 278.016 162.569C278.049 162.724 278.049 162.888 278.017 163.053C277.984 163.219 277.92 163.381 277.828 163.531C277.736 163.682 277.618 163.817 277.48 163.93C277.342 164.043 277.187 164.131 277.025 164.189C276.862 164.247 276.694 164.274 276.532 164.269C276.369 164.263 276.214 164.225 276.076 164.157C275.938 164.089 275.819 163.991 275.727 163.871C275.54 163.627 275.472 163.303 275.537 162.97C275.603 162.636 275.796 162.321 276.074 162.093C276.353 161.865 276.694 161.743 277.023 161.754C277.351 161.766 277.641 161.909 277.827 162.152Z" fill="#B4904F"/>
<path d="M322.444 161.868C322.752 162.271 322.917 162.777 322.918 163.321C322.918 163.866 322.755 164.424 322.447 164.927C322.139 165.429 321.702 165.853 321.19 166.144C320.677 166.435 320.114 166.58 319.57 166.561C319.026 166.543 318.527 166.361 318.135 166.039C317.743 165.717 317.476 165.269 317.368 164.752C317.26 164.235 317.316 163.673 317.528 163.136C317.74 162.598 318.1 162.111 318.561 161.735C319.179 161.234 319.934 160.967 320.661 160.992C321.388 161.017 322.028 161.332 322.444 161.868Z" fill="#B4904F"/>
<path d="M357.375 154.041C357.425 154.106 357.459 154.182 357.476 154.265C357.493 154.348 357.493 154.437 357.475 154.525C357.456 154.614 357.421 154.701 357.37 154.781C357.319 154.861 357.254 154.933 357.179 154.992C357.067 155.082 356.936 155.141 356.801 155.162C356.667 155.182 356.536 155.163 356.426 155.107C356.315 155.051 356.229 154.96 356.178 154.846C356.128 154.732 356.116 154.599 356.144 154.466C356.171 154.333 356.237 154.204 356.333 154.096C356.428 153.989 356.55 153.907 356.682 153.862C356.814 153.816 356.95 153.809 357.073 153.841C357.197 153.873 357.301 153.943 357.375 154.041Z" fill="#B4904F"/>
<path d="M335.917 58.2526C335.999 58.3551 336.056 58.4764 336.087 58.6095C336.117 58.7426 336.118 58.8847 336.092 59.0275C336.065 59.1704 336.011 59.3111 335.931 59.4414C335.852 59.5717 335.75 59.6891 335.63 59.7866C335.511 59.8841 335.377 59.9598 335.236 60.0092C335.095 60.0586 334.95 60.0808 334.81 60.0745C334.669 60.0681 334.536 60.0334 334.418 59.9722C334.3 59.9111 334.199 59.8248 334.122 59.7184C333.969 59.509 333.917 59.2344 333.975 58.9534C334.033 58.6725 334.197 58.4076 334.432 58.2157C334.667 58.0238 334.954 57.9202 335.231 57.9271C335.509 57.934 335.755 58.0509 335.917 58.2526Z" fill="#B4904F"/>
<path d="M441.597 69.9034C441.727 70.0779 441.796 70.2959 441.794 70.5299C441.792 70.7638 441.72 71.0034 441.586 71.2183C441.453 71.4332 441.264 71.614 441.044 71.7377C440.824 71.8615 440.582 71.9228 440.349 71.9139C440.116 71.905 439.902 71.8263 439.734 71.6877C439.566 71.5491 439.452 71.3568 439.405 71.135C439.359 70.9132 439.383 70.6718 439.474 70.4413C439.565 70.2107 439.719 70.0012 439.916 69.8393C440.049 69.7307 440.197 69.6462 440.354 69.5906C440.51 69.535 440.671 69.5095 440.827 69.5154C440.984 69.5214 441.132 69.5588 441.264 69.6254C441.396 69.692 441.509 69.7865 441.597 69.9034Z" fill="#B4904F"/>
<path d="M372.208 17.8216C372.368 18.0296 372.453 18.2905 372.453 18.5714C372.453 18.8524 372.369 19.1407 372.21 19.4C372.051 19.6593 371.826 19.8779 371.562 20.0283C371.298 20.1786 371.007 20.2539 370.726 20.2447C370.445 20.2354 370.188 20.142 369.985 19.9763C369.782 19.8106 369.644 19.5799 369.588 19.3135C369.531 19.0471 369.559 18.7569 369.668 18.4796C369.777 18.2023 369.962 17.9503 370.199 17.7554C370.357 17.6258 370.534 17.5247 370.721 17.4579C370.907 17.391 371.099 17.3598 371.286 17.366C371.473 17.3721 371.65 17.4155 371.808 17.4937C371.967 17.5719 372.103 17.6834 372.208 17.8216Z" fill="#B4904F"/>
<path d="M370.531 -0.189729C370.868 0.253745 371.048 0.809692 371.047 1.4078C371.046 2.00592 370.864 2.61931 370.525 3.17041C370.186 3.72151 369.705 4.18555 369.142 4.50383C368.579 4.82211 367.96 4.98035 367.363 4.95851C366.767 4.93666 366.219 4.73573 365.789 4.38112C365.36 4.02652 365.067 3.53418 364.95 2.96637C364.832 2.39856 364.895 1.78079 365.129 1.19121C365.363 0.601628 365.758 0.0667314 366.265 -0.345842C366.601 -0.621026 366.978 -0.835388 367.375 -0.976564C367.772 -1.11774 368.18 -1.18294 368.577 -1.16843C368.973 -1.15392 369.35 -1.05998 369.685 -0.892013C370.021 -0.724045 370.308 -0.485362 370.531 -0.189729Z" fill="#B4904F"/>
<path d="M263.359 9.48343C263.576 9.76547 263.692 10.1197 263.692 10.5012C263.693 10.8827 263.579 11.2743 263.363 11.6266C263.148 11.9789 262.842 12.2759 262.483 12.4801C262.124 12.6843 261.729 12.7866 261.348 12.7738C260.967 12.7611 260.617 12.634 260.342 12.4087C260.067 12.1833 259.879 11.8698 259.803 11.5078C259.727 11.1458 259.766 10.7516 259.914 10.3751C260.063 9.99854 260.314 9.65663 260.637 9.39259C261.07 9.04188 261.599 8.85477 262.108 8.87178C262.618 8.88878 263.067 9.10851 263.359 9.48343Z" fill="#B4904F"/>
<path d="M258.071 11.5347C258.229 11.742 258.286 12.0175 258.231 12.3007C258.175 12.5839 258.01 12.8516 257.773 13.0448C257.537 13.238 257.247 13.341 256.968 13.3311C256.688 13.3212 256.443 13.1991 256.285 12.9919C256.207 12.8892 256.152 12.7688 256.125 12.6373C256.097 12.5059 256.098 12.3661 256.125 12.2259C256.153 12.0856 256.207 11.9478 256.286 11.8201C256.364 11.6924 256.465 11.5775 256.582 11.4818C256.699 11.3861 256.831 11.3116 256.969 11.2624C257.108 11.2133 257.25 11.1906 257.388 11.1955C257.526 11.2004 257.658 11.2329 257.775 11.2911C257.892 11.3493 257.993 11.4321 258.071 11.5347Z" fill="#B4904F"/>
<path d="M196.952 5.35601C197.007 5.42714 197.036 5.51646 197.036 5.61264C197.036 5.70882 197.007 5.8075 196.952 5.89615C196.898 5.98481 196.82 6.05941 196.73 6.1105C196.639 6.16159 196.54 6.18687 196.444 6.1831C196.348 6.17932 196.26 6.14668 196.191 6.08932C196.122 6.03196 196.076 5.95247 196.057 5.86095C196.039 5.76943 196.05 5.67002 196.088 5.57535C196.126 5.48068 196.19 5.39502 196.272 5.32926C196.381 5.24201 196.514 5.19589 196.641 5.2009C196.768 5.2059 196.88 5.26164 196.952 5.35601Z" fill="#B4904F"/>
<path d="M269.585 0.598799C269.627 0.653855 269.656 0.718535 269.671 0.789127C269.686 0.859718 269.686 0.934841 269.671 1.01022C269.657 1.0856 269.627 1.15975 269.585 1.22844C269.543 1.29714 269.489 1.35902 269.426 1.41057C269.363 1.46212 269.293 1.50232 269.218 1.52887C269.144 1.55543 269.068 1.56782 268.993 1.56534C268.919 1.56286 268.848 1.54555 268.785 1.51442C268.722 1.48328 268.668 1.43892 268.626 1.38386C268.541 1.27267 268.509 1.12468 268.539 0.972439C268.569 0.820202 268.657 0.676181 268.784 0.572077C268.911 0.467972 269.067 0.412309 269.217 0.417319C269.367 0.42233 269.499 0.487608 269.585 0.598799Z" fill="#B4904F"/>
<path d="M445.901 20.2532C446.094 20.4964 446.2 20.8038 446.205 21.1362C446.209 21.4686 446.113 21.8112 445.928 22.1203C445.743 22.4294 445.478 22.6911 445.166 22.8722C444.854 23.0533 444.51 23.1456 444.176 23.1373C443.843 23.129 443.536 23.0206 443.294 22.8258C443.052 22.6309 442.886 22.3585 442.818 22.0431C442.75 21.7277 442.781 21.3836 442.91 21.0544C443.038 20.7253 443.256 20.426 443.538 20.1946C443.722 20.0411 443.93 19.9209 444.148 19.8408C444.367 19.7607 444.593 19.7222 444.812 19.7277C445.032 19.7331 445.241 19.7824 445.428 19.8725C445.615 19.9627 445.776 20.0921 445.901 20.2532Z" fill="#B4904F"/>
<path d="M451.06 54.9781C451.207 55.1741 451.285 55.4193 451.283 55.6826C451.282 55.9459 451.201 56.2157 451.051 56.4577C450.9 56.6997 450.688 56.9032 450.44 57.0424C450.192 57.1816 449.92 57.2504 449.657 57.2399C449.395 57.2295 449.154 57.1403 448.966 56.9837C448.777 56.8271 448.649 56.61 448.598 56.36C448.547 56.11 448.575 55.8381 448.678 55.5789C448.782 55.3196 448.956 55.0845 449.18 54.9032C449.328 54.7826 449.495 54.6888 449.67 54.6273C449.845 54.5658 450.025 54.5377 450.199 54.5446C450.374 54.5516 450.54 54.5935 450.688 54.6678C450.835 54.7422 450.962 54.8477 451.06 54.9781Z" fill="#B4904F"/>
<path d="M426.797 71.5555C426.926 71.7235 426.973 71.9468 426.928 72.1766C426.884 72.4063 426.751 72.6238 426.559 72.7813C426.365 72.9371 426.128 73.0195 425.901 73.0106C425.673 73.0018 425.473 72.9025 425.343 72.7342C425.274 72.6517 425.224 72.5532 425.198 72.4445C425.172 72.3359 425.169 72.2194 425.19 72.102C425.211 71.9846 425.255 71.8689 425.32 71.7617C425.385 71.6546 425.469 71.5582 425.567 71.4785C425.665 71.3988 425.776 71.3374 425.892 71.298C426.008 71.2585 426.127 71.2419 426.242 71.2491C426.357 71.2563 426.465 71.2872 426.561 71.3398C426.656 71.3925 426.737 71.4659 426.797 71.5555Z" fill="#B4904F"/>
<path d="M419.968 121.743C420.047 121.851 420.075 121.993 420.046 122.139C420.017 122.284 419.933 122.422 419.813 122.522C419.72 122.599 419.611 122.651 419.499 122.67C419.387 122.689 419.277 122.674 419.184 122.629C419.09 122.583 419.018 122.508 418.975 122.413C418.932 122.319 418.921 122.208 418.943 122.097C418.965 121.986 419.019 121.878 419.099 121.788C419.179 121.698 419.28 121.629 419.39 121.591C419.5 121.553 419.614 121.547 419.717 121.574C419.82 121.601 419.907 121.66 419.968 121.743Z" fill="#B4904F"/>
<path d="M373.573 132.281C373.664 132.404 373.712 132.557 373.711 132.722C373.709 132.886 373.659 133.055 373.565 133.206C373.471 133.357 373.339 133.484 373.184 133.571C373.03 133.659 372.86 133.702 372.696 133.697C372.532 133.691 372.381 133.637 372.262 133.54C372.144 133.443 372.062 133.309 372.029 133.153C371.995 132.998 372.01 132.828 372.073 132.666C372.135 132.504 372.242 132.356 372.38 132.241C372.57 132.086 372.802 132.003 373.025 132.011C373.249 132.019 373.446 132.116 373.573 132.281Z" fill="#B4904F"/>
<path d="M319.615 79.2505C319.887 79.6078 320.031 80.0557 320.031 80.5376C320.03 81.0194 319.884 81.5136 319.611 81.9577C319.338 82.4018 318.95 82.7758 318.497 83.0325C318.043 83.2892 317.545 83.417 317.064 83.3999C316.583 83.3827 316.141 83.2213 315.795 82.936C315.448 82.6507 315.213 82.2544 315.117 81.7972C315.022 81.3399 315.071 80.8423 315.259 80.3671C315.447 79.892 315.765 79.4606 316.173 79.1276C316.444 78.9048 316.748 78.7312 317.068 78.6167C317.388 78.5023 317.718 78.4492 318.038 78.4606C318.358 78.4721 318.662 78.5478 318.933 78.6833C319.203 78.8189 319.435 79.0117 319.615 79.2505Z" fill="#B4904F"/>
<path d="M300.974 116.765C301.271 117.156 301.429 117.645 301.428 118.172C301.427 118.698 301.267 119.238 300.969 119.723C300.671 120.208 300.248 120.617 299.752 120.897C299.257 121.178 298.712 121.317 298.187 121.299C297.662 121.28 297.179 121.104 296.801 120.792C296.422 120.481 296.164 120.048 296.06 119.549C295.955 119.049 296.009 118.506 296.214 117.986C296.419 117.467 296.767 116.996 297.212 116.632C297.508 116.39 297.841 116.201 298.19 116.077C298.54 115.953 298.899 115.895 299.249 115.907C299.598 115.92 299.93 116.002 300.226 116.149C300.522 116.296 300.776 116.506 300.974 116.765Z" fill="#B4904F"/>
<path d="M290.773 150.776C291.097 151.203 291.27 151.739 291.269 152.314C291.269 152.89 291.094 153.481 290.767 154.011C290.441 154.542 289.977 154.989 289.435 155.295C288.894 155.602 288.298 155.754 287.723 155.733C287.148 155.712 286.621 155.518 286.207 155.177C285.794 154.835 285.513 154.361 285.4 153.814C285.287 153.268 285.347 152.673 285.572 152.105C285.798 151.538 286.179 151.023 286.667 150.626C286.99 150.361 287.353 150.155 287.735 150.019C288.117 149.883 288.51 149.82 288.892 149.834C289.273 149.848 289.636 149.939 289.959 150.1C290.281 150.262 290.558 150.492 290.773 150.776Z" fill="#B4904F"/>
<path d="M275.006 140.996C275.159 141.198 275.241 141.451 275.24 141.723C275.239 141.995 275.157 142.274 275.002 142.525C274.848 142.776 274.629 142.987 274.373 143.131C274.117 143.276 273.835 143.348 273.564 143.338C273.292 143.329 273.043 143.237 272.847 143.076C272.652 142.915 272.518 142.691 272.465 142.433C272.411 142.175 272.439 141.894 272.545 141.625C272.651 141.357 272.831 141.113 273.061 140.925C273.214 140.8 273.386 140.703 273.567 140.639C273.748 140.575 273.934 140.545 274.114 140.551C274.295 140.558 274.467 140.601 274.62 140.677C274.773 140.753 274.904 140.862 275.006 140.996Z" fill="#B4904F"/>
<path d="M261.737 99.5688C261.956 99.857 262.072 100.218 262.071 100.606C262.07 100.995 261.952 101.393 261.732 101.751C261.511 102.108 261.198 102.409 260.833 102.616C260.467 102.822 260.065 102.925 259.678 102.91C259.291 102.896 258.935 102.765 258.656 102.534C258.378 102.304 258.188 101.984 258.112 101.615C258.036 101.246 258.077 100.845 258.229 100.463C258.382 100.08 258.639 99.7327 258.968 99.4651C259.41 99.1065 259.949 98.9159 260.468 98.9354C260.987 98.9548 261.444 99.1827 261.737 99.5688Z" fill="#B4904F"/>
<path d="M260.759 93.1919C260.969 93.4706 261.08 93.8193 261.078 94.194C261.076 94.5687 260.962 94.9525 260.749 95.2972C260.535 95.6418 260.233 95.9317 259.881 96.1304C259.528 96.329 259.14 96.4275 258.767 96.4133C258.393 96.3992 258.05 96.273 257.782 96.0508C257.513 95.8286 257.33 95.5203 257.256 95.1648C257.183 94.8093 257.222 94.4226 257.368 94.0533C257.514 93.6841 257.762 93.349 258.079 93.0903C258.29 92.9178 258.527 92.7835 258.777 92.6952C259.026 92.6069 259.282 92.5663 259.532 92.5757C259.781 92.5852 260.017 92.6445 260.228 92.7502C260.439 92.8559 260.619 93.006 260.759 93.1919Z" fill="#B4904F"/>
<path d="M246.437 100.67C246.501 100.753 246.545 100.852 246.568 100.96C246.59 101.067 246.59 101.182 246.567 101.297C246.544 101.411 246.499 101.524 246.434 101.628C246.369 101.733 246.286 101.826 246.19 101.904C245.995 102.063 245.757 102.148 245.528 102.141C245.298 102.134 245.096 102.035 244.965 101.865C244.839 101.691 244.794 101.464 244.841 101.231C244.887 100.998 245.02 100.777 245.213 100.615C245.409 100.457 245.648 100.375 245.878 100.385C246.107 100.395 246.308 100.498 246.437 100.67Z" fill="#B4904F"/>
<path d="M226.497 56.6986C226.772 57.0589 226.918 57.5107 226.918 57.9969C226.918 58.4832 226.771 58.9821 226.496 59.4305C226.22 59.8789 225.829 60.2567 225.372 60.5161C224.915 60.7756 224.411 60.9051 223.926 60.8882C223.441 60.8713 222.995 60.7089 222.645 60.4213C222.295 60.1338 222.056 59.7341 221.959 59.2727C221.863 58.8114 221.912 58.3092 222.102 57.8295C222.291 57.3498 222.611 56.9142 223.023 56.5778C223.296 56.3542 223.603 56.18 223.926 56.065C224.248 55.9501 224.581 55.8967 224.903 55.9079C225.226 55.9191 225.533 55.9947 225.806 56.1304C226.08 56.2661 226.314 56.4591 226.497 56.6986Z" fill="#B4904F"/>
<path d="M212.021 46.0147C212.082 46.0956 212.103 46.2027 212.081 46.3124C212.058 46.4221 211.993 46.5254 211.901 46.5996C211.809 46.6737 211.696 46.7127 211.588 46.7079C211.48 46.703 211.386 46.6548 211.325 46.5739C211.267 46.4919 211.247 46.3853 211.27 46.2763C211.292 46.1673 211.355 46.0643 211.446 45.989C211.491 45.9519 211.542 45.9232 211.596 45.9044C211.65 45.8857 211.705 45.8772 211.759 45.8796C211.812 45.882 211.863 45.8952 211.908 45.9184C211.953 45.9415 211.992 45.9743 212.021 46.0147Z" fill="#B4904F"/>
<path d="M284.548 9.8727C284.795 10.2034 284.884 10.6406 284.794 11.0892C284.705 11.5378 284.444 11.9615 284.069 12.2682C283.789 12.4949 283.46 12.6438 283.124 12.696C282.788 12.7482 282.461 12.7014 282.182 12.5616C281.904 12.4217 281.688 12.1951 281.56 11.9102C281.433 11.6253 281.401 11.2951 281.468 10.961C281.534 10.627 281.697 10.3043 281.935 10.0335C282.174 9.76271 282.477 9.55604 282.806 9.4396C283.136 9.32316 283.477 9.30216 283.787 9.37924C284.097 9.45632 284.362 9.62803 284.548 9.8727Z" fill="#B4904F"/>
<path d="M165.021 26.8678C165.146 27.0337 165.213 27.2414 165.212 27.4646C165.211 27.6878 165.142 27.9165 165.015 28.1218C164.888 28.3271 164.708 28.4998 164.498 28.618C164.288 28.7363 164.057 28.7947 163.835 28.7861C163.612 28.7774 163.408 28.702 163.248 28.5693C163.088 28.4367 162.98 28.2527 162.936 28.0408C162.893 27.8289 162.916 27.5984 163.004 27.3786C163.092 27.1588 163.24 26.9594 163.429 26.8058C163.555 26.7037 163.696 26.6243 163.844 26.5721C163.992 26.52 164.144 26.4961 164.292 26.5019C164.44 26.5076 164.58 26.5429 164.706 26.6057C164.831 26.6685 164.938 26.7576 165.021 26.8678Z" fill="#B4904F"/>
<path d="M261.764 26.3592C261.827 26.4424 261.86 26.5465 261.859 26.6583C261.858 26.7702 261.824 26.8847 261.76 26.9874C261.696 27.0901 261.606 27.1763 261.5 27.2351C261.395 27.2939 261.279 27.3227 261.168 27.3177C261.056 27.3127 260.954 27.2743 260.875 27.2072C260.795 27.1402 260.742 27.0475 260.721 26.941C260.7 26.8346 260.713 26.7191 260.757 26.6092C260.802 26.4993 260.877 26.4 260.973 26.3238C261.035 26.2722 261.105 26.2321 261.179 26.2058C261.253 26.1796 261.33 26.1677 261.404 26.171C261.477 26.1743 261.547 26.1927 261.609 26.225C261.671 26.2573 261.724 26.3029 261.764 26.3592Z" fill="#B4904F"/>
<path d="M190.481 50.72C190.568 50.8358 190.615 50.9808 190.615 51.1367C190.614 51.2926 190.567 51.4524 190.479 51.596C190.39 51.7397 190.265 51.8607 190.118 51.9439C189.972 52.0271 189.811 52.0687 189.655 52.0635C189.499 52.0583 189.356 52.0066 189.244 51.9147C189.131 51.8229 189.055 51.6951 189.023 51.5475C188.991 51.3998 189.007 51.2389 189.067 51.085C189.127 50.9311 189.229 50.7911 189.36 50.6826C189.539 50.5387 189.756 50.462 189.966 50.469C190.175 50.476 190.36 50.5661 190.481 50.72Z" fill="#B4904F"/>
<path d="M228.524 102.714C228.606 102.817 228.65 102.947 228.652 103.088C228.654 103.229 228.613 103.374 228.534 103.505C228.456 103.636 228.343 103.746 228.21 103.822C228.078 103.899 227.932 103.937 227.791 103.933C227.65 103.929 227.52 103.882 227.418 103.799C227.316 103.715 227.247 103.599 227.219 103.465C227.191 103.331 227.206 103.185 227.261 103.046C227.317 102.907 227.411 102.781 227.531 102.684C227.689 102.556 227.881 102.488 228.067 102.493C228.252 102.499 228.416 102.578 228.524 102.714Z" fill="#B4904F"/>
<path d="M170.345 117.548C170.508 117.763 170.594 118.033 170.593 118.323C170.592 118.613 170.503 118.91 170.338 119.177C170.174 119.444 169.94 119.669 169.667 119.822C169.394 119.976 169.094 120.053 168.805 120.042C168.516 120.031 168.25 119.933 168.042 119.761C167.834 119.589 167.692 119.351 167.635 119.075C167.579 118.8 167.609 118.501 167.722 118.215C167.835 117.929 168.027 117.67 168.273 117.47C168.436 117.336 168.619 117.233 168.812 117.164C169.005 117.096 169.203 117.065 169.396 117.072C169.588 117.079 169.771 117.125 169.934 117.207C170.097 117.288 170.237 117.404 170.345 117.548Z" fill="#B4904F"/>
<path d="M153.881 116.795C154.195 117.196 154.366 117.702 154.372 118.248C154.378 118.794 154.218 119.356 153.913 119.862C153.608 120.369 153.172 120.798 152.659 121.094C152.147 121.391 151.581 121.541 151.034 121.527C150.487 121.513 149.983 121.335 149.586 121.015C149.189 120.696 148.917 120.249 148.804 119.731C148.691 119.214 148.742 118.649 148.952 118.108C149.161 117.568 149.519 117.076 149.979 116.695C150.595 116.185 151.352 115.91 152.083 115.929C152.814 115.947 153.461 116.259 153.881 116.795Z" fill="#B4904F"/>
<path d="M147.143 144.502C147.46 144.917 147.629 145.437 147.629 145.997C147.629 146.558 147.459 147.132 147.142 147.649C146.825 148.165 146.375 148.6 145.848 148.899C145.321 149.198 144.741 149.347 144.182 149.327C143.623 149.307 143.109 149.119 142.706 148.787C142.304 148.455 142.03 147.995 141.919 147.463C141.809 146.931 141.866 146.352 142.085 145.8C142.304 145.248 142.675 144.746 143.149 144.36C143.785 143.842 144.563 143.566 145.312 143.593C146.06 143.619 146.719 143.946 147.143 144.502Z" fill="#B4904F"/>
<path d="M80.1166 73.4102C80.358 73.7441 80.4828 74.1582 80.4753 74.6011C80.4678 75.044 80.3284 75.4962 80.0745 75.9017C79.8206 76.3071 79.4633 76.6479 79.0469 76.8817C78.6305 77.1156 78.1733 77.2323 77.7321 77.2172C77.291 77.2022 76.8852 77.0561 76.5652 76.7971C76.2452 76.5381 76.025 76.1776 75.932 75.7604C75.839 75.3431 75.8772 74.8874 76.0419 74.4498C76.2066 74.0123 76.4906 73.6121 76.8586 73.299C77.1126 73.0829 77.4002 72.9138 77.7039 72.8019C78.0077 72.69 78.3213 72.6376 78.6258 72.648C78.9303 72.6584 79.2194 72.7313 79.4757 72.8623C79.7319 72.9933 79.9499 73.1797 80.1166 73.4102Z" fill="#B4904F"/>
<path d="M87.0028 167.56C87.0273 167.589 87.0446 167.624 87.0536 167.663C87.0627 167.702 87.0634 167.743 87.0556 167.785C87.0479 167.827 87.0319 167.868 87.0085 167.906C86.9852 167.944 86.955 167.978 86.9199 168.006C86.8501 168.062 86.765 168.093 86.6827 168.091C86.6004 168.089 86.5274 168.055 86.4792 167.995C86.4427 167.971 86.4134 167.939 86.3933 167.9C86.3731 167.861 86.3627 167.817 86.3627 167.77C86.3628 167.724 86.3733 167.676 86.3935 167.631C86.4137 167.585 86.4431 167.544 86.4796 167.508C86.5161 167.473 86.5588 167.444 86.6047 167.426C86.6506 167.407 86.6985 167.398 86.745 167.399C86.7915 167.4 86.8354 167.412 86.8737 167.433C86.912 167.454 86.9436 167.485 86.9663 167.522L87.0028 167.56Z" fill="#B4904F"/>
<path d="M66.551 87.2312C66.7622 87.5155 66.8371 87.8906 66.7596 88.2752C66.6822 88.6598 66.4585 89.023 66.1371 89.2859C65.812 89.5551 65.4124 89.7006 65.0264 89.6903C64.6403 89.68 64.2993 89.5148 64.0784 89.2309C63.8575 88.9471 63.7747 88.568 63.8484 88.1769C63.922 87.7858 64.1461 87.4148 64.4711 87.1456C64.6344 87.0086 64.8188 86.9018 65.0132 86.8317C65.2076 86.7616 65.408 86.7295 65.6024 86.7375C65.7967 86.7455 65.9809 86.7934 66.144 86.8782C66.307 86.9631 66.4455 87.0831 66.551 87.2312Z" fill="#B4904F"/>
<path d="M66.1428 157.798C66.2294 157.911 66.2896 158.045 66.32 158.19C66.3504 158.336 66.3503 158.491 66.3197 158.646C66.2891 158.801 66.2287 158.954 66.1419 159.095C66.0551 159.237 65.9436 159.364 65.8137 159.47C65.6838 159.576 65.5381 159.659 65.385 159.713C65.2318 159.768 65.0742 159.793 64.9211 159.787C64.768 159.782 64.6224 159.746 64.4927 159.682C64.3629 159.617 64.2515 159.526 64.1649 159.412C64.0782 159.298 64.018 159.165 63.9876 159.019C63.9573 158.874 63.9574 158.719 63.9879 158.564C64.0185 158.408 64.0789 158.256 64.1657 158.114C64.2526 157.973 64.3641 157.845 64.4939 157.739C64.6238 157.633 64.7695 157.551 64.9226 157.496C65.0758 157.442 65.2334 157.417 65.3865 157.422C65.5396 157.428 65.6852 157.464 65.815 157.528C65.9447 157.592 66.0561 157.684 66.1428 157.798Z" fill="#B4904F"/>
<path d="M56.6109 14.0372C56.669 14.1086 56.7013 14.1994 56.7035 14.298C56.7057 14.3966 56.6777 14.4983 56.6232 14.5903C56.5687 14.6823 56.4902 14.7602 56.3976 14.8141C56.3051 14.868 56.2028 14.8954 56.1038 14.8928C56.0049 14.8902 55.9138 14.8577 55.8424 14.7995C55.7709 14.7412 55.7223 14.66 55.7027 14.5661C55.6831 14.4722 55.6936 14.3699 55.7326 14.2724C55.7717 14.175 55.8376 14.0867 55.9219 14.0191C55.9757 13.9742 56.0362 13.939 56.1 13.9156C56.1638 13.8922 56.2297 13.881 56.2937 13.8827C56.3578 13.8844 56.4188 13.8989 56.4732 13.9255C56.5276 13.952 56.5744 13.9899 56.6109 14.0372Z" fill="#B4904F"/>
<mask id="mask0_416_2087" style="mask-type:luminance" maskUnits="userSpaceOnUse" x="-466" y="-406" width="1096" height="1086">
<path d="M-99.9176 679.827L629.569 -28.7908L264.117 -405.004L-465.369 303.613L-99.9176 679.827Z" fill="white"/>
</mask>
<g mask="url(#mask0_416_2087)">
</g>
<defs>
<linearGradient id="paint0_linear_416_2087" x1="381.655" y1="81.842" x2="-2.26823" y2="454.783" gradientUnits="userSpaceOnUse">
<stop offset="0.1" stop-color="#894323"/>
<stop offset="0.52" stop-color="#EAB745"/>
<stop offset="0.6" stop-color="#FFD04C"/>
<stop offset="0.64" stop-color="#FFD354"/>
<stop offset="0.7" stop-color="#FFDD69"/>
<stop offset="0.78" stop-color="#FFED8C"/>
<stop offset="0.83" stop-color="#FFFAAA"/>
<stop offset="0.84" stop-color="#FEF8A6"/>
<stop offset="0.86" stop-color="#FBF19B"/>
<stop offset="0.87" stop-color="#F6E688"/>
<stop offset="0.89" stop-color="#EED76D"/>
<stop offset="0.9" stop-color="#E5C34A"/>
<stop offset="0.91" stop-color="#D9AB21"/>
<stop offset="0.92" stop-color="#D09800"/>
</linearGradient>
<linearGradient id="paint1_linear_416_2087" x1="329.888" y1="-36.4434" x2="368.128" y2="21.6157" gradientUnits="userSpaceOnUse">
<stop offset="0.08" stop-color="#A2602D"/>
<stop offset="0.11" stop-color="#AE6F31"/>
<stop offset="0.2" stop-color="#DAA340"/>
<stop offset="0.28" stop-color="#F5C449"/>
<stop offset="0.32" stop-color="#FFD04C"/>
<stop offset="0.35" stop-color="#FFD352"/>
<stop offset="0.38" stop-color="#FFDB65"/>
<stop offset="0.43" stop-color="#FFE882"/>
<stop offset="0.48" stop-color="#FFFAAA"/>
<stop offset="0.52" stop-color="#F6E88B"/>
<stop offset="0.6" stop-color="#E1BB3C"/>
<stop offset="0.66" stop-color="#D09800"/>
<stop offset="0.69" stop-color="#D19B04"/>
<stop offset="0.73" stop-color="#D5A211"/>
<stop offset="0.76" stop-color="#DBAE27"/>
<stop offset="0.8" stop-color="#E3C045"/>
<stop offset="0.84" stop-color="#EED66C"/>
<stop offset="0.88" stop-color="#FBF19B"/>
<stop offset="0.89" stop-color="#FFFAAA"/>
<stop offset="0.93" stop-color="#FFF48B"/>
<stop offset="1" stop-color="#FFE746"/>
</linearGradient>
<linearGradient id="paint2_linear_416_2087" x1="185.872" y1="361.643" x2="252.136" y2="459.399" gradientUnits="userSpaceOnUse">
<stop offset="0.22" stop-color="#894323"/>
<stop offset="0.27" stop-color="#914C26"/>
<stop offset="0.36" stop-color="#A6652D"/>
<stop offset="0.47" stop-color="#C88E39"/>
<stop offset="0.6" stop-color="#F6C649"/>
<stop offset="0.63" stop-color="#FFD04C"/>
<stop offset="0.66" stop-color="#FFD354"/>
<stop offset="0.71" stop-color="#FFDD69"/>
<stop offset="0.78" stop-color="#FFED8C"/>
<stop offset="0.83" stop-color="#FFFAAA"/>
<stop offset="0.84" stop-color="#FEF8A6"/>
<stop offset="0.86" stop-color="#FBF19B"/>
<stop offset="0.87" stop-color="#F6E688"/>
<stop offset="0.89" stop-color="#EED76D"/>
<stop offset="0.9" stop-color="#E5C34A"/>
<stop offset="0.91" stop-color="#D9AB21"/>
<stop offset="0.92" stop-color="#D09800"/>
</linearGradient>
<linearGradient id="paint3_linear_416_2087" x1="257.003" y1="374.028" x2="218.763" y2="315.969" gradientUnits="userSpaceOnUse">
<stop offset="0.08" stop-color="#A2602D"/>
<stop offset="0.11" stop-color="#AE6F31"/>
<stop offset="0.2" stop-color="#DAA340"/>
<stop offset="0.28" stop-color="#F5C449"/>
<stop offset="0.32" stop-color="#FFD04C"/>
<stop offset="0.35" stop-color="#FFD352"/>
<stop offset="0.38" stop-color="#FFDB65"/>
<stop offset="0.43" stop-color="#FFE882"/>
<stop offset="0.48" stop-color="#FFFAAA"/>
<stop offset="0.52" stop-color="#F6E88B"/>
<stop offset="0.6" stop-color="#E1BB3C"/>
<stop offset="0.66" stop-color="#D09800"/>
<stop offset="0.69" stop-color="#D19B04"/>
<stop offset="0.73" stop-color="#D5A211"/>
<stop offset="0.76" stop-color="#DBAE27"/>
<stop offset="0.8" stop-color="#E3C045"/>
<stop offset="0.84" stop-color="#EED66C"/>
<stop offset="0.88" stop-color="#FBF19B"/>
<stop offset="0.89" stop-color="#FFFAAA"/>
<stop offset="0.93" stop-color="#FFF48B"/>
<stop offset="1" stop-color="#FFE746"/>
</linearGradient>
<linearGradient id="paint4_linear_416_2087" x1="150.18" y1="542.908" x2="324.605" y2="433.771" gradientUnits="userSpaceOnUse">
<stop offset="0.08" stop-color="#A2602D"/>
<stop offset="0.11" stop-color="#AE6F31"/>
<stop offset="0.2" stop-color="#DAA340"/>
<stop offset="0.28" stop-color="#F5C449"/>
<stop offset="0.32" stop-color="#FFD04C"/>
<stop offset="0.35" stop-color="#FFD352"/>
<stop offset="0.38" stop-color="#FFDB65"/>
<stop offset="0.43" stop-color="#FFE882"/>
<stop offset="0.48" stop-color="#FFFAAA"/>
<stop offset="0.52" stop-color="#F6E88B"/>
<stop offset="0.6" stop-color="#E1BB3C"/>
<stop offset="0.66" stop-color="#D09800"/>
<stop offset="0.69" stop-color="#D19B04"/>
<stop offset="0.73" stop-color="#D5A211"/>
<stop offset="0.76" stop-color="#DBAE27"/>
<stop offset="0.8" stop-color="#E3C045"/>
<stop offset="0.84" stop-color="#EED66C"/>
<stop offset="0.88" stop-color="#FBF19B"/>
<stop offset="0.89" stop-color="#FFFAAA"/>
<stop offset="0.93" stop-color="#FFF48B"/>
<stop offset="1" stop-color="#FFE746"/>
</linearGradient>
<linearGradient id="paint5_linear_416_2087" x1="289.727" y1="37.9679" x2="312.505" y2="72.5517" gradientUnits="userSpaceOnUse">
<stop offset="0.1" stop-color="#894323"/>
<stop offset="0.52" stop-color="#EAB745"/>
<stop offset="0.6" stop-color="#FFD04C"/>
<stop offset="0.64" stop-color="#FFD354"/>
<stop offset="0.7" stop-color="#FFDD69"/>
<stop offset="0.78" stop-color="#FFED8C"/>
<stop offset="0.83" stop-color="#FFFAAA"/>
<stop offset="0.84" stop-color="#FEF8A6"/>
<stop offset="0.86" stop-color="#FBF19B"/>
<stop offset="0.87" stop-color="#F6E688"/>
<stop offset="0.89" stop-color="#EED76D"/>
<stop offset="0.9" stop-color="#E5C34A"/>
<stop offset="0.91" stop-color="#D9AB21"/>
<stop offset="0.92" stop-color="#D09800"/>
</linearGradient>
<linearGradient id="paint6_linear_416_2087" x1="397.728" y1="183.793" x2="410.279" y2="135.832" gradientUnits="userSpaceOnUse">
<stop offset="0.22" stop-color="#B9B8B3"/>
<stop offset="0.3" stop-color="#C0C0BC"/>
<stop offset="0.44" stop-color="#D4D7D5"/>
<stop offset="0.62" stop-color="#F5FDFD"/>
<stop offset="0.63" stop-color="#F6FEFF"/>
<stop offset="0.83" stop-color="#F6FEFF"/>
<stop offset="0.85" stop-color="#F3FBFB"/>
<stop offset="0.87" stop-color="#EAF0F0"/>
<stop offset="0.89" stop-color="#DBDFDD"/>
<stop offset="0.91" stop-color="#C5C6C2"/>
<stop offset="0.92" stop-color="#B9B8B3"/>
</linearGradient>
<linearGradient id="paint7_linear_416_2087" x1="198.053" y1="-0.0942626" x2="210.605" y2="-48.0548" gradientUnits="userSpaceOnUse">
<stop offset="0.22" stop-color="#B9B8B3"/>
<stop offset="0.3" stop-color="#C0C0BC"/>
<stop offset="0.44" stop-color="#D4D7D5"/>
<stop offset="0.62" stop-color="#F5FDFD"/>
<stop offset="0.63" stop-color="#F6FEFF"/>
<stop offset="0.83" stop-color="#F6FEFF"/>
<stop offset="0.85" stop-color="#F3FBFB"/>
<stop offset="0.87" stop-color="#EAF0F0"/>
<stop offset="0.89" stop-color="#DBDFDD"/>
<stop offset="0.91" stop-color="#C5C6C2"/>
<stop offset="0.92" stop-color="#B9B8B3"/>
</linearGradient>
<linearGradient id="paint8_linear_416_2087" x1="275.869" y1="283.975" x2="291.442" y2="307.619" gradientUnits="userSpaceOnUse">
<stop offset="0.08" stop-color="#A2602D"/>
<stop offset="0.11" stop-color="#AE6F31"/>
<stop offset="0.2" stop-color="#DAA340"/>
<stop offset="0.28" stop-color="#F5C449"/>
<stop offset="0.32" stop-color="#FFD04C"/>
<stop offset="0.35" stop-color="#FFD352"/>
<stop offset="0.38" stop-color="#FFDB65"/>
<stop offset="0.43" stop-color="#FFE882"/>
<stop offset="0.48" stop-color="#FFFAAA"/>
<stop offset="0.52" stop-color="#F6E88B"/>
<stop offset="0.6" stop-color="#E1BB3C"/>
<stop offset="0.66" stop-color="#D09800"/>
<stop offset="0.69" stop-color="#D19B04"/>
<stop offset="0.73" stop-color="#D5A211"/>
<stop offset="0.76" stop-color="#DBAE27"/>
<stop offset="0.8" stop-color="#E3C045"/>
<stop offset="0.84" stop-color="#EED66C"/>
<stop offset="0.88" stop-color="#FBF19B"/>
<stop offset="0.89" stop-color="#FFFAAA"/>
<stop offset="0.93" stop-color="#FFF48B"/>
<stop offset="1" stop-color="#FFE746"/>
</linearGradient>
<linearGradient id="paint9_linear_416_2087" x1="231.056" y1="365.8" x2="201.527" y2="379.16" gradientUnits="userSpaceOnUse">
<stop offset="0.08" stop-color="#A2602D"/>
<stop offset="0.11" stop-color="#AE6F31"/>
<stop offset="0.2" stop-color="#DAA340"/>
<stop offset="0.28" stop-color="#F5C449"/>
<stop offset="0.32" stop-color="#FFD04C"/>
<stop offset="0.35" stop-color="#FFD352"/>
<stop offset="0.38" stop-color="#FFDB65"/>
<stop offset="0.43" stop-color="#FFE882"/>
<stop offset="0.48" stop-color="#FFFAAA"/>
<stop offset="0.52" stop-color="#F6E88B"/>
<stop offset="0.6" stop-color="#E1BB3C"/>
<stop offset="0.66" stop-color="#D09800"/>
<stop offset="0.69" stop-color="#D19B04"/>
<stop offset="0.73" stop-color="#D5A211"/>
<stop offset="0.76" stop-color="#DBAE27"/>
<stop offset="0.8" stop-color="#E3C045"/>
<stop offset="0.84" stop-color="#EED66C"/>
<stop offset="0.88" stop-color="#FBF19B"/>
<stop offset="0.89" stop-color="#FFFAAA"/>
<stop offset="0.93" stop-color="#FFF48B"/>
<stop offset="1" stop-color="#FFE746"/>
</linearGradient>
<linearGradient id="paint10_linear_416_2087" x1="116.81" y1="495.231" x2="80.5513" y2="482.104" gradientUnits="userSpaceOnUse">
<stop offset="0.22" stop-color="#B9B8B3"/>
<stop offset="0.3" stop-color="#C0C0BC"/>
<stop offset="0.44" stop-color="#D4D7D5"/>
<stop offset="0.62" stop-color="#F5FDFD"/>
<stop offset="0.63" stop-color="#F6FEFF"/>
<stop offset="0.83" stop-color="#F6FEFF"/>
<stop offset="0.85" stop-color="#F3FBFB"/>
<stop offset="0.87" stop-color="#EAF0F0"/>
<stop offset="0.89" stop-color="#DBDFDD"/>
<stop offset="0.91" stop-color="#C5C6C2"/>
<stop offset="0.92" stop-color="#B9B8B3"/>
</linearGradient>
<linearGradient id="paint11_linear_416_2087" x1="602.493" y1="4.24574" x2="566.235" y2="-8.88131" gradientUnits="userSpaceOnUse">
<stop offset="0.22" stop-color="#B9B8B3"/>
<stop offset="0.3" stop-color="#C0C0BC"/>
<stop offset="0.44" stop-color="#D4D7D5"/>
<stop offset="0.62" stop-color="#F5FDFD"/>
<stop offset="0.63" stop-color="#F6FEFF"/>
<stop offset="0.83" stop-color="#F6FEFF"/>
<stop offset="0.85" stop-color="#F3FBFB"/>
<stop offset="0.87" stop-color="#EAF0F0"/>
<stop offset="0.89" stop-color="#DBDFDD"/>
<stop offset="0.91" stop-color="#C5C6C2"/>
<stop offset="0.92" stop-color="#B9B8B3"/>
</linearGradient>
<linearGradient id="paint12_linear_416_2087" x1="315.233" y1="184.369" x2="260.502" y2="218.61" gradientUnits="userSpaceOnUse">
<stop offset="0.08" stop-color="#A2602D"/>
<stop offset="0.11" stop-color="#AE6F31"/>
<stop offset="0.2" stop-color="#DAA340"/>
<stop offset="0.28" stop-color="#F5C449"/>
<stop offset="0.32" stop-color="#FFD04C"/>
<stop offset="0.35" stop-color="#FFD352"/>
<stop offset="0.38" stop-color="#FFDB65"/>
<stop offset="0.43" stop-color="#FFE882"/>
<stop offset="0.48" stop-color="#FFFAAA"/>
<stop offset="0.52" stop-color="#F6E88B"/>
<stop offset="0.6" stop-color="#E1BB3C"/>
<stop offset="0.66" stop-color="#D09800"/>
<stop offset="0.69" stop-color="#D19B04"/>
<stop offset="0.73" stop-color="#D5A211"/>
<stop offset="0.76" stop-color="#DBAE27"/>
<stop offset="0.8" stop-color="#E3C045"/>
<stop offset="0.84" stop-color="#EED66C"/>
<stop offset="0.88" stop-color="#FBF19B"/>
<stop offset="0.89" stop-color="#FFFAAA"/>
<stop offset="0.93" stop-color="#FFF48B"/>
<stop offset="1" stop-color="#FFE746"/>
</linearGradient>
<linearGradient id="paint13_linear_416_2087" x1="432.485" y1="82.9337" x2="377.766" y2="117.169" gradientUnits="userSpaceOnUse">
<stop offset="0.08" stop-color="#A2602D"/>
<stop offset="0.11" stop-color="#AE6F31"/>
<stop offset="0.2" stop-color="#DAA340"/>
<stop offset="0.28" stop-color="#F5C449"/>
<stop offset="0.32" stop-color="#FFD04C"/>
<stop offset="0.35" stop-color="#FFD352"/>
<stop offset="0.38" stop-color="#FFDB65"/>
<stop offset="0.43" stop-color="#FFE882"/>
<stop offset="0.48" stop-color="#FFFAAA"/>
<stop offset="0.52" stop-color="#F6E88B"/>
<stop offset="0.6" stop-color="#E1BB3C"/>
<stop offset="0.66" stop-color="#D09800"/>
<stop offset="0.69" stop-color="#D19B04"/>
<stop offset="0.73" stop-color="#D5A211"/>
<stop offset="0.76" stop-color="#DBAE27"/>
<stop offset="0.8" stop-color="#E3C045"/>
<stop offset="0.84" stop-color="#EED66C"/>
<stop offset="0.88" stop-color="#FBF19B"/>
<stop offset="0.89" stop-color="#FFFAAA"/>
<stop offset="0.93" stop-color="#FFF48B"/>
<stop offset="1" stop-color="#FFE746"/>
</linearGradient>
<linearGradient id="paint14_linear_416_2087" x1="163.288" y1="315.385" x2="108.561" y2="349.608" gradientUnits="userSpaceOnUse">
<stop offset="0.08" stop-color="#A2602D"/>
<stop offset="0.11" stop-color="#AE6F31"/>
<stop offset="0.2" stop-color="#DAA340"/>
<stop offset="0.28" stop-color="#F5C449"/>
<stop offset="0.32" stop-color="#FFD04C"/>
<stop offset="0.35" stop-color="#FFD352"/>
<stop offset="0.38" stop-color="#FFDB65"/>
<stop offset="0.43" stop-color="#FFE882"/>
<stop offset="0.48" stop-color="#FFFAAA"/>
<stop offset="0.52" stop-color="#F6E88B"/>
<stop offset="0.6" stop-color="#E1BB3C"/>
<stop offset="0.66" stop-color="#D09800"/>
<stop offset="0.69" stop-color="#D19B04"/>
<stop offset="0.73" stop-color="#D5A211"/>
<stop offset="0.76" stop-color="#DBAE27"/>
<stop offset="0.8" stop-color="#E3C045"/>
<stop offset="0.84" stop-color="#EED66C"/>
<stop offset="0.88" stop-color="#FBF19B"/>
<stop offset="0.89" stop-color="#FFFAAA"/>
<stop offset="0.93" stop-color="#FFF48B"/>
<stop offset="1" stop-color="#FFE746"/>
</linearGradient>
<linearGradient id="paint15_linear_416_2087" x1="41.0959" y1="398.169" x2="-0.711751" y2="421.696" gradientUnits="userSpaceOnUse">
<stop offset="0.1" stop-color="#894323"/>
<stop offset="0.52" stop-color="#EAB745"/>
<stop offset="0.6" stop-color="#FFD04C"/>
<stop offset="0.64" stop-color="#FFD354"/>
<stop offset="0.7" stop-color="#FFDD69"/>
<stop offset="0.78" stop-color="#FFED8C"/>
<stop offset="0.83" stop-color="#FFFAAA"/>
<stop offset="0.84" stop-color="#FEF8A6"/>
<stop offset="0.86" stop-color="#FBF19B"/>
<stop offset="0.87" stop-color="#F6E688"/>
<stop offset="0.89" stop-color="#EED76D"/>
<stop offset="0.9" stop-color="#E5C34A"/>
<stop offset="0.91" stop-color="#D9AB21"/>
<stop offset="0.92" stop-color="#D09800"/>
</linearGradient>
<linearGradient id="paint16_linear_416_2087" x1="129.61" y1="284.199" x2="171.365" y2="301.278" gradientUnits="userSpaceOnUse">
<stop offset="0.22" stop-color="#B9B8B3"/>
<stop offset="0.3" stop-color="#C0C0BC"/>
<stop offset="0.44" stop-color="#D4D7D5"/>
<stop offset="0.62" stop-color="#F5FDFD"/>
<stop offset="0.63" stop-color="#F6FEFF"/>
<stop offset="0.83" stop-color="#F6FEFF"/>
<stop offset="0.85" stop-color="#F3FBFB"/>
<stop offset="0.87" stop-color="#EAF0F0"/>
<stop offset="0.89" stop-color="#DBDFDD"/>
<stop offset="0.91" stop-color="#C5C6C2"/>
<stop offset="0.92" stop-color="#B9B8B3"/>
</linearGradient>
<linearGradient id="paint17_linear_416_2087" x1="59.0269" y1="692.838" x2="67.6401" y2="651.864" gradientUnits="userSpaceOnUse">
<stop offset="0.22" stop-color="#B9B8B3"/>
<stop offset="0.3" stop-color="#C0C0BC"/>
<stop offset="0.44" stop-color="#D4D7D5"/>
<stop offset="0.62" stop-color="#F5FDFD"/>
<stop offset="0.63" stop-color="#F6FEFF"/>
<stop offset="0.83" stop-color="#F6FEFF"/>
<stop offset="0.85" stop-color="#F3FBFB"/>
<stop offset="0.87" stop-color="#EAF0F0"/>
<stop offset="0.89" stop-color="#DBDFDD"/>
<stop offset="0.91" stop-color="#C5C6C2"/>
<stop offset="0.92" stop-color="#B9B8B3"/>
</linearGradient>
<linearGradient id="paint18_linear_416_2087" x1="469.518" y1="51.7078" x2="511.273" y2="68.7871" gradientUnits="userSpaceOnUse">
<stop offset="0.22" stop-color="#894323"/>
<stop offset="0.27" stop-color="#914C26"/>
<stop offset="0.36" stop-color="#A6652D"/>
<stop offset="0.47" stop-color="#C88E39"/>
<stop offset="0.6" stop-color="#F6C649"/>
<stop offset="0.63" stop-color="#FFD04C"/>
<stop offset="0.66" stop-color="#FFD354"/>
<stop offset="0.71" stop-color="#FFDD69"/>
<stop offset="0.78" stop-color="#FFED8C"/>
<stop offset="0.83" stop-color="#FFFAAA"/>
<stop offset="0.84" stop-color="#FEF8A6"/>
<stop offset="0.86" stop-color="#FBF19B"/>
<stop offset="0.87" stop-color="#F6E688"/>
<stop offset="0.89" stop-color="#EED76D"/>
<stop offset="0.9" stop-color="#E5C34A"/>
<stop offset="0.91" stop-color="#D9AB21"/>
<stop offset="0.92" stop-color="#D09800"/>
</linearGradient>
<linearGradient id="paint19_linear_416_2087" x1="375.683" y1="44.4713" x2="399.17" y2="15.6019" gradientUnits="userSpaceOnUse">
<stop offset="0.22" stop-color="#B9B8B3"/>
<stop offset="0.3" stop-color="#C0C0BC"/>
<stop offset="0.44" stop-color="#D4D7D5"/>
<stop offset="0.62" stop-color="#F5FDFD"/>
<stop offset="0.63" stop-color="#F6FEFF"/>
<stop offset="0.83" stop-color="#F6FEFF"/>
<stop offset="0.85" stop-color="#F3FBFB"/>
<stop offset="0.87" stop-color="#EAF0F0"/>
<stop offset="0.89" stop-color="#DBDFDD"/>
<stop offset="0.91" stop-color="#C5C6C2"/>
<stop offset="0.92" stop-color="#B9B8B3"/>
</linearGradient>
<linearGradient id="paint20_linear_416_2087" x1="-0.927188" y1="686.001" x2="-26.9004" y2="673.862" gradientUnits="userSpaceOnUse">
<stop offset="0.08" stop-color="#A2602D"/>
<stop offset="0.11" stop-color="#AE6F31"/>
<stop offset="0.2" stop-color="#DAA340"/>
<stop offset="0.28" stop-color="#F5C449"/>
<stop offset="0.32" stop-color="#FFD04C"/>
<stop offset="0.35" stop-color="#FFD352"/>
<stop offset="0.38" stop-color="#FFDB65"/>
<stop offset="0.43" stop-color="#FFE882"/>
<stop offset="0.48" stop-color="#FFFAAA"/>
<stop offset="0.52" stop-color="#F6E88B"/>
<stop offset="0.6" stop-color="#E1BB3C"/>
<stop offset="0.66" stop-color="#D09800"/>
<stop offset="0.69" stop-color="#D19B04"/>
<stop offset="0.73" stop-color="#D5A211"/>
<stop offset="0.76" stop-color="#DBAE27"/>
<stop offset="0.8" stop-color="#E3C045"/>
<stop offset="0.84" stop-color="#EED66C"/>
<stop offset="0.88" stop-color="#FBF19B"/>
<stop offset="0.89" stop-color="#FFFAAA"/>
<stop offset="0.93" stop-color="#FFF48B"/>
<stop offset="1" stop-color="#FFE746"/>
</linearGradient>
<linearGradient id="paint21_linear_416_2087" x1="32.1831" y1="510.02" x2="0.116907" y2="464.806" gradientUnits="userSpaceOnUse">
<stop offset="0.08" stop-color="#A2602D"/>
<stop offset="0.11" stop-color="#AE6F31"/>
<stop offset="0.2" stop-color="#DAA340"/>
<stop offset="0.28" stop-color="#F5C449"/>
<stop offset="0.32" stop-color="#FFD04C"/>
<stop offset="0.35" stop-color="#FFD352"/>
<stop offset="0.38" stop-color="#FFDB65"/>
<stop offset="0.43" stop-color="#FFE882"/>
<stop offset="0.48" stop-color="#FFFAAA"/>
<stop offset="0.52" stop-color="#F6E88B"/>
<stop offset="0.6" stop-color="#E1BB3C"/>
<stop offset="0.66" stop-color="#D09800"/>
<stop offset="0.69" stop-color="#D19B04"/>
<stop offset="0.73" stop-color="#D5A211"/>
<stop offset="0.76" stop-color="#DBAE27"/>
<stop offset="0.8" stop-color="#E3C045"/>
<stop offset="0.84" stop-color="#EED66C"/>
<stop offset="0.88" stop-color="#FBF19B"/>
<stop offset="0.89" stop-color="#FFFAAA"/>
<stop offset="0.93" stop-color="#FFF48B"/>
<stop offset="1" stop-color="#FFE746"/>
</linearGradient>
<linearGradient id="paint22_linear_416_2087" x1="380.289" y1="378.953" x2="338.481" y2="402.48" gradientUnits="userSpaceOnUse">
<stop offset="0.1" stop-color="#894323"/>
<stop offset="0.52" stop-color="#EAB745"/>
<stop offset="0.6" stop-color="#FFD04C"/>
<stop offset="0.64" stop-color="#FFD354"/>
<stop offset="0.7" stop-color="#FFDD69"/>
<stop offset="0.78" stop-color="#FFED8C"/>
<stop offset="0.83" stop-color="#FFFAAA"/>
<stop offset="0.84" stop-color="#FEF8A6"/>
<stop offset="0.86" stop-color="#FBF19B"/>
<stop offset="0.87" stop-color="#F6E688"/>
<stop offset="0.89" stop-color="#EED76D"/>
<stop offset="0.9" stop-color="#E5C34A"/>
<stop offset="0.91" stop-color="#D9AB21"/>
<stop offset="0.92" stop-color="#D09800"/>
</linearGradient>
<linearGradient id="paint23_linear_416_2087" x1="136.83" y1="430.767" x2="178.586" y2="447.846" gradientUnits="userSpaceOnUse">
<stop offset="0.22" stop-color="#B9B8B3"/>
<stop offset="0.3" stop-color="#C0C0BC"/>
<stop offset="0.44" stop-color="#D4D7D5"/>
<stop offset="0.62" stop-color="#F5FDFD"/>
<stop offset="0.63" stop-color="#F6FEFF"/>
<stop offset="0.83" stop-color="#F6FEFF"/>
<stop offset="0.85" stop-color="#F3FBFB"/>
<stop offset="0.87" stop-color="#EAF0F0"/>
<stop offset="0.89" stop-color="#DBDFDD"/>
<stop offset="0.91" stop-color="#C5C6C2"/>
<stop offset="0.92" stop-color="#B9B8B3"/>
</linearGradient>
<linearGradient id="paint24_linear_416_2087" x1="438.672" y1="227.77" x2="480.427" y2="244.849" gradientUnits="userSpaceOnUse">
<stop offset="0.22" stop-color="#B9B8B3"/>
<stop offset="0.3" stop-color="#C0C0BC"/>
<stop offset="0.44" stop-color="#D4D7D5"/>
<stop offset="0.62" stop-color="#F5FDFD"/>
<stop offset="0.63" stop-color="#F6FEFF"/>
<stop offset="0.83" stop-color="#F6FEFF"/>
<stop offset="0.85" stop-color="#F3FBFB"/>
<stop offset="0.87" stop-color="#EAF0F0"/>
<stop offset="0.89" stop-color="#DBDFDD"/>
<stop offset="0.91" stop-color="#C5C6C2"/>
<stop offset="0.92" stop-color="#B9B8B3"/>
</linearGradient>
<linearGradient id="paint25_linear_416_2087" x1="301.179" y1="344.612" x2="269.113" y2="299.398" gradientUnits="userSpaceOnUse">
<stop offset="0.08" stop-color="#A2602D"/>
<stop offset="0.11" stop-color="#AE6F31"/>
<stop offset="0.2" stop-color="#DAA340"/>
<stop offset="0.28" stop-color="#F5C449"/>
<stop offset="0.32" stop-color="#FFD04C"/>
<stop offset="0.35" stop-color="#FFD352"/>
<stop offset="0.38" stop-color="#FFDB65"/>
<stop offset="0.43" stop-color="#FFE882"/>
<stop offset="0.48" stop-color="#FFFAAA"/>
<stop offset="0.52" stop-color="#F6E88B"/>
<stop offset="0.6" stop-color="#E1BB3C"/>
<stop offset="0.66" stop-color="#D09800"/>
<stop offset="0.69" stop-color="#D19B04"/>
<stop offset="0.73" stop-color="#D5A211"/>
<stop offset="0.76" stop-color="#DBAE27"/>
<stop offset="0.8" stop-color="#E3C045"/>
<stop offset="0.84" stop-color="#EED66C"/>
<stop offset="0.88" stop-color="#FBF19B"/>
<stop offset="0.89" stop-color="#FFFAAA"/>
<stop offset="0.93" stop-color="#FFF48B"/>
<stop offset="1" stop-color="#FFE746"/>
</linearGradient>
<linearGradient id="paint26_linear_416_2087" x1="247.227" y1="514.184" x2="215.161" y2="468.97" gradientUnits="userSpaceOnUse">
<stop offset="0.08" stop-color="#A2602D"/>
<stop offset="0.11" stop-color="#AE6F31"/>
<stop offset="0.2" stop-color="#DAA340"/>
<stop offset="0.28" stop-color="#F5C449"/>
<stop offset="0.32" stop-color="#FFD04C"/>
<stop offset="0.35" stop-color="#FFD352"/>
<stop offset="0.38" stop-color="#FFDB65"/>
<stop offset="0.43" stop-color="#FFE882"/>
<stop offset="0.48" stop-color="#FFFAAA"/>
<stop offset="0.52" stop-color="#F6E88B"/>
<stop offset="0.6" stop-color="#E1BB3C"/>
<stop offset="0.66" stop-color="#D09800"/>
<stop offset="0.69" stop-color="#D19B04"/>
<stop offset="0.73" stop-color="#D5A211"/>
<stop offset="0.76" stop-color="#DBAE27"/>
<stop offset="0.8" stop-color="#E3C045"/>
<stop offset="0.84" stop-color="#EED66C"/>
<stop offset="0.88" stop-color="#FBF19B"/>
<stop offset="0.89" stop-color="#FFFAAA"/>
<stop offset="0.93" stop-color="#FFF48B"/>
<stop offset="1" stop-color="#FFE746"/>
</linearGradient>
</defs>
</svg>
