<svg width="680" height="733" viewBox="0 0 680 733" fill="none" xmlns="http://www.w3.org/2000/svg">
<path d="M828.154 364.613C819.98 371.912 810.164 377.04 799.76 379.446C787.32 382.234 772.105 381.246 754.601 377.015L754.548 376.959C752.441 376.476 750.441 375.862 748.528 375.182C748.528 375.182 529.79 311.904 528.69 311.631C520.305 309.749 500.942 305.282 489.602 316.835C489.602 316.835 494.784 301.441 505.598 290.279C505.598 290.279 517.425 275.939 533.87 275.335C538.7 275.196 550.666 275.753 564.927 276.588C566.917 276.63 569.066 276.758 571.373 276.972C573.784 277.11 576.226 277.257 578.7 277.415L578.305 277.786C634.199 285.6 755.501 328.678 785.291 339.449L785.335 339.408C791.42 339.936 802.481 343.118 804.971 343.181C812.702 343.349 832.787 349.586 844.059 337.978C844.096 338.018 838.952 353.451 828.154 364.613Z" fill="url(#paint0_linear_416_1818)"/>
<path d="M366.154 355.86C366.154 355.86 394.505 337.131 424.709 358.557C424.709 358.557 464.459 390.15 477.846 401.289L480.243 424.583L460.186 439.208C460.186 439.208 455.737 439.892 447.619 432.123C439.502 424.353 386.372 378.833 386.372 378.833C386.372 378.833 366.196 359.473 354.283 363.929L366.154 355.86Z" fill="url(#paint1_linear_416_1818)"/>
<path d="M460.201 439.224L497.637 416.038C498.909 415.369 499.984 414.352 500.724 413.12C501.464 411.888 501.835 410.498 501.787 409.13C501.787 409.13 502.522 396.972 500.164 373.492C497.805 350.011 490.154 304.519 508.388 287.445L479.198 319.451C479.198 319.451 467.133 332.993 464.107 345.052C464.107 345.052 459.342 369.31 460.691 392.507C462.039 415.705 465.496 432.636 460.201 439.224Z" fill="url(#paint2_linear_416_1818)"/>
<path d="M381.076 349.821C381.076 349.821 361.365 355.901 335.9 390.356C310.436 424.81 318.697 438.711 318.697 438.711L282.366 418.224C282.366 418.224 293.745 385.159 325.894 369.169C325.894 369.169 371.939 352.869 381.076 349.821Z" fill="url(#paint3_linear_416_1818)"/>
<path d="M530.193 318.558C531.37 317.17 532.847 316.061 534.494 315.33C536.14 314.599 537.905 314.27 539.631 314.37C545.446 314.822 579.844 321.544 579.844 321.544L572.548 332.704C572.548 332.704 571.883 332.172 561.874 330.901C551.866 329.629 541.971 327.529 539.258 327.194C536.546 326.86 529.151 323.761 525.61 327.467C526.402 324.234 527.977 321.172 530.193 318.558Z" fill="url(#paint4_linear_416_1818)"/>
<path d="M633.857 451.052C633.857 451.052 636.008 440.734 651.177 436.716C651.177 436.716 672.188 431.983 679.418 430.458L682.628 435.629L686.251 441.239C686.251 441.239 685.219 442.48 680.513 443.225C675.806 443.969 646.697 449.796 646.697 449.796C646.697 449.796 634.971 451.673 633.037 455.401L633.857 451.052Z" fill="url(#paint5_linear_416_1818)"/>
<path d="M450.827 234.911C450.827 234.911 452.969 224.601 468.14 220.567C468.14 220.567 489.151 215.834 496.372 214.317L499.575 219.48L503.197 225.09C503.197 225.09 502.158 226.323 497.459 227.076C492.76 227.828 463.655 233.607 463.655 233.607C463.655 233.607 451.954 235.459 449.985 239.219L450.827 234.911Z" fill="url(#paint6_linear_416_1818)"/>
<path d="M508.644 627.713L511.452 614.297C511.582 613.84 511.543 613.368 511.343 612.97C511.142 612.571 510.793 612.274 510.362 612.136C506.571 610.169 502.63 608.463 498.566 607.03C490.45 604.008 473.879 598.959 473.407 591.514L475.675 604.139C475.675 604.139 476.708 609.403 479.716 612.075C484.085 615.357 488.842 618.128 493.905 620.34C501.654 623.587 507.988 625.294 508.644 627.713Z" fill="url(#paint7_linear_416_1818)"/>
<path d="M273.689 9.65208L286.015 2.83884C286.44 2.62951 286.789 2.28124 286.999 1.85799C287.208 1.43475 287.263 0.964902 287.154 0.534613C286.768 -3.82541 286.091 -8.12811 285.126 -12.3456C283.334 -20.8791 278.776 -37.5566 284.494 -42.9042L275.467 -32.566C275.467 -32.566 271.743 -28.1922 271.146 -23.9933C270.768 -18.2854 271.009 -12.6122 271.865 -7.07205C273.38 1.27163 275.297 7.49383 273.689 9.65208Z" fill="url(#paint8_linear_416_1818)"/>
<path d="M478.762 527.01L481.563 513.586C481.693 513.129 481.653 512.657 481.45 512.26C481.248 511.862 480.896 511.568 480.464 511.433C476.678 509.459 472.741 507.751 468.677 506.319C460.553 503.289 443.997 498.256 443.487 490.787L445.755 503.396C445.755 503.396 446.78 508.669 449.804 511.34C454.187 514.607 458.956 517.361 464.03 519.556C471.773 522.884 478.106 524.607 478.762 527.01Z" fill="url(#paint9_linear_416_1818)"/>
<path d="M710.104 321.107C710.104 321.107 703.356 322.494 695.737 333.837C688.119 345.18 691.599 350.533 691.599 350.533L677.887 341.685C677.887 341.685 680.579 330.255 691.329 325.81C691.329 325.81 706.992 321.825 710.104 321.107Z" fill="url(#paint10_linear_416_1818)"/>
<path d="M607.067 430.953C607.067 430.953 600.284 432.373 592.689 443.635C585.093 454.897 588.55 460.331 588.55 460.331L574.85 451.531C574.85 451.531 577.543 440.102 588.293 435.657C588.293 435.657 603.956 431.671 607.067 430.953Z" fill="url(#paint11_linear_416_1818)"/>
<path d="M222.04 339.737C223.213 338.354 224.685 337.249 226.325 336.519C227.966 335.788 229.724 335.456 231.445 335.55C237.322 336.033 271.72 342.755 271.72 342.755L264.425 353.915C264.425 353.915 263.759 353.383 253.751 352.112C243.742 350.84 233.906 348.715 231.112 348.381C228.319 348.048 221.005 344.948 217.456 348.647C218.248 345.413 219.824 342.351 222.04 339.737Z" fill="url(#paint12_linear_416_1818)"/>
<path d="M417.57 384.192C417.57 384.192 419.712 373.882 434.875 369.84C434.875 369.84 455.886 365.106 463.107 363.59L466.317 368.761L469.94 374.371C469.94 374.371 468.908 375.612 464.201 376.356C459.495 377.101 430.372 382.896 430.372 382.896C430.372 382.896 418.672 384.748 416.703 388.509L417.57 384.192Z" fill="url(#paint13_linear_416_1818)"/>
<path d="M146.032 203.88C146.032 203.88 148.174 193.57 163.328 189.536C163.328 189.536 184.348 184.794 191.569 183.278L194.779 188.449L198.402 194.059C198.402 194.059 197.361 195.308 192.664 196.044C187.966 196.781 158.859 202.575 158.859 202.575C158.859 202.575 147.159 204.427 145.197 208.196L146.032 203.88Z" fill="url(#paint14_linear_416_1818)"/>
<path d="M341.504 263.778C341.504 263.778 334.756 265.165 327.129 276.516C319.501 287.868 322.99 293.213 322.99 293.213L309.287 284.355C309.287 284.355 311.979 272.926 322.729 268.481C322.729 268.481 338.392 264.495 341.504 263.778Z" fill="url(#paint15_linear_416_1818)"/>
<path d="M366.561 430.393C366.561 430.393 359.812 431.796 352.194 443.139C344.575 454.482 348.048 459.827 348.048 459.827L334.334 450.995C334.334 450.995 337.02 439.557 347.777 435.12C347.786 435.112 363.448 431.126 366.561 430.393Z" fill="url(#paint16_linear_416_1818)"/>
<path d="M261.26 176.192C261.26 176.192 251.047 175.037 248.453 160.254C248.453 160.254 245.677 139.722 244.826 132.647L250.358 128.948L256.372 124.794C256.372 124.794 257.527 125.706 257.83 130.335C258.133 134.965 261.202 163.472 261.202 163.472C261.202 163.472 261.958 174.965 265.57 176.572L261.26 176.192Z" fill="url(#paint17_linear_416_1818)"/>
<path d="M558.072 542.317C558.072 542.317 547.897 541.186 545.268 526.437C545.268 526.437 542.484 505.897 541.641 498.83L547.173 495.13L553.187 490.976C553.187 490.976 554.334 491.897 554.645 496.518C554.957 501.139 558.066 529.654 558.066 529.654C558.066 529.654 558.778 541.187 562.41 542.746L558.072 542.317Z" fill="url(#paint18_linear_416_1818)"/>
<path d="M551.865 416.297L546.167 404.63C545.996 404.225 545.677 403.91 545.269 403.741C544.862 403.572 544.392 403.562 543.947 403.712C539.505 404.514 535.093 405.601 530.739 406.967C521.937 409.58 504.659 415.716 499.757 410.468L509.341 418.496C509.341 418.496 513.412 421.805 517.598 422.001C523.329 421.834 529.084 421.051 534.764 419.667C543.377 417.398 549.847 414.889 551.865 416.297Z" fill="url(#paint19_linear_416_1818)"/>
<path d="M262.816 44.5542L266.998 56.9116C267.109 57.3498 267.381 57.7169 267.765 57.9433C268.149 58.1698 268.616 58.2398 269.079 58.1401C273.532 57.8862 277.992 57.342 282.428 56.511C291.374 54.965 309.12 50.9437 313.244 56.788L304.844 47.5408C304.844 47.5408 301.259 43.729 297.162 43.0292C291.52 42.4989 285.78 42.5777 280.039 43.2642C271.273 44.4749 264.613 46.2007 262.816 44.5542Z" fill="url(#paint20_linear_416_1818)"/>
<path d="M419.284 115.107L405.996 113.583C405.547 113.496 405.067 113.58 404.645 113.819C404.223 114.058 403.89 114.435 403.709 114.878C401.359 118.852 399.26 122.95 397.423 127.146C393.595 135.541 386.903 152.58 379.343 153.754L392.316 150.284C392.316 150.284 397.735 148.749 400.73 145.482C404.46 140.807 407.711 135.795 410.427 130.53C414.439 122.489 416.794 115.976 419.284 115.107Z" fill="url(#paint21_linear_416_1818)"/>
<path d="M360.359 9.45513C360.359 9.45513 361.124 16.0696 371.858 22.5953C382.592 29.121 388.333 25.1341 388.333 25.1341L378.091 39.6656C378.091 39.6656 366.792 38.0595 363.335 27.7557C363.326 27.764 360.81 12.5019 360.359 9.45513Z" fill="url(#paint22_linear_416_1818)"/>
<path d="M650.386 457.146C650.932 457.607 651.661 457.815 652.414 457.725C653.166 457.635 653.879 457.253 654.398 456.665C654.655 456.374 654.856 456.042 654.99 455.686C655.124 455.33 655.189 454.958 655.18 454.59C655.171 454.223 655.089 453.868 654.938 453.546C654.787 453.224 654.571 452.941 654.302 452.713C653.758 452.25 653.03 452.039 652.279 452.126C651.527 452.213 650.812 452.592 650.292 453.178C650.034 453.469 649.831 453.803 649.696 454.161C649.561 454.518 649.497 454.892 649.505 455.26C649.514 455.629 649.597 455.985 649.748 456.309C649.899 456.632 650.116 456.917 650.386 457.146Z" fill="#B4904F"/>
<path d="M649.056 402.342C649.399 402.633 649.83 402.807 650.296 402.843C650.762 402.879 651.242 402.774 651.674 402.544C652.106 402.313 652.472 401.966 652.724 401.546C652.977 401.127 653.105 400.653 653.093 400.187C653.08 399.72 652.928 399.281 652.655 398.924C652.382 398.568 652 398.311 651.558 398.185C651.117 398.06 650.635 398.071 650.174 398.219C649.713 398.366 649.293 398.643 648.968 399.014C648.534 399.509 648.299 400.138 648.316 400.762C648.332 401.386 648.599 401.954 649.056 402.342Z" fill="#B4904F"/>
<path d="M659.198 27.6485C659.35 27.7905 659.545 27.8798 659.76 27.9049C659.974 27.93 660.197 27.8897 660.4 27.7893C660.603 27.6889 660.777 27.533 660.899 27.3415C661.021 27.1501 661.086 26.932 661.085 26.7153C661.085 26.4986 661.019 26.2933 660.895 26.1258C660.772 25.9582 660.598 25.8361 660.394 25.7753C660.191 25.7144 659.967 25.7176 659.754 25.7843C659.54 25.851 659.345 25.9783 659.194 26.1497C659.012 26.3753 658.912 26.6512 658.913 26.9267C658.913 27.2021 659.015 27.4585 659.198 27.6485Z" fill="#B4904F"/>
<path d="M656.46 121.656C656.528 121.718 656.611 121.765 656.702 121.793C656.792 121.821 656.89 121.83 656.988 121.819C657.086 121.809 657.182 121.778 657.272 121.731C657.361 121.683 657.442 121.618 657.509 121.541C657.645 121.386 657.72 121.189 657.715 120.993C657.711 120.797 657.628 120.619 657.485 120.496C657.414 120.436 657.331 120.392 657.239 120.366C657.148 120.34 657.051 120.333 656.953 120.345C656.855 120.357 656.759 120.389 656.67 120.437C656.581 120.485 656.501 120.55 656.435 120.627C656.367 120.702 656.313 120.789 656.278 120.882C656.242 120.975 656.225 121.072 656.227 121.168C656.23 121.263 656.251 121.356 656.291 121.44C656.331 121.524 656.388 121.597 656.46 121.656Z" fill="#B4904F"/>
<path d="M659.746 249.475C660.178 249.84 660.722 250.058 661.309 250.102C661.896 250.146 662.499 250.014 663.043 249.723C663.587 249.432 664.047 248.995 664.365 248.467C664.683 247.938 664.845 247.343 664.83 246.755C664.814 246.168 664.623 245.614 664.28 245.165C663.937 244.716 663.458 244.391 662.902 244.231C662.346 244.072 661.74 244.085 661.159 244.269C660.578 244.452 660.048 244.799 659.638 245.264C659.088 245.891 658.791 246.686 658.811 247.475C658.831 248.264 659.168 248.983 659.746 249.475Z" fill="#B4904F"/>
<path d="M660.167 312.543C660.288 312.646 660.43 312.722 660.585 312.767C660.741 312.813 660.907 312.826 661.073 312.806C661.24 312.787 661.405 312.735 661.557 312.654C661.71 312.573 661.848 312.465 661.963 312.335C662.079 312.204 662.169 312.055 662.229 311.896C662.29 311.736 662.319 311.569 662.315 311.405C662.312 311.24 662.275 311.081 662.208 310.936C662.141 310.791 662.044 310.664 661.924 310.561C661.68 310.353 661.354 310.259 661.017 310.298C660.681 310.337 660.361 310.507 660.128 310.77C659.895 311.033 659.768 311.367 659.775 311.7C659.783 312.033 659.924 312.336 660.167 312.543Z" fill="#B4904F"/>
<path d="M659.366 357.54C659.769 357.884 660.276 358.09 660.825 358.134C661.374 358.178 661.939 358.057 662.449 357.787C662.959 357.516 663.391 357.109 663.69 356.615C663.99 356.121 664.143 355.564 664.13 355.014C664.117 354.464 663.94 353.945 663.62 353.524C663.3 353.103 662.851 352.798 662.332 352.648C661.812 352.498 661.244 352.509 660.7 352.681C660.157 352.853 659.661 353.177 659.276 353.612C658.764 354.196 658.487 354.936 658.503 355.672C658.52 356.407 658.83 357.079 659.366 357.54Z" fill="#B4904F"/>
<path d="M651.074 392.164C651.139 392.22 651.215 392.26 651.299 392.284C651.382 392.308 651.471 392.315 651.561 392.304C651.651 392.292 651.739 392.263 651.82 392.218C651.901 392.174 651.974 392.114 652.035 392.042C652.127 391.936 652.188 391.809 652.21 391.675C652.233 391.541 652.215 391.408 652.159 391.291C652.104 391.175 652.013 391.081 651.899 391.021C651.784 390.961 651.651 390.939 651.516 390.956C651.382 390.973 651.251 391.029 651.142 391.117C651.032 391.205 650.948 391.321 650.901 391.451C650.854 391.58 650.845 391.717 650.876 391.844C650.907 391.971 650.976 392.082 651.074 392.164Z" fill="#B4904F"/>
<path d="M554.773 362.887C554.875 362.978 554.997 363.046 555.131 363.087C555.265 363.128 555.408 363.141 555.552 363.125C555.696 363.11 555.839 363.066 555.971 362.996C556.103 362.927 556.223 362.833 556.322 362.72C556.422 362.608 556.5 362.478 556.551 362.34C556.603 362.202 556.627 362.057 556.622 361.915C556.617 361.773 556.584 361.635 556.524 361.511C556.463 361.387 556.377 361.279 556.271 361.192C556.062 361.022 555.786 360.947 555.502 360.983C555.218 361.019 554.949 361.164 554.753 361.386C554.557 361.607 554.449 361.889 554.453 362.17C554.457 362.45 554.572 362.708 554.773 362.887Z" fill="#B4904F"/>
<path d="M565.297 470.449C565.471 470.595 565.69 470.682 565.926 470.698C566.162 470.715 566.404 470.661 566.622 470.544C566.84 470.426 567.025 470.25 567.152 470.038C567.279 469.826 567.344 469.586 567.338 469.35C567.331 469.114 567.254 468.892 567.117 468.712C566.979 468.531 566.786 468.401 566.563 468.337C566.34 468.272 566.097 468.277 565.863 468.35C565.63 468.424 565.417 468.562 565.251 468.749C565.14 468.874 565.054 469.017 564.996 469.17C564.938 469.324 564.91 469.484 564.915 469.642C564.919 469.801 564.955 469.953 565.02 470.092C565.086 470.23 565.18 470.352 565.297 470.449Z" fill="#B4904F"/>
<path d="M513.602 396.289C513.81 396.466 514.072 396.572 514.355 396.595C514.638 396.618 514.93 396.555 515.193 396.416C515.456 396.277 515.679 396.066 515.834 395.812C515.988 395.557 516.068 395.27 516.061 394.986C516.055 394.702 515.964 394.434 515.8 394.217C515.635 393.999 515.404 393.841 515.136 393.763C514.868 393.685 514.575 393.69 514.295 393.778C514.014 393.865 513.758 394.032 513.559 394.256C513.426 394.405 513.322 394.576 513.253 394.759C513.183 394.941 513.149 395.133 513.153 395.322C513.158 395.51 513.199 395.693 513.276 395.859C513.353 396.025 513.464 396.171 513.602 396.289Z" fill="#B4904F"/>
<path d="M495.467 393.162C495.91 393.538 496.469 393.763 497.071 393.81C497.674 393.857 498.295 393.722 498.854 393.424C499.413 393.126 499.887 392.677 500.214 392.134C500.541 391.592 500.708 390.98 500.693 390.376C500.678 389.772 500.482 389.203 500.129 388.741C499.777 388.28 499.284 387.946 498.713 387.782C498.142 387.618 497.518 387.632 496.921 387.821C496.324 388.01 495.781 388.367 495.359 388.846C495.078 389.163 494.857 389.526 494.711 389.915C494.564 390.304 494.493 390.711 494.503 391.112C494.513 391.513 494.604 391.901 494.769 392.253C494.935 392.605 495.172 392.914 495.467 393.162Z" fill="#B4904F"/>
<path d="M425.819 406.535C426.153 406.805 426.57 406.964 427.017 406.991C427.464 407.018 427.921 406.913 428.333 406.688C428.745 406.463 429.092 406.129 429.332 405.727C429.572 405.324 429.694 404.872 429.683 404.425C429.671 403.978 429.527 403.557 429.269 403.215C429.01 402.872 428.648 402.622 428.227 402.496C427.807 402.371 427.346 402.375 426.903 402.508C426.46 402.642 426.054 402.898 425.736 403.247C425.517 403.486 425.344 403.763 425.23 404.06C425.115 404.357 425.06 404.668 425.067 404.975C425.075 405.282 425.146 405.579 425.275 405.847C425.404 406.115 425.589 406.349 425.819 406.535Z" fill="#B4904F"/>
<path d="M483.147 349.386C483.514 349.7 483.978 349.889 484.479 349.929C484.98 349.97 485.496 349.86 485.963 349.614C486.429 349.367 486.824 348.995 487.097 348.545C487.371 348.094 487.512 347.586 487.501 347.083C487.491 346.58 487.33 346.106 487.038 345.721C486.747 345.335 486.338 345.056 485.864 344.917C485.39 344.779 484.872 344.788 484.375 344.943C483.877 345.099 483.424 345.393 483.071 345.79C482.601 346.323 482.345 347 482.359 347.674C482.374 348.348 482.657 348.963 483.147 349.386Z" fill="#B4904F"/>
<path d="M506.454 285.792C506.735 286.033 507.091 286.179 507.476 286.21C507.86 286.241 508.256 286.156 508.614 285.967C508.971 285.778 509.274 285.492 509.484 285.147C509.694 284.801 509.802 284.411 509.793 284.025C509.785 283.64 509.661 283.276 509.437 282.981C509.213 282.685 508.899 282.471 508.535 282.365C508.171 282.26 507.773 282.267 507.392 282.387C507.011 282.507 506.663 282.734 506.393 283.039C506.035 283.448 505.84 283.966 505.852 284.482C505.863 284.997 506.079 285.468 506.454 285.792Z" fill="#B4904F"/>
<path d="M508.582 280.619C508.789 280.795 509.067 280.875 509.353 280.841C509.639 280.807 509.91 280.663 510.108 280.439C510.305 280.215 510.413 279.931 510.406 279.649C510.399 279.366 510.279 279.109 510.072 278.933C509.969 278.846 509.848 278.781 509.716 278.743C509.584 278.705 509.443 278.694 509.301 278.711C509.16 278.727 509.02 278.771 508.891 278.84C508.761 278.909 508.644 279.002 508.546 279.113C508.448 279.223 508.372 279.35 508.321 279.486C508.27 279.621 508.245 279.763 508.248 279.903C508.252 280.043 508.283 280.178 508.34 280.301C508.398 280.424 508.48 280.532 508.582 280.619Z" fill="#B4904F"/>
<path d="M448.95 241.019C449.168 241.186 449.449 241.259 449.738 241.224C450.026 241.189 450.302 241.049 450.509 240.83C450.706 240.611 450.816 240.331 450.815 240.051C450.814 239.771 450.703 239.513 450.505 239.332C450.295 239.168 450.025 239.092 449.745 239.118C449.464 239.143 449.194 239.269 448.983 239.471C448.783 239.697 448.668 239.981 448.662 240.268C448.656 240.554 448.759 240.822 448.95 241.019Z" fill="#B4904F"/>
<path d="M503.06 218.456C503.131 218.517 503.22 218.554 503.317 218.561C503.414 218.569 503.514 218.547 503.604 218.499C503.694 218.452 503.77 218.379 503.823 218.292C503.875 218.205 503.902 218.106 503.899 218.009C503.896 217.912 503.864 217.821 503.807 217.747C503.75 217.673 503.671 217.619 503.579 217.593C503.487 217.568 503.386 217.57 503.291 217.602C503.195 217.633 503.108 217.691 503.04 217.768C502.951 217.871 502.903 218.001 502.907 218.13C502.91 218.259 502.965 218.376 503.06 218.456Z" fill="#B4904F"/>
<path d="M490.218 272.238C490.358 272.356 490.544 272.411 490.738 272.389C490.931 272.368 491.115 272.272 491.25 272.124C491.382 271.97 491.453 271.776 491.448 271.584C491.444 271.393 491.364 271.217 491.226 271.095C491.085 270.976 490.897 270.922 490.703 270.945C490.51 270.968 490.326 271.066 490.192 271.218C490.058 271.37 489.986 271.562 489.991 271.754C489.996 271.945 490.077 272.119 490.218 272.238Z" fill="#B4904F"/>
<path d="M497.427 291.366C497.482 291.413 497.547 291.448 497.618 291.468C497.689 291.489 497.765 291.495 497.841 291.486C497.917 291.477 497.992 291.454 498.062 291.417C498.132 291.38 498.195 291.33 498.247 291.271C498.3 291.211 498.341 291.143 498.369 291.071C498.397 290.998 498.41 290.921 498.408 290.846C498.407 290.771 498.39 290.698 498.359 290.632C498.329 290.566 498.285 290.508 498.23 290.461C498.118 290.366 497.97 290.323 497.816 290.341C497.662 290.359 497.516 290.436 497.41 290.556C497.303 290.676 497.245 290.829 497.249 290.981C497.252 291.132 497.316 291.271 497.427 291.366Z" fill="#B4904F"/>
<path d="M388.286 332.084C388.497 332.264 388.764 332.373 389.052 332.396C389.34 332.419 389.636 332.355 389.904 332.213C390.172 332.071 390.398 331.857 390.555 331.597C390.712 331.338 390.792 331.046 390.785 330.757C390.778 330.468 390.684 330.196 390.516 329.975C390.347 329.755 390.112 329.595 389.839 329.517C389.566 329.438 389.268 329.445 388.982 329.536C388.697 329.627 388.437 329.797 388.236 330.027C387.967 330.332 387.822 330.72 387.831 331.106C387.84 331.491 388.004 331.843 388.286 332.084Z" fill="#B4904F"/>
<path d="M409.015 339.127C409.421 339.47 409.931 339.676 410.482 339.718C411.032 339.761 411.599 339.638 412.11 339.365C412.621 339.093 413.054 338.683 413.353 338.187C413.652 337.692 413.805 337.133 413.791 336.581C413.778 336.029 413.599 335.509 413.277 335.087C412.956 334.665 412.506 334.359 411.985 334.209C411.463 334.058 410.894 334.07 410.348 334.242C409.803 334.414 409.305 334.739 408.919 335.175C408.662 335.465 408.461 335.798 408.327 336.154C408.193 336.51 408.128 336.882 408.137 337.249C408.146 337.616 408.228 337.971 408.379 338.294C408.53 338.616 408.746 338.899 409.015 339.127Z" fill="#B4904F"/>
<path d="M456.419 348.48C456.705 348.722 457.065 348.867 457.454 348.897C457.843 348.927 458.243 348.841 458.603 348.649C458.964 348.456 459.27 348.167 459.481 347.818C459.692 347.468 459.8 347.073 459.791 346.684C459.782 346.294 459.657 345.927 459.43 345.629C459.203 345.331 458.886 345.114 458.519 345.008C458.151 344.901 457.749 344.908 457.364 345.029C456.979 345.15 456.627 345.379 456.354 345.686C456.172 345.891 456.029 346.126 455.934 346.378C455.839 346.629 455.793 346.892 455.799 347.152C455.805 347.412 455.863 347.663 455.969 347.891C456.076 348.119 456.229 348.319 456.419 348.48Z" fill="#B4904F"/>
<path d="M412.258 376.909C412.428 377.038 412.637 377.111 412.859 377.119C413.081 377.127 413.307 377.07 413.509 376.955C413.711 376.841 413.881 376.673 413.997 376.472C414.114 376.271 414.172 376.047 414.165 375.826C414.157 375.605 414.085 375.397 413.956 375.227C413.828 375.058 413.649 374.934 413.441 374.871C413.232 374.808 413.005 374.809 412.785 374.873C412.565 374.938 412.363 375.063 412.203 375.233C412.089 375.354 411.999 375.496 411.94 375.648C411.88 375.801 411.852 375.961 411.857 376.118C411.863 376.276 411.901 376.428 411.97 376.564C412.039 376.7 412.137 376.817 412.258 376.909Z" fill="#B4904F"/>
<path d="M488.455 391.912C488.87 392.263 489.394 392.473 489.958 392.515C490.522 392.558 491.103 392.431 491.626 392.151C492.149 391.871 492.591 391.45 492.897 390.942C493.203 390.434 493.358 389.861 493.344 389.296C493.329 388.731 493.145 388.199 492.815 387.767C492.485 387.335 492.024 387.022 491.489 386.869C490.955 386.716 490.372 386.728 489.813 386.905C489.254 387.082 488.745 387.416 488.35 387.863C488.087 388.161 487.881 388.502 487.744 388.867C487.607 389.232 487.542 389.614 487.551 389.99C487.561 390.366 487.646 390.729 487.801 391.059C487.956 391.389 488.178 391.679 488.455 391.912Z" fill="#B4904F"/>
<path d="M480.864 436.757C481.088 436.948 481.371 437.063 481.677 437.088C481.982 437.112 482.297 437.045 482.581 436.894C482.865 436.744 483.106 436.517 483.272 436.242C483.439 435.967 483.525 435.657 483.518 435.351C483.512 435.044 483.413 434.755 483.236 434.521C483.058 434.286 482.809 434.115 482.52 434.031C482.231 433.947 481.914 433.952 481.611 434.047C481.308 434.141 481.032 434.321 480.817 434.563C480.674 434.723 480.562 434.908 480.487 435.105C480.411 435.303 480.375 435.509 480.379 435.713C480.384 435.917 480.429 436.114 480.512 436.294C480.595 436.473 480.715 436.63 480.864 436.757Z" fill="#B4904F"/>
<path d="M515.203 470.841C515.445 471.055 515.754 471.186 516.089 471.217C516.424 471.249 516.77 471.179 517.084 471.017C517.398 470.855 517.665 470.608 517.851 470.308C518.037 470.007 518.134 469.667 518.129 469.33C518.125 468.993 518.019 468.675 517.826 468.415C517.632 468.155 517.359 467.967 517.042 467.872C516.725 467.778 516.378 467.783 516.045 467.886C515.711 467.989 515.407 468.186 515.171 468.452C515.014 468.626 514.89 468.825 514.807 469.04C514.724 469.254 514.682 469.478 514.685 469.7C514.688 469.922 514.735 470.137 514.824 470.333C514.913 470.529 515.042 470.702 515.203 470.841Z" fill="#B4904F"/>
<path d="M550.144 478.81C550.34 478.974 550.586 479.072 550.852 479.091C551.117 479.111 551.39 479.05 551.635 478.918C551.881 478.786 552.089 478.588 552.232 478.349C552.375 478.11 552.447 477.84 552.44 477.575C552.432 477.309 552.345 477.059 552.19 476.856C552.034 476.654 551.817 476.507 551.565 476.436C551.314 476.364 551.04 476.371 550.777 476.455C550.514 476.539 550.275 476.696 550.09 476.907C549.967 477.047 549.871 477.208 549.806 477.379C549.742 477.551 549.712 477.73 549.717 477.907C549.722 478.084 549.762 478.255 549.836 478.41C549.909 478.564 550.014 478.7 550.144 478.81Z" fill="#B4904F"/>
<path d="M567.133 455.648C567.301 455.791 567.525 455.857 567.757 455.83C567.989 455.803 568.21 455.687 568.371 455.506C568.53 455.322 568.616 455.09 568.61 454.859C568.604 454.629 568.506 454.419 568.338 454.275C568.255 454.198 568.157 454.141 568.047 454.105C567.938 454.07 567.821 454.058 567.702 454.07C567.584 454.081 567.466 454.117 567.358 454.174C567.249 454.231 567.151 454.308 567.069 454.401C566.988 454.494 566.925 454.6 566.884 454.714C566.843 454.828 566.824 454.947 566.83 455.064C566.836 455.18 566.866 455.292 566.918 455.393C566.97 455.493 567.043 455.58 567.133 455.648Z" fill="#B4904F"/>
<path d="M617.797 452.751C617.905 452.84 618.048 452.879 618.195 452.862C618.342 452.844 618.482 452.771 618.585 452.657C618.663 452.57 618.716 452.464 618.737 452.352C618.757 452.241 618.744 452.129 618.699 452.031C618.654 451.933 618.579 451.854 618.484 451.803C618.389 451.752 618.278 451.732 618.166 451.745C618.053 451.759 617.944 451.805 617.853 451.878C617.761 451.952 617.691 452.049 617.651 452.157C617.611 452.265 617.604 452.379 617.63 452.485C617.656 452.591 617.714 452.684 617.797 452.751Z" fill="#B4904F"/>
<path d="M628.954 406.777C629.077 406.879 629.231 406.939 629.397 406.951C629.563 406.963 629.733 406.925 629.886 406.842C630.04 406.76 630.169 406.636 630.259 406.487C630.349 406.338 630.395 406.17 630.391 406.004C630.387 405.838 630.334 405.682 630.238 405.555C630.142 405.427 630.007 405.334 629.851 405.288C629.695 405.242 629.524 405.244 629.359 405.294C629.195 405.344 629.045 405.44 628.927 405.57C628.769 405.749 628.683 405.977 628.688 406.203C628.693 406.429 628.789 406.635 628.954 406.777Z" fill="#B4904F"/>
<path d="M576.125 348.109C576.482 348.412 576.932 348.594 577.418 348.631C577.904 348.669 578.403 348.561 578.854 348.321C579.305 348.081 579.686 347.719 579.95 347.282C580.214 346.845 580.349 346.352 580.337 345.866C580.325 345.379 580.168 344.921 579.884 344.548C579.601 344.176 579.204 343.907 578.744 343.774C578.284 343.641 577.782 343.652 577.301 343.803C576.82 343.955 576.382 344.242 576.041 344.627C575.814 344.882 575.635 345.175 575.516 345.489C575.397 345.803 575.34 346.131 575.347 346.455C575.355 346.779 575.428 347.092 575.562 347.376C575.695 347.66 575.887 347.909 576.125 348.109Z" fill="#B4904F"/>
<path d="M614.153 332.286C614.543 332.617 615.035 332.815 615.565 332.856C616.096 332.897 616.642 332.779 617.134 332.517C617.627 332.255 618.043 331.86 618.332 331.382C618.62 330.905 618.767 330.367 618.755 329.835C618.742 329.303 618.57 328.802 618.26 328.396C617.951 327.989 617.517 327.694 617.015 327.549C616.513 327.404 615.964 327.415 615.439 327.581C614.913 327.746 614.434 328.059 614.062 328.48C613.815 328.759 613.621 329.08 613.491 329.422C613.362 329.765 613.3 330.124 613.308 330.477C613.317 330.831 613.396 331.172 613.541 331.483C613.686 331.793 613.894 332.066 614.153 332.286Z" fill="#B4904F"/>
<path d="M648.552 324.7C648.978 325.062 649.516 325.279 650.096 325.324C650.677 325.369 651.274 325.24 651.813 324.952C652.351 324.665 652.807 324.233 653.122 323.711C653.437 323.188 653.597 322.599 653.583 322.018C653.568 321.436 653.379 320.889 653.04 320.444C652.7 320 652.226 319.678 651.676 319.521C651.126 319.363 650.526 319.376 649.951 319.559C649.376 319.741 648.853 320.085 648.447 320.546C648.177 320.851 647.965 321.201 647.823 321.575C647.682 321.95 647.614 322.341 647.624 322.727C647.634 323.113 647.721 323.487 647.88 323.825C648.039 324.164 648.267 324.461 648.552 324.7Z" fill="#B4904F"/>
<path d="M638.876 308.013C639.077 308.183 639.332 308.286 639.606 308.307C639.88 308.327 640.162 308.266 640.417 308.13C640.671 307.995 640.886 307.79 641.035 307.544C641.184 307.297 641.26 307.018 641.253 306.744C641.246 306.469 641.157 306.21 640.997 306C640.837 305.79 640.613 305.638 640.353 305.563C640.094 305.488 639.81 305.494 639.538 305.58C639.267 305.665 639.019 305.827 638.827 306.045C638.699 306.189 638.599 306.355 638.532 306.532C638.465 306.709 638.433 306.895 638.438 307.078C638.442 307.26 638.483 307.437 638.558 307.598C638.634 307.758 638.741 307.899 638.876 308.013Z" fill="#B4904F"/>
<path d="M597.273 291.326C597.561 291.57 597.923 291.716 598.315 291.746C598.706 291.776 599.109 291.688 599.472 291.494C599.835 291.301 600.142 291.009 600.354 290.656C600.567 290.304 600.675 289.907 600.664 289.515C600.654 289.122 600.526 288.753 600.297 288.454C600.068 288.154 599.748 287.938 599.377 287.832C599.006 287.726 598.602 287.735 598.214 287.858C597.827 287.981 597.474 288.213 597.2 288.524C596.834 288.941 596.635 289.47 596.649 289.996C596.663 290.521 596.887 291 597.273 291.326Z" fill="#B4904F"/>
<path d="M590.857 289.831C591.135 290.065 591.486 290.204 591.863 290.232C592.241 290.26 592.629 290.175 592.979 289.987C593.329 289.8 593.625 289.518 593.829 289.178C594.033 288.838 594.137 288.455 594.127 288.077C594.117 287.699 593.994 287.343 593.773 287.054C593.552 286.765 593.243 286.556 592.886 286.453C592.529 286.351 592.138 286.359 591.764 286.477C591.391 286.595 591.05 286.818 590.786 287.118C590.609 287.317 590.471 287.546 590.379 287.79C590.287 288.035 590.243 288.291 590.25 288.543C590.257 288.795 590.314 289.038 590.418 289.259C590.522 289.48 590.671 289.675 590.857 289.831Z" fill="#B4904F"/>
<path d="M598.559 275.975C598.642 276.046 598.741 276.099 598.849 276.13C598.958 276.162 599.073 276.17 599.189 276.156C599.305 276.142 599.419 276.106 599.525 276.049C599.631 275.992 599.726 275.915 599.805 275.824C599.968 275.641 600.057 275.407 600.052 275.175C600.048 274.943 599.95 274.73 599.781 274.585C599.607 274.444 599.378 274.381 599.143 274.409C598.907 274.437 598.683 274.555 598.518 274.736C598.357 274.921 598.27 275.156 598.278 275.388C598.286 275.621 598.387 275.832 598.559 275.975Z" fill="#B4904F"/>
<path d="M554.469 252.355C554.829 252.661 555.282 252.845 555.773 252.883C556.263 252.921 556.767 252.813 557.222 252.571C557.677 252.329 558.063 251.965 558.33 251.524C558.596 251.083 558.733 250.585 558.721 250.094C558.71 249.603 558.551 249.14 558.265 248.764C557.98 248.388 557.58 248.116 557.116 247.981C556.652 247.847 556.145 247.857 555.659 248.01C555.174 248.163 554.731 248.452 554.387 248.84C554.159 249.098 553.979 249.394 553.86 249.71C553.74 250.027 553.683 250.357 553.69 250.684C553.698 251.01 553.77 251.326 553.904 251.613C554.038 251.899 554.229 252.152 554.469 252.355Z" fill="#B4904F"/>
<path d="M543.867 236.898C543.948 236.966 544.056 236.996 544.167 236.982C544.277 236.968 544.382 236.911 544.458 236.823C544.534 236.736 544.574 236.626 544.571 236.516C544.567 236.407 544.52 236.308 544.439 236.24C544.357 236.175 544.25 236.147 544.14 236.161C544.029 236.175 543.925 236.23 543.848 236.315C543.81 236.358 543.781 236.408 543.761 236.46C543.741 236.513 543.732 236.568 543.734 236.622C543.736 236.677 543.749 236.729 543.771 236.776C543.794 236.824 543.827 236.865 543.867 236.898Z" fill="#B4904F"/>
<path d="M506.601 307.203C506.932 307.479 507.372 307.603 507.825 307.549C508.278 307.494 508.708 307.265 509.022 306.911C509.253 306.646 509.407 306.326 509.464 305.991C509.52 305.657 509.477 305.322 509.339 305.03C509.201 304.738 508.975 304.502 508.69 304.351C508.404 304.2 508.071 304.141 507.734 304.182C507.397 304.223 507.069 304.361 506.794 304.58C506.518 304.799 506.306 305.088 506.185 305.411C506.064 305.735 506.039 306.077 506.113 306.396C506.187 306.715 506.357 306.996 506.601 307.203Z" fill="#B4904F"/>
<path d="M470.408 253.164C470.642 253.361 470.936 253.479 471.253 253.503C471.57 253.527 471.896 253.456 472.189 253.298C472.483 253.141 472.732 252.905 472.904 252.62C473.076 252.335 473.163 252.013 473.155 251.696C473.147 251.378 473.044 251.079 472.859 250.836C472.674 250.593 472.415 250.418 472.115 250.331C471.815 250.245 471.487 250.252 471.174 250.351C470.86 250.45 470.574 250.637 470.351 250.888C470.203 251.055 470.088 251.247 470.01 251.452C469.933 251.657 469.896 251.871 469.901 252.083C469.907 252.294 469.954 252.498 470.041 252.684C470.128 252.869 470.253 253.032 470.408 253.164Z" fill="#B4904F"/>
<path d="M434.305 322.331C434.638 322.605 435.054 322.768 435.503 322.799C435.951 322.829 436.412 322.726 436.826 322.501C437.24 322.277 437.59 321.942 437.832 321.538C438.073 321.134 438.196 320.68 438.184 320.231C438.172 319.783 438.026 319.36 437.765 319.017C437.504 318.674 437.139 318.425 436.715 318.301C436.292 318.178 435.829 318.185 435.385 318.323C434.941 318.461 434.535 318.722 434.219 319.075C434.005 319.314 433.837 319.588 433.726 319.882C433.614 320.175 433.561 320.483 433.569 320.786C433.577 321.089 433.646 321.382 433.772 321.647C433.899 321.913 434.08 322.145 434.305 322.331Z" fill="#B4904F"/>
<path d="M376.556 272.709C376.608 272.753 376.669 272.785 376.736 272.805C376.803 272.824 376.875 272.829 376.947 272.82C377.018 272.812 377.089 272.789 377.154 272.754C377.22 272.718 377.279 272.671 377.328 272.614C377.41 272.501 377.449 272.365 377.439 272.234C377.428 272.102 377.368 271.984 377.27 271.901C377.173 271.819 377.044 271.779 376.909 271.789C376.775 271.799 376.644 271.858 376.542 271.955C376.444 272.067 376.39 272.209 376.393 272.35C376.395 272.491 376.454 272.62 376.556 272.709Z" fill="#B4904F"/>
<path d="M372.288 305.457C372.59 305.726 372.976 305.892 373.395 305.932C373.814 305.973 374.248 305.886 374.64 305.684C375.033 305.482 375.368 305.173 375.601 304.798C375.834 304.422 375.955 303.996 375.948 303.574C375.942 303.152 375.809 302.754 375.566 302.43C375.322 302.106 374.98 301.871 374.583 301.755C374.185 301.639 373.75 301.647 373.334 301.778C372.917 301.91 372.538 302.158 372.244 302.493C371.858 302.931 371.647 303.487 371.655 304.041C371.663 304.595 371.89 305.103 372.288 305.457Z" fill="#B4904F"/>
<path d="M301.622 296.599C301.87 296.771 302.183 296.838 302.499 296.787C302.815 296.736 303.112 296.57 303.331 296.323C303.55 296.075 303.675 295.764 303.682 295.45C303.69 295.135 303.578 294.841 303.37 294.624C303.122 294.452 302.809 294.385 302.493 294.436C302.176 294.487 301.88 294.653 301.661 294.9C301.442 295.148 301.316 295.459 301.309 295.773C301.302 296.088 301.413 296.382 301.622 296.599Z" fill="#B4904F"/>
<path d="M365.333 248.293C365.543 248.472 365.808 248.58 366.093 248.602C366.379 248.625 366.674 248.561 366.939 248.42C367.205 248.279 367.429 248.066 367.585 247.809C367.74 247.552 367.819 247.261 367.812 246.975C367.805 246.688 367.712 246.419 367.544 246.2C367.377 245.981 367.143 245.823 366.872 245.745C366.601 245.668 366.306 245.675 366.022 245.765C365.739 245.855 365.482 246.025 365.282 246.252C365.016 246.556 364.872 246.941 364.881 247.324C364.891 247.706 365.053 248.055 365.333 248.293Z" fill="#B4904F"/>
<path d="M300.572 214.931C300.99 215.287 301.517 215.501 302.087 215.546C302.656 215.59 303.242 215.464 303.771 215.183C304.3 214.901 304.747 214.477 305.057 213.964C305.366 213.452 305.524 212.873 305.509 212.303C305.495 211.732 305.309 211.195 304.975 210.759C304.642 210.323 304.175 210.008 303.636 209.854C303.096 209.7 302.507 209.714 301.943 209.894C301.379 210.074 300.866 210.412 300.468 210.865C299.938 211.47 299.651 212.238 299.671 213C299.69 213.761 300.014 214.456 300.572 214.931Z" fill="#B4904F"/>
<path d="M367.96 197.432C368.28 197.706 368.684 197.871 369.12 197.906C369.557 197.942 370.007 197.846 370.412 197.631C370.818 197.416 371.162 197.092 371.4 196.699C371.638 196.306 371.76 195.863 371.75 195.425C371.74 194.987 371.598 194.575 371.343 194.24C371.088 193.905 370.731 193.663 370.318 193.544C369.904 193.425 369.452 193.435 369.02 193.572C368.587 193.709 368.193 193.967 367.888 194.314C367.483 194.778 367.264 195.366 367.277 195.949C367.291 196.532 367.536 197.065 367.96 197.432Z" fill="#B4904F"/>
<path d="M333.883 173.893C334.115 174.088 334.407 174.205 334.721 174.229C335.036 174.252 335.36 174.182 335.652 174.026C335.943 173.869 336.19 173.635 336.36 173.351C336.531 173.068 336.617 172.749 336.609 172.433C336.601 172.118 336.499 171.821 336.315 171.581C336.131 171.34 335.873 171.165 335.575 171.08C335.278 170.994 334.952 171.001 334.641 171.1C334.329 171.198 334.045 171.384 333.825 171.634C333.678 171.8 333.563 171.99 333.486 172.194C333.41 172.397 333.373 172.61 333.379 172.82C333.384 173.03 333.431 173.233 333.518 173.417C333.604 173.601 333.728 173.763 333.883 173.893Z" fill="#B4904F"/>
<path d="M370.56 129.419C370.602 129.456 370.653 129.483 370.709 129.499C370.764 129.515 370.823 129.52 370.883 129.513C370.942 129.506 371.001 129.487 371.055 129.458C371.109 129.429 371.159 129.39 371.199 129.343C371.24 129.297 371.272 129.245 371.293 129.188C371.315 129.131 371.324 129.072 371.322 129.014C371.32 128.956 371.306 128.9 371.28 128.849C371.255 128.799 371.219 128.755 371.175 128.72C371.09 128.647 370.976 128.614 370.858 128.626C370.74 128.639 370.627 128.697 370.544 128.787C370.503 128.834 370.47 128.887 370.449 128.944C370.427 129.001 370.417 129.06 370.418 129.119C370.42 129.178 370.433 129.235 370.457 129.286C370.481 129.338 370.516 129.383 370.56 129.419Z" fill="#B4904F"/>
<path d="M405.6 131.674C406.027 132.034 406.565 132.249 407.144 132.292C407.724 132.336 408.32 132.205 408.857 131.918C409.395 131.63 409.849 131.198 410.163 130.677C410.478 130.155 410.638 129.567 410.623 128.986C410.609 128.406 410.421 127.859 410.083 127.415C409.744 126.97 409.271 126.649 408.723 126.49C408.175 126.332 407.576 126.343 407.001 126.523C406.427 126.704 405.904 127.045 405.497 127.503C405.223 127.809 405.009 128.16 404.866 128.536C404.723 128.912 404.655 129.306 404.664 129.694C404.674 130.082 404.762 130.457 404.922 130.797C405.083 131.137 405.313 131.435 405.6 131.674Z" fill="#B4904F"/>
<path d="M319.736 89.094C320.222 89.5058 320.872 89.6923 321.543 89.6125C322.214 89.5327 322.85 89.1931 323.313 88.6684C323.775 88.1438 324.026 87.477 324.009 86.8148C323.992 86.1526 323.71 85.5492 323.224 85.1374C322.983 84.9335 322.7 84.7828 322.39 84.6938C322.08 84.6048 321.75 84.5794 321.418 84.6189C321.086 84.6584 320.758 84.7621 320.455 84.9241C320.151 85.0861 319.877 85.3032 319.648 85.563C319.419 85.8228 319.239 86.1202 319.12 86.4382C319.001 86.7563 318.943 87.0887 318.951 87.4166C318.96 87.7445 319.033 88.0614 319.168 88.3492C319.303 88.637 319.496 88.8901 319.736 89.094Z" fill="#B4904F"/>
<path d="M404.463 99.8764C404.884 100.232 405.413 100.445 405.984 100.488C406.555 100.532 407.142 100.404 407.672 100.122C408.202 99.8391 408.65 99.4139 408.96 98.9C409.27 98.3862 409.428 97.8066 409.414 97.2346C409.399 96.6626 409.214 96.1237 408.881 95.6861C408.547 95.2485 408.081 94.9318 407.54 94.776C407 94.6201 406.409 94.6322 405.844 94.8106C405.278 94.9891 404.763 95.3258 404.363 95.7784C403.827 96.3879 403.538 97.161 403.557 97.9289C403.575 98.6968 403.902 99.397 404.463 99.8764Z" fill="#B4904F"/>
<path d="M316.197 63.0579C316.378 63.2106 316.619 63.2795 316.869 63.2494C317.118 63.2194 317.354 63.0928 317.526 62.8975C317.697 62.7023 317.79 62.4544 317.784 62.2083C317.777 61.9623 317.672 61.7383 317.491 61.5856C317.402 61.5088 317.297 61.4519 317.182 61.418C317.067 61.3841 316.944 61.3739 316.821 61.3881C316.697 61.4022 316.576 61.4404 316.463 61.5005C316.35 61.5605 316.248 61.6412 316.162 61.7378C315.993 61.9354 315.901 62.1839 315.908 62.4305C315.914 62.6771 316.018 62.9023 316.197 63.0579Z" fill="#B4904F"/>
<path d="M401.506 74.9152C401.625 75.0142 401.781 75.0595 401.944 75.0416C402.106 75.0237 402.261 74.944 402.375 74.8194C402.472 74.6897 402.52 74.5331 402.509 74.3804C402.498 74.2278 402.43 74.0902 402.317 73.9946C402.204 73.8991 402.056 73.8525 401.9 73.864C401.745 73.8755 401.593 73.9443 401.476 74.0569C401.421 74.1204 401.377 74.1931 401.349 74.2708C401.32 74.3485 401.307 74.4297 401.31 74.5095C401.312 74.5894 401.331 74.6663 401.365 74.736C401.399 74.8056 401.447 74.8666 401.506 74.9152Z" fill="#B4904F"/>
<path d="M385.926 58.3856C386.017 58.4635 386.131 58.5104 386.255 58.5206C386.379 58.5309 386.506 58.5038 386.621 58.443C386.737 58.3821 386.834 58.2902 386.902 58.1788C386.969 58.0675 387.004 57.9417 387.001 57.8175C386.998 57.6934 386.958 57.5763 386.886 57.4813C386.814 57.3863 386.712 57.3176 386.595 57.2839C386.478 57.2502 386.35 57.253 386.227 57.292C386.104 57.331 385.992 57.4043 385.906 57.5028C385.791 57.634 385.728 57.8004 385.732 57.9657C385.736 58.1311 385.805 58.282 385.926 58.3856Z" fill="#B4904F"/>
<path d="M351.223 48.7355C351.483 48.956 351.79 49.1191 352.126 49.2152C352.461 49.3113 352.819 49.3386 353.179 49.2956C353.538 49.2526 353.893 49.1402 354.221 48.9646C354.55 48.7891 354.847 48.5539 355.094 48.2725C355.342 47.9911 355.536 47.669 355.665 47.3246C355.794 46.9802 355.856 46.6203 355.847 46.2653C355.838 45.9104 355.758 45.5674 355.612 45.2559C355.466 44.9444 355.257 44.6705 354.996 44.45C354.47 44.0045 353.766 43.8029 353.04 43.8898C352.314 43.9766 351.625 44.3446 351.124 44.9129C350.624 45.4812 350.353 46.2032 350.372 46.9201C350.39 47.637 350.696 48.2899 351.223 48.7355Z" fill="#B4904F"/>
<path d="M434.015 68.6419C434.385 68.9553 434.852 69.1432 435.356 69.1817C435.859 69.2202 436.378 69.1077 436.845 68.8583C437.312 68.6089 437.707 68.2338 437.981 67.7805C438.254 67.3271 438.393 66.8159 438.38 66.3113C438.368 65.8068 438.204 65.3316 437.91 64.9457C437.615 64.5599 437.204 64.2808 436.727 64.1436C436.25 64.0065 435.729 64.0175 435.23 64.1752C434.732 64.333 434.277 64.6303 433.924 65.0298C433.687 65.2942 433.501 65.5982 433.377 65.924C433.253 66.2498 433.193 66.5909 433.201 66.9272C433.21 67.2636 433.286 67.5884 433.426 67.8829C433.565 68.1773 433.766 68.4353 434.015 68.6419Z" fill="#B4904F"/>
<path d="M431.919 8.48683C432.136 8.67366 432.411 8.78637 432.709 8.81059C433.006 8.83482 433.313 8.76948 433.589 8.6229C433.866 8.47631 434.1 8.25507 434.262 7.98732C434.424 7.71958 434.506 7.4174 434.498 7.1192C434.491 6.821 434.394 6.54025 434.219 6.3126C434.045 6.08496 433.801 5.92072 433.519 5.84074C433.236 5.76077 432.929 5.76868 432.634 5.86347C432.34 5.95826 432.072 6.13566 431.865 6.3731C431.591 6.68815 431.442 7.08669 431.452 7.48236C431.462 7.87803 431.63 8.23894 431.919 8.48683Z" fill="#B4904F"/>
<path d="M353.543 18.5402C353.621 18.6046 353.723 18.6336 353.829 18.6212C353.935 18.6088 354.035 18.5559 354.109 18.4738C354.166 18.3901 354.193 18.2914 354.184 18.196C354.175 18.1006 354.132 18.0149 354.061 17.9548C353.99 17.8948 353.898 17.8644 353.8 17.8692C353.703 17.8741 353.607 17.9139 353.53 17.9814C353.458 18.0646 353.419 18.1699 353.421 18.2744C353.424 18.3789 353.467 18.4743 353.543 18.5402Z" fill="#B4904F"/>
<path d="M400.755 64.8173C401.018 65.0427 401.351 65.1785 401.711 65.2075C402.071 65.2365 402.442 65.1574 402.776 64.9802C403.111 64.803 403.394 64.5357 403.591 64.2121C403.787 63.8885 403.887 63.5232 403.879 63.1623C403.871 62.8015 403.755 62.4614 403.545 62.1851C403.335 61.9088 403.041 61.7087 402.701 61.6102C402.36 61.5116 401.988 61.519 401.631 61.6315C401.274 61.7439 400.949 61.9563 400.697 62.2418C400.362 62.625 400.18 63.1099 400.191 63.5918C400.202 64.0737 400.405 64.5139 400.755 64.8173Z" fill="#B4904F"/>
<path d="M456.629 63.2578C456.858 63.4537 457.148 63.5717 457.46 63.5968C457.773 63.622 458.095 63.5532 458.386 63.3991C458.677 63.2449 458.923 63.0125 459.093 62.7312C459.264 62.4499 459.351 62.1323 459.343 61.8188C459.336 61.5052 459.235 61.2098 459.052 60.9699C458.87 60.73 458.614 60.5564 458.318 60.4711C458.021 60.3858 457.698 60.3927 457.388 60.4909C457.078 60.589 456.796 60.774 456.577 61.0225C456.431 61.1862 456.316 61.3742 456.239 61.5756C456.163 61.7769 456.126 61.9876 456.131 62.1955C456.136 62.4034 456.182 62.6043 456.268 62.7866C456.353 62.9689 456.476 63.1291 456.629 63.2578Z" fill="#B4904F"/>
<path d="M434.425 127.602C434.848 127.96 435.381 128.175 435.957 128.22C436.532 128.264 437.124 128.136 437.658 127.852C438.192 127.567 438.644 127.139 438.957 126.621C439.27 126.104 439.43 125.52 439.416 124.943C439.402 124.366 439.216 123.823 438.88 123.382C438.545 122.94 438.075 122.621 437.53 122.463C436.985 122.306 436.391 122.318 435.82 122.497C435.25 122.676 434.73 123.016 434.327 123.471C433.79 124.086 433.499 124.865 433.518 125.638C433.536 126.411 433.862 127.116 434.425 127.602Z" fill="#B4904F"/>
<path d="M482.897 155.546C483.064 155.684 483.285 155.747 483.513 155.72C483.741 155.693 483.959 155.58 484.119 155.404C484.197 155.316 484.258 155.215 484.298 155.106C484.339 154.998 484.358 154.885 484.354 154.773C484.351 154.662 484.325 154.554 484.279 154.457C484.232 154.359 484.165 154.274 484.083 154.206C484.002 154.135 483.907 154.083 483.803 154.053C483.698 154.022 483.586 154.013 483.474 154.026C483.362 154.039 483.251 154.074 483.148 154.13C483.046 154.185 482.954 154.259 482.877 154.348C482.721 154.525 482.635 154.75 482.639 154.974C482.642 155.199 482.735 155.404 482.897 155.546Z" fill="#B4904F"/>
<path d="M525.11 187.949C525.276 188.089 525.485 188.172 525.71 188.189C525.935 188.206 526.166 188.155 526.374 188.043C526.583 187.931 526.759 187.763 526.881 187.561C527.002 187.358 527.064 187.13 527.058 186.904C527.051 186.679 526.978 186.467 526.846 186.295C526.714 186.124 526.53 185.999 526.317 185.939C526.104 185.878 525.871 185.883 525.649 185.954C525.426 186.025 525.223 186.159 525.066 186.337C524.962 186.456 524.88 186.592 524.826 186.738C524.772 186.883 524.746 187.035 524.75 187.184C524.754 187.334 524.788 187.479 524.85 187.61C524.912 187.741 525 187.856 525.11 187.949Z" fill="#B4904F"/>
<path d="M523.482 285.527C523.565 285.597 523.67 285.638 523.782 285.646C523.895 285.654 524.011 285.629 524.115 285.572C524.219 285.516 524.307 285.432 524.368 285.33C524.428 285.228 524.459 285.114 524.455 285.001C524.451 284.888 524.414 284.782 524.347 284.697C524.28 284.611 524.188 284.55 524.08 284.52C523.973 284.49 523.857 284.494 523.746 284.531C523.634 284.567 523.533 284.635 523.455 284.725C523.403 284.784 523.361 284.852 523.334 284.924C523.307 284.997 523.294 285.073 523.296 285.148C523.299 285.223 523.317 285.295 523.348 285.36C523.38 285.425 523.426 285.482 523.482 285.527Z" fill="#B4904F"/>
<path d="M548.859 215.537C548.975 215.635 549.12 215.693 549.277 215.705C549.434 215.717 549.596 215.682 549.742 215.605C549.888 215.527 550.011 215.41 550.097 215.269C550.182 215.128 550.226 214.968 550.223 214.811C550.219 214.653 550.169 214.505 550.077 214.384C549.986 214.263 549.858 214.176 549.71 214.132C549.561 214.088 549.399 214.091 549.243 214.139C549.087 214.187 548.945 214.279 548.834 214.403C548.687 214.572 548.607 214.785 548.612 214.997C548.616 215.209 548.705 215.403 548.859 215.537Z" fill="#B4904F"/>
<path d="M600.826 258.063C600.929 258.154 601.06 258.209 601.202 258.222C601.344 258.235 601.49 258.205 601.623 258.136C601.756 258.067 601.869 257.962 601.947 257.835C602.026 257.707 602.066 257.563 602.064 257.42C602.061 257.278 602.015 257.143 601.932 257.033C601.85 256.924 601.733 256.845 601.599 256.806C601.464 256.767 601.316 256.771 601.176 256.816C601.035 256.861 600.906 256.945 600.807 257.059C600.677 257.208 600.606 257.396 600.609 257.584C600.613 257.772 600.691 257.944 600.826 258.063Z" fill="#B4904F"/>
<path d="M616.449 200.539C616.664 200.721 616.935 200.829 617.227 200.851C617.52 200.873 617.82 200.807 618.091 200.662C618.362 200.517 618.591 200.299 618.749 200.036C618.908 199.773 618.988 199.476 618.98 199.184C618.973 198.891 618.877 198.615 618.706 198.392C618.535 198.168 618.296 198.006 618.02 197.927C617.743 197.847 617.441 197.854 617.151 197.946C616.862 198.037 616.598 198.21 616.394 198.442C616.258 198.596 616.151 198.773 616.08 198.962C616.009 199.151 615.975 199.349 615.98 199.544C615.985 199.738 616.029 199.927 616.11 200.098C616.19 200.268 616.305 200.419 616.449 200.539Z" fill="#B4904F"/>
<path d="M615.88 183.867C616.28 184.216 616.788 184.428 617.338 184.478C617.889 184.527 618.457 184.41 618.971 184.143C619.486 183.876 619.923 183.47 620.227 182.976C620.532 182.483 620.69 181.924 620.683 181.371C620.675 180.818 620.501 180.295 620.183 179.869C619.866 179.443 619.418 179.132 618.898 178.977C618.378 178.822 617.808 178.829 617.26 178.997C616.713 179.165 616.213 179.487 615.824 179.922C615.303 180.503 615.017 181.244 615.027 181.984C615.038 182.723 615.344 183.4 615.88 183.867Z" fill="#B4904F"/>
<path d="M643.885 179.274C644.299 179.626 644.822 179.838 645.387 179.883C645.951 179.927 646.532 179.802 647.057 179.523C647.581 179.244 648.025 178.824 648.332 178.316C648.639 177.808 648.796 177.235 648.782 176.669C648.769 176.103 648.585 175.57 648.255 175.138C647.926 174.705 647.464 174.392 646.93 174.238C646.395 174.084 645.811 174.096 645.252 174.273C644.692 174.45 644.183 174.784 643.788 175.232C643.258 175.832 642.971 176.595 642.99 177.353C643.008 178.11 643.33 178.801 643.885 179.274Z" fill="#B4904F"/>
<path d="M573.002 105.982C573.336 106.253 573.752 106.411 574.198 106.439C574.645 106.467 575.102 106.362 575.514 106.138C575.925 105.914 576.273 105.581 576.513 105.179C576.754 104.778 576.877 104.326 576.867 103.879C576.857 103.433 576.714 103.012 576.457 102.668C576.199 102.325 575.839 102.074 575.419 101.947C575 101.82 574.54 101.822 574.097 101.954C573.654 102.085 573.247 102.34 572.927 102.686C572.707 102.925 572.533 103.202 572.417 103.499C572.3 103.797 572.244 104.109 572.251 104.417C572.258 104.725 572.328 105.023 572.457 105.292C572.586 105.561 572.772 105.796 573.002 105.982Z" fill="#B4904F"/>
<path d="M667.819 120.425C667.848 120.452 667.883 120.472 667.922 120.484C667.961 120.497 668.003 120.501 668.045 120.496C668.087 120.492 668.129 120.479 668.167 120.458C668.206 120.438 668.24 120.41 668.269 120.377C668.327 120.311 668.359 120.227 668.358 120.144C668.357 120.061 668.323 119.985 668.264 119.931C668.24 119.893 668.208 119.86 668.169 119.837C668.13 119.814 668.085 119.8 668.038 119.796C667.991 119.792 667.943 119.799 667.897 119.816C667.852 119.833 667.809 119.859 667.773 119.893C667.737 119.927 667.708 119.968 667.688 120.013C667.669 120.057 667.659 120.105 667.66 120.152C667.66 120.199 667.672 120.244 667.693 120.285C667.714 120.325 667.744 120.359 667.781 120.385L667.819 120.425Z" fill="#B4904F"/>
<path d="M587.089 93.3944C587.373 93.6301 587.75 93.7356 588.139 93.688C588.528 93.6405 588.896 93.4437 589.165 93.1403C589.44 92.8337 589.591 92.4421 589.585 92.0517C589.579 91.6613 589.417 91.3041 589.133 91.0586C588.85 90.8131 588.468 90.6994 588.073 90.7426C587.678 90.7858 587.302 90.9823 587.027 91.2889C586.887 91.4428 586.777 91.6203 586.704 91.8109C586.631 92.0015 586.597 92.2012 586.602 92.3979C586.608 92.5946 586.654 92.7843 586.738 92.9556C586.822 93.1269 586.941 93.2761 587.089 93.3944Z" fill="#B4904F"/>
<path d="M658.22 98.5994C658.334 98.6959 658.468 98.7673 658.614 98.8095C658.76 98.8517 658.917 98.8639 659.073 98.8455C659.23 98.827 659.385 98.7782 659.528 98.7018C659.672 98.6255 659.802 98.5231 659.91 98.4005C660.018 98.2779 660.103 98.1375 660.16 97.9873C660.216 97.8371 660.244 97.68 660.24 97.5251C660.236 97.3702 660.202 97.2204 660.138 97.0843C660.075 96.9483 659.984 96.8286 659.87 96.7321C659.757 96.6356 659.623 96.5643 659.477 96.522C659.33 96.4798 659.174 96.4676 659.017 96.4861C658.86 96.5045 658.706 96.5533 658.562 96.6297C658.419 96.7061 658.289 96.8084 658.181 96.931C658.072 97.0537 657.987 97.1941 657.931 97.3443C657.874 97.4944 657.847 97.6515 657.851 97.8064C657.854 97.9613 657.889 98.1111 657.952 98.2472C658.016 98.3832 658.107 98.5029 658.22 98.5994Z" fill="#B4904F"/>
<path d="M643.157 17.819C643.418 18.039 643.747 18.1706 644.102 18.1972C644.456 18.2239 644.821 18.1443 645.15 17.9686C645.479 17.7929 645.757 17.529 645.95 17.2099C646.143 16.8909 646.241 16.531 646.233 16.1757C646.225 15.8204 646.11 15.4855 645.904 15.2132C645.698 14.9409 645.409 14.7433 645.073 14.6453C644.738 14.5474 644.372 14.5535 644.02 14.6628C643.668 14.7721 643.348 14.9798 643.098 15.2597C642.93 15.4472 642.799 15.6624 642.711 15.8929C642.623 16.1234 642.581 16.3646 642.586 16.6026C642.592 16.8406 642.645 17.0707 642.743 17.2794C642.841 17.4882 642.982 17.6716 643.157 17.819Z" fill="#B4904F"/>
<path d="M570.886 1.66292C570.973 1.73755 571.084 1.7824 571.203 1.79178C571.323 1.80115 571.446 1.77464 571.556 1.71559C571.667 1.65654 571.761 1.56761 571.826 1.46011C571.891 1.3526 571.923 1.23133 571.92 1.11172C571.917 0.992113 571.878 0.879552 571.808 0.788293C571.738 0.697033 571.64 0.63121 571.527 0.59916C571.413 0.567109 571.29 0.570275 571.172 0.608272C571.054 0.64627 570.946 0.717377 570.863 0.812573C570.753 0.939339 570.693 1.09983 570.697 1.25911C570.701 1.41838 570.769 1.56354 570.886 1.66292Z" fill="#B4904F"/>
<path d="M513.429 77.5381C513.5 77.6024 513.591 77.6422 513.691 77.6523C513.79 77.6623 513.893 77.6422 513.986 77.5946C514.08 77.5469 514.159 77.4739 514.214 77.3848C514.27 77.2957 514.299 77.1946 514.297 77.0945C514.296 76.9945 514.264 76.9001 514.206 76.8233C514.148 76.7465 514.067 76.691 513.972 76.6638C513.878 76.6366 513.775 76.639 513.676 76.6706C513.577 76.7023 513.488 76.7618 513.419 76.8415C513.373 76.8921 513.337 76.9504 513.312 77.0129C513.288 77.0754 513.276 77.141 513.277 77.2058C513.278 77.2705 513.292 77.3332 513.318 77.3903C513.344 77.4473 513.382 77.4975 513.429 77.5381Z" fill="#B4904F"/>
<path d="M451.926 79.2826C452.255 79.5683 452.671 79.7414 453.123 79.7798C453.575 79.8183 454.04 79.7204 454.461 79.4985C454.881 79.2767 455.237 78.941 455.484 78.5345C455.73 78.1279 455.855 77.6688 455.843 77.2159C455.831 76.7629 455.683 76.3367 455.417 75.9916C455.151 75.6465 454.78 75.3982 454.35 75.2784C453.921 75.1586 453.453 75.1728 453.006 75.3191C452.559 75.4655 452.154 75.7373 451.842 76.0999C451.433 76.576 451.212 77.1754 451.228 77.7701C451.243 78.3648 451.494 78.9076 451.926 79.2826Z" fill="#B4904F"/>
<path d="M390.41 93.497C390.674 93.7224 391.007 93.8582 391.367 93.8872C391.727 93.9162 392.097 93.8371 392.432 93.6599C392.766 93.4827 393.05 93.2154 393.246 92.8918C393.442 92.5682 393.543 92.2029 393.535 91.842C393.527 91.4812 393.41 91.1411 393.201 90.8648C392.991 90.5885 392.697 90.3884 392.356 90.2899C392.015 90.1913 391.643 90.1987 391.286 90.3111C390.93 90.4236 390.605 90.636 390.352 90.9215C390.015 91.3036 389.831 91.7892 389.842 92.2721C389.853 92.7549 390.057 93.1954 390.41 93.497Z" fill="#B4904F"/>
<path d="M333.661 44.7086C333.812 44.8395 334.002 44.919 334.209 44.9373C334.416 44.9556 334.629 44.9117 334.822 44.8112C335.015 44.7107 335.179 44.5581 335.293 44.3728C335.407 44.1874 335.467 43.9777 335.464 43.77C335.461 43.5624 335.395 43.3662 335.276 43.2063C335.157 43.0464 334.989 42.9299 334.793 42.8717C334.598 42.8135 334.384 42.8161 334.179 42.8793C333.973 42.9424 333.786 43.0632 333.639 43.2263C333.444 43.4447 333.336 43.7233 333.34 44.0012C333.344 44.2791 333.46 44.5335 333.661 44.7086Z" fill="#B4904F"/>
<path d="M385.193 65.5521C385.508 65.8211 385.906 65.9829 386.336 66.017C386.766 66.0511 387.209 65.956 387.608 65.7437C388.007 65.5315 388.345 65.2117 388.579 64.8248C388.813 64.4379 388.932 64.0013 388.922 63.5704C388.911 63.1396 388.771 62.7338 388.519 62.4045C388.268 62.0752 387.916 61.8372 387.509 61.7207C387.101 61.6042 386.656 61.6144 386.231 61.7501C385.805 61.8858 385.417 62.1407 385.117 62.4827C384.716 62.9393 384.499 63.5184 384.514 64.0936C384.528 64.6687 384.772 65.1931 385.193 65.5521Z" fill="#B4904F"/>
<path d="M405.994 42.6819C406.091 42.7624 406.211 42.8105 406.342 42.8199C406.472 42.8294 406.606 42.7999 406.726 42.7352C406.847 42.6704 406.949 42.5733 407.019 42.4561C407.09 42.3388 407.126 42.2067 407.122 42.0763C407.119 41.9459 407.077 41.8231 407.001 41.7233C406.925 41.6236 406.819 41.5513 406.695 41.5156C406.572 41.4799 406.438 41.4824 406.309 41.5228C406.18 41.5631 406.062 41.6396 405.971 41.7425C405.849 41.8829 405.784 42.0598 405.789 42.2353C405.793 42.4109 405.867 42.5712 405.994 42.6819Z" fill="#B4904F"/>
<path d="M442.728 38.0697C443.142 38.4224 443.665 38.6343 444.23 38.6787C444.794 38.7231 445.376 38.598 445.9 38.3192C446.424 38.0404 446.868 37.6204 447.175 37.1124C447.482 36.6044 447.639 36.0313 447.625 35.4654C447.612 34.8996 447.428 34.3665 447.099 33.9337C446.769 33.5009 446.307 33.1877 445.773 33.0339C445.238 32.88 444.654 32.8924 444.095 33.0695C443.535 33.2465 443.026 33.5802 442.631 34.0284C442.104 34.6297 441.819 35.3916 441.837 36.1484C441.856 36.9052 442.176 37.5957 442.728 38.0697Z" fill="#B4904F"/>
<path d="M459.285 22.9929C459.631 23.2844 460.067 23.4587 460.537 23.4939C461.006 23.529 461.489 23.4235 461.925 23.1906C462.36 22.9577 462.728 22.6078 462.983 22.1851C463.237 21.7624 463.367 21.2858 463.355 20.8155C463.343 20.3451 463.191 19.9021 462.917 19.5422C462.643 19.1824 462.259 18.9219 461.815 18.7935C461.37 18.6652 460.885 18.6748 460.42 18.8211C459.955 18.9675 459.531 19.244 459.201 19.6158C458.981 19.8638 458.809 20.1482 458.694 20.4525C458.579 20.7568 458.524 21.075 458.532 21.3889C458.54 21.7028 458.61 22.006 458.74 22.2813C458.869 22.5566 459.054 22.7984 459.285 22.9929Z" fill="#B4904F"/>
<defs>
<linearGradient id="paint0_linear_416_1818" x1="578.022" y1="410.917" x2="958.353" y2="53.2094" gradientUnits="userSpaceOnUse">
<stop offset="0.1" stop-color="#894323"/>
<stop offset="0.52" stop-color="#EAB745"/>
<stop offset="0.6" stop-color="#FFD04C"/>
<stop offset="0.64" stop-color="#FFD354"/>
<stop offset="0.7" stop-color="#FFDD69"/>
<stop offset="0.78" stop-color="#FFED8C"/>
<stop offset="0.83" stop-color="#FFFAAA"/>
<stop offset="0.84" stop-color="#FEF8A6"/>
<stop offset="0.86" stop-color="#FBF19B"/>
<stop offset="0.87" stop-color="#F6E688"/>
<stop offset="0.89" stop-color="#EED76D"/>
<stop offset="0.9" stop-color="#E5C34A"/>
<stop offset="0.91" stop-color="#D9AB21"/>
<stop offset="0.92" stop-color="#D09800"/>
</linearGradient>
<linearGradient id="paint1_linear_416_1818" x1="471.447" y1="419.368" x2="372.013" y2="347.034" gradientUnits="userSpaceOnUse">
<stop offset="0.22" stop-color="#894323"/>
<stop offset="0.27" stop-color="#914C26"/>
<stop offset="0.36" stop-color="#A6652D"/>
<stop offset="0.47" stop-color="#C88E39"/>
<stop offset="0.6" stop-color="#F6C649"/>
<stop offset="0.63" stop-color="#FFD04C"/>
<stop offset="0.66" stop-color="#FFD354"/>
<stop offset="0.71" stop-color="#FFDD69"/>
<stop offset="0.78" stop-color="#FFED8C"/>
<stop offset="0.83" stop-color="#FFFAAA"/>
<stop offset="0.84" stop-color="#FEF8A6"/>
<stop offset="0.86" stop-color="#FBF19B"/>
<stop offset="0.87" stop-color="#F6E688"/>
<stop offset="0.89" stop-color="#EED76D"/>
<stop offset="0.9" stop-color="#E5C34A"/>
<stop offset="0.91" stop-color="#D9AB21"/>
<stop offset="0.92" stop-color="#D09800"/>
</linearGradient>
<linearGradient id="paint2_linear_416_1818" x1="459.394" y1="349.266" x2="518.51" y2="391.004" gradientUnits="userSpaceOnUse">
<stop offset="0.08" stop-color="#A2602D"/>
<stop offset="0.11" stop-color="#AE6F31"/>
<stop offset="0.2" stop-color="#DAA340"/>
<stop offset="0.28" stop-color="#F5C449"/>
<stop offset="0.32" stop-color="#FFD04C"/>
<stop offset="0.35" stop-color="#FFD352"/>
<stop offset="0.38" stop-color="#FFDB65"/>
<stop offset="0.43" stop-color="#FFE882"/>
<stop offset="0.48" stop-color="#FFFAAA"/>
<stop offset="0.52" stop-color="#F6E88B"/>
<stop offset="0.6" stop-color="#E1BB3C"/>
<stop offset="0.66" stop-color="#D09800"/>
<stop offset="0.69" stop-color="#D19B04"/>
<stop offset="0.73" stop-color="#D5A211"/>
<stop offset="0.76" stop-color="#DBAE27"/>
<stop offset="0.8" stop-color="#E3C045"/>
<stop offset="0.84" stop-color="#EED66C"/>
<stop offset="0.88" stop-color="#FBF19B"/>
<stop offset="0.89" stop-color="#FFFAAA"/>
<stop offset="0.93" stop-color="#FFF48B"/>
<stop offset="1" stop-color="#FFE746"/>
</linearGradient>
<linearGradient id="paint3_linear_416_1818" x1="287.943" y1="443.627" x2="404.507" y2="279.531" gradientUnits="userSpaceOnUse">
<stop offset="0.08" stop-color="#A2602D"/>
<stop offset="0.11" stop-color="#AE6F31"/>
<stop offset="0.2" stop-color="#DAA340"/>
<stop offset="0.28" stop-color="#F5C449"/>
<stop offset="0.32" stop-color="#FFD04C"/>
<stop offset="0.35" stop-color="#FFD352"/>
<stop offset="0.38" stop-color="#FFDB65"/>
<stop offset="0.43" stop-color="#FFE882"/>
<stop offset="0.48" stop-color="#FFFAAA"/>
<stop offset="0.52" stop-color="#F6E88B"/>
<stop offset="0.6" stop-color="#E1BB3C"/>
<stop offset="0.66" stop-color="#D09800"/>
<stop offset="0.69" stop-color="#D19B04"/>
<stop offset="0.73" stop-color="#D5A211"/>
<stop offset="0.76" stop-color="#DBAE27"/>
<stop offset="0.8" stop-color="#E3C045"/>
<stop offset="0.84" stop-color="#EED66C"/>
<stop offset="0.88" stop-color="#FBF19B"/>
<stop offset="0.89" stop-color="#FFFAAA"/>
<stop offset="0.93" stop-color="#FFF48B"/>
<stop offset="1" stop-color="#FFE746"/>
</linearGradient>
<linearGradient id="paint4_linear_416_1818" x1="534.86" y1="314.666" x2="570.073" y2="339.528" gradientUnits="userSpaceOnUse">
<stop offset="0.1" stop-color="#894323"/>
<stop offset="0.52" stop-color="#EAB745"/>
<stop offset="0.6" stop-color="#FFD04C"/>
<stop offset="0.64" stop-color="#FFD354"/>
<stop offset="0.7" stop-color="#FFDD69"/>
<stop offset="0.78" stop-color="#FFED8C"/>
<stop offset="0.83" stop-color="#FFFAAA"/>
<stop offset="0.84" stop-color="#FEF8A6"/>
<stop offset="0.86" stop-color="#FBF19B"/>
<stop offset="0.87" stop-color="#F6E688"/>
<stop offset="0.89" stop-color="#EED76D"/>
<stop offset="0.9" stop-color="#E5C34A"/>
<stop offset="0.91" stop-color="#D9AB21"/>
<stop offset="0.92" stop-color="#D09800"/>
</linearGradient>
<linearGradient id="paint5_linear_416_1818" x1="680.596" y1="435.25" x2="632.81" y2="446.955" gradientUnits="userSpaceOnUse">
<stop offset="0.22" stop-color="#B9B8B3"/>
<stop offset="0.3" stop-color="#C0C0BC"/>
<stop offset="0.44" stop-color="#D4D7D5"/>
<stop offset="0.62" stop-color="#F5FDFD"/>
<stop offset="0.63" stop-color="#F6FEFF"/>
<stop offset="0.83" stop-color="#F6FEFF"/>
<stop offset="0.85" stop-color="#F3FBFB"/>
<stop offset="0.87" stop-color="#EAF0F0"/>
<stop offset="0.89" stop-color="#DBDFDD"/>
<stop offset="0.91" stop-color="#C5C6C2"/>
<stop offset="0.92" stop-color="#B9B8B3"/>
</linearGradient>
<linearGradient id="paint6_linear_416_1818" x1="497.553" y1="219.134" x2="449.767" y2="230.839" gradientUnits="userSpaceOnUse">
<stop offset="0.22" stop-color="#B9B8B3"/>
<stop offset="0.3" stop-color="#C0C0BC"/>
<stop offset="0.44" stop-color="#D4D7D5"/>
<stop offset="0.62" stop-color="#F5FDFD"/>
<stop offset="0.63" stop-color="#F6FEFF"/>
<stop offset="0.83" stop-color="#F6FEFF"/>
<stop offset="0.85" stop-color="#F3FBFB"/>
<stop offset="0.87" stop-color="#EAF0F0"/>
<stop offset="0.89" stop-color="#DBDFDD"/>
<stop offset="0.91" stop-color="#C5C6C2"/>
<stop offset="0.92" stop-color="#B9B8B3"/>
</linearGradient>
<linearGradient id="paint7_linear_416_1818" x1="497.261" y1="627.574" x2="486.477" y2="589.37" gradientUnits="userSpaceOnUse">
<stop offset="0.22" stop-color="#B9B8B3"/>
<stop offset="0.3" stop-color="#C0C0BC"/>
<stop offset="0.44" stop-color="#D4D7D5"/>
<stop offset="0.62" stop-color="#F5FDFD"/>
<stop offset="0.63" stop-color="#F6FEFF"/>
<stop offset="0.83" stop-color="#F6FEFF"/>
<stop offset="0.85" stop-color="#F3FBFB"/>
<stop offset="0.87" stop-color="#EAF0F0"/>
<stop offset="0.89" stop-color="#DBDFDD"/>
<stop offset="0.91" stop-color="#C5C6C2"/>
<stop offset="0.92" stop-color="#B9B8B3"/>
</linearGradient>
<linearGradient id="paint8_linear_416_1818" x1="289.305" y1="-3.15609" x2="268.907" y2="-29.2087" gradientUnits="userSpaceOnUse">
<stop offset="0.22" stop-color="#B9B8B3"/>
<stop offset="0.3" stop-color="#C0C0BC"/>
<stop offset="0.44" stop-color="#D4D7D5"/>
<stop offset="0.62" stop-color="#F5FDFD"/>
<stop offset="0.63" stop-color="#F6FEFF"/>
<stop offset="0.83" stop-color="#F6FEFF"/>
<stop offset="0.85" stop-color="#F3FBFB"/>
<stop offset="0.87" stop-color="#EAF0F0"/>
<stop offset="0.89" stop-color="#DBDFDD"/>
<stop offset="0.91" stop-color="#C5C6C2"/>
<stop offset="0.92" stop-color="#B9B8B3"/>
</linearGradient>
<linearGradient id="paint9_linear_416_1818" x1="448.886" y1="513.727" x2="479.08" y2="504.454" gradientUnits="userSpaceOnUse">
<stop offset="0.08" stop-color="#A2602D"/>
<stop offset="0.11" stop-color="#AE6F31"/>
<stop offset="0.2" stop-color="#DAA340"/>
<stop offset="0.28" stop-color="#F5C449"/>
<stop offset="0.32" stop-color="#FFD04C"/>
<stop offset="0.35" stop-color="#FFD352"/>
<stop offset="0.38" stop-color="#FFDB65"/>
<stop offset="0.43" stop-color="#FFE882"/>
<stop offset="0.48" stop-color="#FFFAAA"/>
<stop offset="0.52" stop-color="#F6E88B"/>
<stop offset="0.6" stop-color="#E1BB3C"/>
<stop offset="0.66" stop-color="#D09800"/>
<stop offset="0.69" stop-color="#D19B04"/>
<stop offset="0.73" stop-color="#D5A211"/>
<stop offset="0.76" stop-color="#DBAE27"/>
<stop offset="0.8" stop-color="#E3C045"/>
<stop offset="0.84" stop-color="#EED66C"/>
<stop offset="0.88" stop-color="#FBF19B"/>
<stop offset="0.89" stop-color="#FFFAAA"/>
<stop offset="0.93" stop-color="#FFF48B"/>
<stop offset="1" stop-color="#FFE746"/>
</linearGradient>
<linearGradient id="paint10_linear_416_1818" x1="682.129" y1="352.055" x2="718.703" y2="300.57" gradientUnits="userSpaceOnUse">
<stop offset="0.08" stop-color="#A2602D"/>
<stop offset="0.11" stop-color="#AE6F31"/>
<stop offset="0.2" stop-color="#DAA340"/>
<stop offset="0.28" stop-color="#F5C449"/>
<stop offset="0.32" stop-color="#FFD04C"/>
<stop offset="0.35" stop-color="#FFD352"/>
<stop offset="0.38" stop-color="#FFDB65"/>
<stop offset="0.43" stop-color="#FFE882"/>
<stop offset="0.48" stop-color="#FFFAAA"/>
<stop offset="0.52" stop-color="#F6E88B"/>
<stop offset="0.6" stop-color="#E1BB3C"/>
<stop offset="0.66" stop-color="#D09800"/>
<stop offset="0.69" stop-color="#D19B04"/>
<stop offset="0.73" stop-color="#D5A211"/>
<stop offset="0.76" stop-color="#DBAE27"/>
<stop offset="0.8" stop-color="#E3C045"/>
<stop offset="0.84" stop-color="#EED66C"/>
<stop offset="0.88" stop-color="#FBF19B"/>
<stop offset="0.89" stop-color="#FFFAAA"/>
<stop offset="0.93" stop-color="#FFF48B"/>
<stop offset="1" stop-color="#FFE746"/>
</linearGradient>
<linearGradient id="paint11_linear_416_1818" x1="578.535" y1="462.293" x2="615.102" y2="410.819" gradientUnits="userSpaceOnUse">
<stop offset="0.08" stop-color="#A2602D"/>
<stop offset="0.11" stop-color="#AE6F31"/>
<stop offset="0.2" stop-color="#DAA340"/>
<stop offset="0.28" stop-color="#F5C449"/>
<stop offset="0.32" stop-color="#FFD04C"/>
<stop offset="0.35" stop-color="#FFD352"/>
<stop offset="0.38" stop-color="#FFDB65"/>
<stop offset="0.43" stop-color="#FFE882"/>
<stop offset="0.48" stop-color="#FFFAAA"/>
<stop offset="0.52" stop-color="#F6E88B"/>
<stop offset="0.6" stop-color="#E1BB3C"/>
<stop offset="0.66" stop-color="#D09800"/>
<stop offset="0.69" stop-color="#D19B04"/>
<stop offset="0.73" stop-color="#D5A211"/>
<stop offset="0.76" stop-color="#DBAE27"/>
<stop offset="0.8" stop-color="#E3C045"/>
<stop offset="0.84" stop-color="#EED66C"/>
<stop offset="0.88" stop-color="#FBF19B"/>
<stop offset="0.89" stop-color="#FFFAAA"/>
<stop offset="0.93" stop-color="#FFF48B"/>
<stop offset="1" stop-color="#FFE746"/>
</linearGradient>
<linearGradient id="paint12_linear_416_1818" x1="225.339" y1="335.633" x2="260.553" y2="360.495" gradientUnits="userSpaceOnUse">
<stop offset="0.1" stop-color="#894323"/>
<stop offset="0.52" stop-color="#EAB745"/>
<stop offset="0.6" stop-color="#FFD04C"/>
<stop offset="0.64" stop-color="#FFD354"/>
<stop offset="0.7" stop-color="#FFDD69"/>
<stop offset="0.78" stop-color="#FFED8C"/>
<stop offset="0.83" stop-color="#FFFAAA"/>
<stop offset="0.84" stop-color="#FEF8A6"/>
<stop offset="0.86" stop-color="#FBF19B"/>
<stop offset="0.87" stop-color="#F6E688"/>
<stop offset="0.89" stop-color="#EED76D"/>
<stop offset="0.9" stop-color="#E5C34A"/>
<stop offset="0.91" stop-color="#D9AB21"/>
<stop offset="0.92" stop-color="#D09800"/>
</linearGradient>
<linearGradient id="paint13_linear_416_1818" x1="464.311" y1="368.411" x2="416.522" y2="380.103" gradientUnits="userSpaceOnUse">
<stop offset="0.22" stop-color="#B9B8B3"/>
<stop offset="0.3" stop-color="#C0C0BC"/>
<stop offset="0.44" stop-color="#D4D7D5"/>
<stop offset="0.62" stop-color="#F5FDFD"/>
<stop offset="0.63" stop-color="#F6FEFF"/>
<stop offset="0.83" stop-color="#F6FEFF"/>
<stop offset="0.85" stop-color="#F3FBFB"/>
<stop offset="0.87" stop-color="#EAF0F0"/>
<stop offset="0.89" stop-color="#DBDFDD"/>
<stop offset="0.91" stop-color="#C5C6C2"/>
<stop offset="0.92" stop-color="#B9B8B3"/>
</linearGradient>
<linearGradient id="paint14_linear_416_1818" x1="192.771" y1="188.12" x2="144.982" y2="199.812" gradientUnits="userSpaceOnUse">
<stop offset="0.22" stop-color="#B9B8B3"/>
<stop offset="0.3" stop-color="#C0C0BC"/>
<stop offset="0.44" stop-color="#D4D7D5"/>
<stop offset="0.62" stop-color="#F5FDFD"/>
<stop offset="0.63" stop-color="#F6FEFF"/>
<stop offset="0.83" stop-color="#F6FEFF"/>
<stop offset="0.85" stop-color="#F3FBFB"/>
<stop offset="0.87" stop-color="#EAF0F0"/>
<stop offset="0.89" stop-color="#DBDFDD"/>
<stop offset="0.91" stop-color="#C5C6C2"/>
<stop offset="0.92" stop-color="#B9B8B3"/>
</linearGradient>
<linearGradient id="paint15_linear_416_1818" x1="311.966" y1="294.088" x2="348.54" y2="242.603" gradientUnits="userSpaceOnUse">
<stop offset="0.08" stop-color="#A2602D"/>
<stop offset="0.11" stop-color="#AE6F31"/>
<stop offset="0.2" stop-color="#DAA340"/>
<stop offset="0.28" stop-color="#F5C449"/>
<stop offset="0.32" stop-color="#FFD04C"/>
<stop offset="0.35" stop-color="#FFD352"/>
<stop offset="0.38" stop-color="#FFDB65"/>
<stop offset="0.43" stop-color="#FFE882"/>
<stop offset="0.48" stop-color="#FFFAAA"/>
<stop offset="0.52" stop-color="#F6E88B"/>
<stop offset="0.6" stop-color="#E1BB3C"/>
<stop offset="0.66" stop-color="#D09800"/>
<stop offset="0.69" stop-color="#D19B04"/>
<stop offset="0.73" stop-color="#D5A211"/>
<stop offset="0.76" stop-color="#DBAE27"/>
<stop offset="0.8" stop-color="#E3C045"/>
<stop offset="0.84" stop-color="#EED66C"/>
<stop offset="0.88" stop-color="#FBF19B"/>
<stop offset="0.89" stop-color="#FFFAAA"/>
<stop offset="0.93" stop-color="#FFF48B"/>
<stop offset="1" stop-color="#FFE746"/>
</linearGradient>
<linearGradient id="paint16_linear_416_1818" x1="336.967" y1="461.504" x2="373.54" y2="410.019" gradientUnits="userSpaceOnUse">
<stop offset="0.08" stop-color="#A2602D"/>
<stop offset="0.11" stop-color="#AE6F31"/>
<stop offset="0.2" stop-color="#DAA340"/>
<stop offset="0.28" stop-color="#F5C449"/>
<stop offset="0.32" stop-color="#FFD04C"/>
<stop offset="0.35" stop-color="#FFD352"/>
<stop offset="0.38" stop-color="#FFDB65"/>
<stop offset="0.43" stop-color="#FFE882"/>
<stop offset="0.48" stop-color="#FFFAAA"/>
<stop offset="0.52" stop-color="#F6E88B"/>
<stop offset="0.6" stop-color="#E1BB3C"/>
<stop offset="0.66" stop-color="#D09800"/>
<stop offset="0.69" stop-color="#D19B04"/>
<stop offset="0.73" stop-color="#D5A211"/>
<stop offset="0.76" stop-color="#DBAE27"/>
<stop offset="0.8" stop-color="#E3C045"/>
<stop offset="0.84" stop-color="#EED66C"/>
<stop offset="0.88" stop-color="#FBF19B"/>
<stop offset="0.89" stop-color="#FFFAAA"/>
<stop offset="0.93" stop-color="#FFF48B"/>
<stop offset="1" stop-color="#FFE746"/>
</linearGradient>
<linearGradient id="paint17_linear_416_1818" x1="249.77" y1="131.051" x2="264.314" y2="175.263" gradientUnits="userSpaceOnUse">
<stop offset="0.22" stop-color="#894323"/>
<stop offset="0.27" stop-color="#914C26"/>
<stop offset="0.36" stop-color="#A6652D"/>
<stop offset="0.47" stop-color="#C88E39"/>
<stop offset="0.6" stop-color="#F6C649"/>
<stop offset="0.63" stop-color="#FFD04C"/>
<stop offset="0.66" stop-color="#FFD354"/>
<stop offset="0.71" stop-color="#FFDD69"/>
<stop offset="0.78" stop-color="#FFED8C"/>
<stop offset="0.83" stop-color="#FFFAAA"/>
<stop offset="0.84" stop-color="#FEF8A6"/>
<stop offset="0.86" stop-color="#FBF19B"/>
<stop offset="0.87" stop-color="#F6E688"/>
<stop offset="0.89" stop-color="#EED76D"/>
<stop offset="0.9" stop-color="#E5C34A"/>
<stop offset="0.91" stop-color="#D9AB21"/>
<stop offset="0.92" stop-color="#D09800"/>
</linearGradient>
<linearGradient id="paint18_linear_416_1818" x1="546.635" y1="497.175" x2="561.179" y2="541.387" gradientUnits="userSpaceOnUse">
<stop offset="0.22" stop-color="#894323"/>
<stop offset="0.27" stop-color="#914C26"/>
<stop offset="0.36" stop-color="#A6652D"/>
<stop offset="0.47" stop-color="#C88E39"/>
<stop offset="0.6" stop-color="#F6C649"/>
<stop offset="0.63" stop-color="#FFD04C"/>
<stop offset="0.66" stop-color="#FFD354"/>
<stop offset="0.71" stop-color="#FFDD69"/>
<stop offset="0.78" stop-color="#FFED8C"/>
<stop offset="0.83" stop-color="#FFFAAA"/>
<stop offset="0.84" stop-color="#FEF8A6"/>
<stop offset="0.86" stop-color="#FBF19B"/>
<stop offset="0.87" stop-color="#F6E688"/>
<stop offset="0.89" stop-color="#EED76D"/>
<stop offset="0.9" stop-color="#E5C34A"/>
<stop offset="0.91" stop-color="#D9AB21"/>
<stop offset="0.92" stop-color="#D09800"/>
</linearGradient>
<linearGradient id="paint19_linear_416_1818" x1="540.423" y1="401.916" x2="511.396" y2="423.771" gradientUnits="userSpaceOnUse">
<stop offset="0.22" stop-color="#B9B8B3"/>
<stop offset="0.3" stop-color="#C0C0BC"/>
<stop offset="0.44" stop-color="#D4D7D5"/>
<stop offset="0.62" stop-color="#F5FDFD"/>
<stop offset="0.63" stop-color="#F6FEFF"/>
<stop offset="0.83" stop-color="#F6FEFF"/>
<stop offset="0.85" stop-color="#F3FBFB"/>
<stop offset="0.87" stop-color="#EAF0F0"/>
<stop offset="0.89" stop-color="#DBDFDD"/>
<stop offset="0.91" stop-color="#C5C6C2"/>
<stop offset="0.92" stop-color="#B9B8B3"/>
</linearGradient>
<linearGradient id="paint20_linear_416_1818" x1="296.819" y1="40.6682" x2="275.944" y2="65.0714" gradientUnits="userSpaceOnUse">
<stop offset="0.08" stop-color="#A2602D"/>
<stop offset="0.11" stop-color="#AE6F31"/>
<stop offset="0.2" stop-color="#DAA340"/>
<stop offset="0.28" stop-color="#F5C449"/>
<stop offset="0.32" stop-color="#FFD04C"/>
<stop offset="0.35" stop-color="#FFD352"/>
<stop offset="0.38" stop-color="#FFDB65"/>
<stop offset="0.43" stop-color="#FFE882"/>
<stop offset="0.48" stop-color="#FFFAAA"/>
<stop offset="0.52" stop-color="#F6E88B"/>
<stop offset="0.6" stop-color="#E1BB3C"/>
<stop offset="0.66" stop-color="#D09800"/>
<stop offset="0.69" stop-color="#D19B04"/>
<stop offset="0.73" stop-color="#D5A211"/>
<stop offset="0.76" stop-color="#DBAE27"/>
<stop offset="0.8" stop-color="#E3C045"/>
<stop offset="0.84" stop-color="#EED66C"/>
<stop offset="0.88" stop-color="#FBF19B"/>
<stop offset="0.89" stop-color="#FFFAAA"/>
<stop offset="0.93" stop-color="#FFF48B"/>
<stop offset="1" stop-color="#FFE746"/>
</linearGradient>
<linearGradient id="paint21_linear_416_1818" x1="418.012" y1="126.461" x2="377.113" y2="134.449" gradientUnits="userSpaceOnUse">
<stop offset="0.22" stop-color="#B9B8B3"/>
<stop offset="0.3" stop-color="#C0C0BC"/>
<stop offset="0.44" stop-color="#D4D7D5"/>
<stop offset="0.62" stop-color="#F5FDFD"/>
<stop offset="0.63" stop-color="#F6FEFF"/>
<stop offset="0.83" stop-color="#F6FEFF"/>
<stop offset="0.85" stop-color="#F3FBFB"/>
<stop offset="0.87" stop-color="#EAF0F0"/>
<stop offset="0.89" stop-color="#DBDFDD"/>
<stop offset="0.91" stop-color="#C5C6C2"/>
<stop offset="0.92" stop-color="#B9B8B3"/>
</linearGradient>
<linearGradient id="paint22_linear_416_1818" x1="387.363" y1="33.8899" x2="341.444" y2="-1.12524" gradientUnits="userSpaceOnUse">
<stop offset="0.08" stop-color="#A2602D"/>
<stop offset="0.11" stop-color="#AE6F31"/>
<stop offset="0.2" stop-color="#DAA340"/>
<stop offset="0.28" stop-color="#F5C449"/>
<stop offset="0.32" stop-color="#FFD04C"/>
<stop offset="0.35" stop-color="#FFD352"/>
<stop offset="0.38" stop-color="#FFDB65"/>
<stop offset="0.43" stop-color="#FFE882"/>
<stop offset="0.48" stop-color="#FFFAAA"/>
<stop offset="0.52" stop-color="#F6E88B"/>
<stop offset="0.6" stop-color="#E1BB3C"/>
<stop offset="0.66" stop-color="#D09800"/>
<stop offset="0.69" stop-color="#D19B04"/>
<stop offset="0.73" stop-color="#D5A211"/>
<stop offset="0.76" stop-color="#DBAE27"/>
<stop offset="0.8" stop-color="#E3C045"/>
<stop offset="0.84" stop-color="#EED66C"/>
<stop offset="0.88" stop-color="#FBF19B"/>
<stop offset="0.89" stop-color="#FFFAAA"/>
<stop offset="0.93" stop-color="#FFF48B"/>
<stop offset="1" stop-color="#FFE746"/>
</linearGradient>
</defs>
</svg>
