<svg width="16" height="15" viewBox="0 0 16 15" fill="none" xmlns="http://www.w3.org/2000/svg">
<path d="M8.08884 14.916C12.0595 14.916 15.2783 11.6971 15.2783 7.72654C15.2783 3.75593 12.0595 0.537109 8.08884 0.537109C4.11823 0.537109 0.899414 3.75593 0.899414 7.72654C0.899414 11.6971 4.11823 14.916 8.08884 14.916Z" fill="url(#paint0_linear_104_1125)"/>
<path d="M5.0741 6.38967H6.4461V10.8646H5.0741V6.38967ZM5.76748 4.1817C5.92801 4.17977 6.08547 4.22579 6.21969 4.31388C6.3539 4.40197 6.45878 4.52812 6.52088 4.67617C6.58298 4.82422 6.59948 4.98743 6.56826 5.14491C6.53705 5.30239 6.45955 5.44697 6.34567 5.56014C6.2318 5.67331 6.08674 5.74992 5.92907 5.78016C5.7714 5.8104 5.60829 5.79288 5.46063 5.72987C5.31297 5.66685 5.18748 5.5612 5.10022 5.42644C5.01296 5.29168 4.96791 5.13394 4.97084 4.97342C4.97341 4.76339 5.05832 4.56276 5.20731 4.4147C5.35629 4.26664 5.55744 4.18297 5.76748 4.1817Z" fill="white"/>
<path d="M7.33594 6.38935H8.6735V6.99912C8.80885 6.77249 9.00253 6.58632 9.23434 6.46004C9.46614 6.33375 9.72759 6.27198 9.9914 6.28117C11.3978 6.28117 11.6584 7.20566 11.6584 8.41046V10.8692H10.2865V8.69075C10.2865 8.199 10.2865 7.50563 9.56358 7.50563C8.8407 7.50563 8.7276 8.07115 8.7276 8.65633V10.8692H7.33594V6.38935Z" fill="white"/>
<defs>
<linearGradient id="paint0_linear_104_1125" x1="13.1736" y1="2.64181" x2="3.00412" y2="12.8113" gradientUnits="userSpaceOnUse">
<stop stop-color="#007AB5"/>
<stop offset="1" stop-color="#0046E5"/>
</linearGradient>
</defs>
</svg>
