<svg width="22" height="19" viewBox="0 0 22 19" fill="none" xmlns="http://www.w3.org/2000/svg">
<path d="M6.03616 8.7259C5.26181 8.17279 5.44357 6.97562 6.17265 5.7128C6.90174 4.44999 7.99646 3.75768 8.80172 4.07978C9.90794 4.52226 10.2538 5.45338 10.3451 6.01802C10.4611 6.7347 10.274 7.39844 10.0186 7.84093C9.72918 8.34223 9.24421 8.7259 8.6911 8.94715C8.13799 9.16839 7.03823 9.44166 6.03616 8.7259Z" stroke="white" stroke-width="0.7" stroke-linecap="round" stroke-linejoin="round"/>
<path d="M8.48819 8.63169C8.17073 8.44841 8.24102 7.73235 8.64518 7.03232C9.04934 6.3323 9.63432 5.91339 9.95178 6.09668" stroke="white" stroke-width="0.7" stroke-linecap="round" stroke-linejoin="round"/>
<ellipse cx="0.663734" cy="1.10622" rx="0.663734" ry="1.10622" transform="matrix(-0.866025 -0.5 -0.5 0.866025 10.3507 6.7334)" stroke="white" stroke-width="0.7" stroke-linecap="round" stroke-linejoin="round"/>
<path d="M3.27053 13.4819L3.27053 7.72949C4.04489 8.17198 5.15111 8.35635 5.70422 8.39323V13.4819C5.70425 13.9243 5.48295 14.4775 4.48738 14.4775C3.50989 14.4775 3.27053 13.9243 3.27053 13.4819Z" stroke="white" stroke-width="0.7" stroke-linecap="round" stroke-linejoin="round"/>
<path d="M8.58032 4.02761C8.39595 3.51138 7.63029 2.24341 5.92539 1.59392C3.60232 0.708944 2.27485 1.4833 1.61112 2.36828C0.947381 3.25326 0.615515 5.02322 1.72174 6.35068C2.82796 7.67815 3.76795 8.1673 5.7322 8.43516" stroke="white" stroke-width="0.7" stroke-linecap="round" stroke-linejoin="round"/>
<path d="M7.91675 3.96908C7.54801 3.23159 6.30166 1.69026 4.26621 1.42476" stroke="white" stroke-width="0.7" stroke-linecap="round" stroke-linejoin="round"/>
<rect width="1.10622" height="1.95311" rx="0.553112" transform="matrix(-0.53013 0.847916 0.847916 0.53013 2.26538 2.12025)" stroke="white" stroke-width="0.7" stroke-linecap="round" stroke-linejoin="round"/>
<rect width="1.10622" height="3.01187" rx="0.553112" transform="matrix(-0.53013 0.847916 0.847916 0.53013 2.26538 2.12025)" stroke="white" stroke-width="0.7" stroke-linecap="round" stroke-linejoin="round"/>
<path d="M15.964 12.2659C16.7383 11.7128 16.5566 10.5157 15.8275 9.25284C15.0984 7.99003 14.0037 7.29772 13.1984 7.61982C12.0922 8.0623 11.7464 8.99342 11.655 9.55806C11.5391 10.2747 11.7261 10.9385 11.9815 11.381C12.2709 11.8823 12.7559 12.2659 13.309 12.4872C13.8621 12.7084 14.9619 12.9817 15.964 12.2659Z" stroke="white" stroke-width="0.7" stroke-linecap="round" stroke-linejoin="round"/>
<path d="M13.5117 12.1729C13.8291 11.9896 13.7589 11.2736 13.3547 10.5736C12.9505 9.87353 12.3656 9.45463 12.0481 9.63791" stroke="white" stroke-width="0.7" stroke-linecap="round" stroke-linejoin="round"/>
<ellipse cx="12.7776" cy="10.9008" rx="0.663734" ry="1.10622" transform="rotate(-30 12.7776 10.9008)" stroke="white" stroke-width="0.7" stroke-linecap="round" stroke-linejoin="round"/>
<path d="M18.7293 17.0231L18.7293 11.2707C17.955 11.7132 16.8488 11.8976 16.2957 11.9345V17.0231C16.2956 17.4656 16.5169 18.0187 17.5125 18.0187C18.49 18.0187 18.7293 17.4656 18.7293 17.0231Z" stroke="white" stroke-width="0.7" stroke-linecap="round" stroke-linejoin="round"/>
<path d="M13.4196 7.56809C13.6039 7.05185 14.3696 5.78388 16.0745 5.1344C18.3976 4.24942 19.725 5.02377 20.3888 5.90875C21.0525 6.79373 21.3844 8.56369 20.2781 9.89116C19.1719 11.2186 18.0533 11.8285 16.3569 11.9178" stroke="white" stroke-width="0.7" stroke-linecap="round" stroke-linejoin="round"/>
<path d="M14.0831 7.50955C14.4519 6.77207 15.6982 5.23073 17.7337 4.96524" stroke="white" stroke-width="0.7" stroke-linecap="round" stroke-linejoin="round"/>
<rect x="19.7346" y="5.66037" width="1.10622" height="1.95311" rx="0.553112" transform="rotate(57.9858 19.7346 5.66037)" stroke="white" stroke-width="0.7" stroke-linecap="round" stroke-linejoin="round"/>
<rect x="19.7346" y="5.66037" width="1.10622" height="3.01187" rx="0.553112" transform="rotate(57.9858 19.7346 5.66037)" stroke="white" stroke-width="0.7" stroke-linecap="round" stroke-linejoin="round"/>
</svg>
