<svg width="25" height="17" viewBox="0 0 25 17" fill="none" xmlns="http://www.w3.org/2000/svg">
<path d="M15.1983 6.33217H12.704H9.81062C9.01247 6.33217 8.6134 5.9295 8.51361 5.42618C8.39457 4.82575 8.2143 3.81554 8.01473 2.70822C7.85016 1.79511 8.32377 1.65465 9.01246 1.50024C9.91041 1.29891 11.7063 1.19824 12.704 1.19824C13.7453 1.19824 15.1202 1.25904 16.196 1.50024C17.0939 1.70157 17.0455 2.14399 16.9942 2.50689C16.8944 3.21111 16.7549 4.05608 16.5954 5.02171L16.5951 5.02352C16.4354 5.98991 15.7969 6.33217 15.1983 6.33217Z" stroke="white" stroke-width="0.7"/>
<path d="M3.03462 16.0754L3.875 16.189C4.38839 16.189 4.51985 15.7971 4.90179 14.9568C5.41518 13.8274 5.95276 12.2438 6.15401 11.9401C6.44196 11.5056 6.95536 10.747 8.36777 11.0291H16.6191C17.7366 10.747 18.558 11.2994 18.9688 12.2872C19.4548 13.4563 19.5848 14.0327 19.9955 15.0595C20.2244 15.6315 20.4063 16.2917 21.2277 16.189L21.9522 16.0659M21.5629 2.32315C22.0995 3.33547 23.2936 6.1497 23.7766 9.30812C24.3804 13.2562 23.676 15.4832 22.6697 15.9894C21.9803 16.3362 21.8647 15.9894 21.7641 15.7869C21.3616 14.7746 19.4739 9.74711 18.4435 8.29581C17.9403 7.58719 17.5803 7.22497 17.236 6.87857C17.0012 6.64236 16.5718 5.90675 16.7328 4.85394C16.8938 3.80113 17.0683 2.86306 17.1353 2.52562C17.1689 2.25567 17.1555 1.69552 16.8335 1.61453C17.8397 1.58079 20.1944 1.67527 21.5629 2.32315ZM3.43714 2.32315C2.90047 3.33547 1.70638 6.1497 1.22338 9.30812C0.619624 13.2562 1.32399 15.4832 2.33026 15.9894C3.0197 16.3362 3.13526 15.9894 3.23589 15.7869C3.63839 14.7746 5.52608 9.74711 6.55653 8.29581C7.05965 7.58719 7.4197 7.22497 7.76403 6.87857C7.99883 6.64236 8.42816 5.90675 8.26716 4.85394C8.10616 3.80113 7.93174 2.86306 7.86466 2.52562C7.83112 2.25567 7.84453 1.69552 8.16653 1.61453C7.16028 1.58079 4.80564 1.67527 3.43714 2.32315Z" stroke="white" stroke-width="0.7" stroke-linecap="round" stroke-linejoin="round"/>
<circle cx="19.6874" cy="3.66219" r="0.616071" stroke="white" stroke-width="0.7" stroke-linecap="round" stroke-linejoin="round"/>
<circle cx="19.6874" cy="6.94801" r="0.616071" stroke="white" stroke-width="0.7" stroke-linecap="round" stroke-linejoin="round"/>
<circle cx="18.0448" cy="5.30474" r="0.616071" stroke="white" stroke-width="0.7" stroke-linecap="round" stroke-linejoin="round"/>
<circle cx="16.299" cy="8.6935" r="1.54018" stroke="white" stroke-width="0.7" stroke-linecap="round" stroke-linejoin="round"/>
<circle cx="8.70082" cy="8.6935" r="1.54018" stroke="white" stroke-width="0.7" stroke-linecap="round" stroke-linejoin="round"/>
<path d="M9.83022 8.69313C9.83022 9.31692 9.32454 9.82259 8.70075 9.82259C8.07697 9.82259 7.57129 9.31692 7.57129 8.69313C7.57129 8.06934 8.07697 7.56367 8.70075 7.56367C9.32454 7.56367 9.83022 8.06934 9.83022 8.69313Z" stroke="white" stroke-width="0.7" stroke-linecap="round" stroke-linejoin="round"/>
<circle cx="16.2991" cy="8.69313" r="1.12946" stroke="white" stroke-width="0.7" stroke-linecap="round" stroke-linejoin="round"/>
<path d="M18.192 1.09307C19.3995 0.771073 20.6406 1.36141 21.1102 1.69683V2.07057C20.0254 1.7112 18.7287 1.61879 18.192 1.61879V1.09307Z" stroke="white" stroke-width="0.7" stroke-linecap="round" stroke-linejoin="round"/>
<path d="M6.73516 1.09307C5.52765 0.771073 4.2866 1.36141 3.81702 1.69683V2.07057C4.90176 1.7112 6.19849 1.61879 6.73516 1.61879V1.09307Z" stroke="white" stroke-width="0.7" stroke-linecap="round" stroke-linejoin="round"/>
<path d="M23.7739 9.22687C23.2849 6.10178 22.076 3.31725 21.5327 2.31561C20.1472 1.67457 17.7634 1.58108 16.7447 1.61447C17.0707 1.6946 17.0843 2.24884 17.0503 2.51594C16.9824 2.84982 16.8058 3.778 16.6428 4.81969C16.4798 5.86139 16.9145 6.58924 17.1522 6.82296C17.5008 7.1657 17.8653 7.5241 18.3747 8.22524C19.4179 9.66123 21.3289 14.6357 21.7364 15.6373C21.8383 15.8376 21.9553 16.1808 22.6533 15.8376C23.672 15.3368 24.3851 13.1332 23.7739 9.22687Z" stroke="white" stroke-width="0.7" stroke-linecap="round" stroke-linejoin="round"/>
<path d="M1.22614 9.22687C1.71513 6.10178 2.92401 3.31725 3.46732 2.31561C4.85278 1.67457 7.23658 1.58108 8.2553 1.61447C7.92931 1.6946 7.91572 2.24884 7.94968 2.51594C8.01759 2.84982 8.19417 3.778 8.35717 4.81969C8.52016 5.86139 8.08551 6.58924 7.84781 6.82296C7.49921 7.16571 7.13471 7.5241 6.62535 8.22524C5.58214 9.66123 3.67107 14.6357 3.26358 15.6373C3.16171 15.8376 3.04471 16.1808 2.34673 15.8376C1.328 15.3368 0.614913 13.1332 1.22614 9.22687Z" stroke="white" stroke-width="0.7" stroke-linecap="round" stroke-linejoin="round"/>
<circle cx="21.3302" cy="5.30474" r="0.616071" stroke="white" stroke-width="0.7" stroke-linecap="round" stroke-linejoin="round"/>
<path d="M11.8838 9.82324H13.1159" stroke="white" stroke-width="0.7" stroke-linecap="round" stroke-linejoin="round"/>
<path d="M4.69666 6.94686V6.82085C4.69666 6.66433 4.75623 6.51368 4.86328 6.39949C5.10667 6.13987 5.51878 6.13987 5.76217 6.39949C5.86922 6.51368 5.9288 6.66433 5.9288 6.82085V6.94686C5.9288 7.28711 5.65297 7.56294 5.31273 7.56294C4.97248 7.56294 4.69666 7.28711 4.69666 6.94686Z" stroke="white" stroke-width="0.7" stroke-linecap="round" stroke-linejoin="round"/>
<path d="M5.92859 4.07213L5.92859 4.19815C5.92859 4.35467 5.86901 4.50532 5.76196 4.61951C5.51857 4.87913 5.10646 4.87913 4.86307 4.61951C4.75602 4.50532 4.69645 4.35467 4.69645 4.19815L4.69645 4.07213C4.69645 3.73188 4.97227 3.45606 5.31252 3.45606C5.65276 3.45606 5.92859 3.73188 5.92859 4.07213Z" stroke="white" stroke-width="0.7" stroke-linecap="round" stroke-linejoin="round"/>
<path d="M3.87513 4.89387L4.00115 4.89387C4.15767 4.89387 4.30832 4.95344 4.42251 5.06049C4.68213 5.30389 4.68213 5.71599 4.42251 5.95939C4.30832 6.06644 4.15767 6.12601 4.00115 6.12601L3.87513 6.12601C3.53488 6.12601 3.25906 5.85019 3.25906 5.50994C3.25906 5.16969 3.53488 4.89387 3.87513 4.89387Z" stroke="white" stroke-width="0.7" stroke-linecap="round" stroke-linejoin="round"/>
<path d="M6.74999 6.12632L6.62397 6.12632C6.46745 6.12632 6.3168 6.06675 6.20262 5.9597C5.943 5.71631 5.943 5.3042 6.20262 5.06081C6.3168 4.95376 6.46745 4.89418 6.62397 4.89418L6.74999 4.89418C7.09024 4.89418 7.36606 5.17001 7.36606 5.51025C7.36606 5.8505 7.09024 6.12632 6.74999 6.12632Z" stroke="white" stroke-width="0.7" stroke-linecap="round" stroke-linejoin="round"/>
<path d="M18.0446 2.42953L17.8393 3.25096" stroke="white" stroke-width="0.7" stroke-linecap="round" stroke-linejoin="round"/>
<path d="M6.95538 2.42953L7.16074 3.25096" stroke="white" stroke-width="0.7" stroke-linecap="round" stroke-linejoin="round"/>
<path d="M11.6787 7.35862H13.3216" stroke="white" stroke-width="0.7" stroke-linecap="round" stroke-linejoin="round"/>
<path d="M11.2681 6.94824H13.7324" stroke="white" stroke-width="0.7" stroke-linecap="round" stroke-linejoin="round"/>
</svg>
