<svg width="12" height="21" viewBox="0 0 12 21" fill="none" xmlns="http://www.w3.org/2000/svg">
<path d="M6.47874 1.42825L1.65848 3.22655C1.2634 3.37394 1.00315 3.7533 1.00874 4.17494C1.03972 6.51227 1.08835 8.95614 1.08833 12.5664C1.08832 15.1125 1.04601 16.726 1.06902 18.27C1.07619 18.7514 1.43318 19.1528 1.91293 19.1929C3.69423 19.3415 6.55534 19.336 8.47999 19.3002C9.03361 19.2898 9.46795 18.828 9.44311 18.2749C9.18981 12.6333 8.34608 5.88696 7.80901 2.20876C7.71758 1.58259 7.07164 1.20706 6.47874 1.42825Z" stroke="white" stroke-linecap="round" stroke-linejoin="round"/>
<path d="M9.66553 10.0186V10.7259" stroke="white" stroke-linecap="round" stroke-linejoin="round"/>
<path d="M7.8041 2.06347C9.27485 1.6718 10.3772 1.38202 10.5539 1.35336C10.9882 1.28289 11.0202 1.4966 11.0063 1.79376C10.6444 9.5449 10.8579 16.5392 11.0087 19.1523C10.6483 19.1735 10.2507 19.2 9.56679 19.1523M1.50879 19.2371C1.99659 19.2786 2.51018 19.3122 3.03557 19.3391" stroke="white" stroke-linecap="round" stroke-linejoin="round"/>
<path d="M9.35886 2.01934L7.79907 2.09428C7.79907 2.09428 8.04799 3.51605 8.57234 7.91815C9.11766 12.4963 9.42398 17.1167 9.48224 19.1124C9.83181 19.1828 10.3784 19.1417 10.6697 19.1124C10.5823 15.4146 10.3202 5.45298 10.3202 3.69214C10.3202 2.28346 9.6793 1.98999 9.35886 2.01934Z" stroke="white" stroke-linecap="round" stroke-linejoin="round"/>
<path d="M2.95264 19.9995L3.12228 19.1328C5.66538 19.1328 7.63271 19.3842 9.31268 19.3842L9.48233 19.9995H2.95264Z" stroke="white" stroke-linecap="round" stroke-linejoin="round"/>
</svg>
