<svg width="25" height="18" viewBox="0 0 25 18" fill="none" xmlns="http://www.w3.org/2000/svg">
<path d="M2.23199 8.36632C2.23199 6.32262 3.60817 4.53976 5.62712 4.22268C7.4454 3.93711 9.85387 3.66986 12.4999 3.66986C15.1458 3.66986 17.5543 3.93711 19.3726 4.22268C21.3915 4.53976 22.7677 6.32262 22.7677 8.36632V11.0191C22.7677 13.0568 21.572 14.8658 19.5671 15.2299C17.9279 15.5276 15.6094 15.7859 12.4999 15.7859C9.3903 15.7859 7.07186 15.5276 5.43263 15.2299C3.42771 14.8658 2.23199 13.0568 2.23199 11.0191V8.36632Z" stroke="white" stroke-width="0.7" stroke-linecap="round" stroke-linejoin="round"/>
<path d="M19.0977 4.63296C17.3522 4.34739 15.0401 4.08015 12.4999 4.08015C9.95977 4.08015 7.64764 4.3474 5.9021 4.63296" stroke="white" stroke-width="0.7" stroke-linecap="round" stroke-linejoin="round"/>
<path d="M2.64307 10.4033C2.64307 12.441 3.79095 14.25 5.71567 14.6141C7.28933 14.9118 9.51504 15.1701 12.5002 15.1701C15.4854 15.1701 17.7111 14.9118 19.2848 14.6141C21.2095 14.25 22.3574 12.441 22.3574 10.4033" stroke="white" stroke-width="0.7" stroke-linecap="round" stroke-linejoin="round"/>
<rect x="7.16064" y="7.57133" width="10.6786" height="3.28572" rx="1.64286" stroke="white" stroke-width="0.7" stroke-linecap="round" stroke-linejoin="round"/>
<path d="M7.77686 9.21429C7.77686 8.64721 8.23656 8.1875 8.80364 8.1875H9.41971C9.98679 8.1875 10.4465 8.64721 10.4465 9.21429V9.21429C10.4465 9.78137 9.98679 10.2411 9.41971 10.2411H8.80364C8.23656 10.2411 7.77686 9.78137 7.77686 9.21429V9.21429Z" stroke="white" stroke-width="0.7" stroke-linecap="round" stroke-linejoin="round"/>
<rect x="7.77686" y="8.1875" width="2.05357" height="2.05357" rx="1.02679" stroke="white" stroke-width="0.7" stroke-linecap="round" stroke-linejoin="round"/>
<path d="M11.3603 14.7745C11.4271 15.0085 11.641 15.1699 11.8843 15.1699H13.1157C13.359 15.1699 13.5729 15.0085 13.6397 14.7745V14.7745C13.789 14.2523 13.3968 13.7324 12.8536 13.7324H12.1464C11.6032 13.7324 11.211 14.2523 11.3603 14.7745V14.7745Z" stroke="white" stroke-width="0.7" stroke-linecap="round" stroke-linejoin="round"/>
<path d="M11.3597 4.30718C11.4293 4.16804 11.5715 4.08015 11.727 4.08015H13.273C13.4285 4.08015 13.5707 4.16804 13.6403 4.30718V4.30718C13.7768 4.58027 13.5783 4.90158 13.273 4.90158H11.727C11.4217 4.90158 11.2232 4.58027 11.3597 4.30718V4.30718Z" stroke="white" stroke-width="0.7" stroke-linecap="round" stroke-linejoin="round"/>
<path d="M14.5537 9.21429C14.5537 8.64721 15.0134 8.1875 15.5805 8.1875H16.1966C16.7636 8.1875 17.2234 8.64721 17.2234 9.21429V9.21429C17.2234 9.78137 16.7636 10.2411 16.1966 10.2411H15.5805C15.0134 10.2411 14.5537 9.78137 14.5537 9.21429V9.21429Z" stroke="white" stroke-width="0.7" stroke-linecap="round" stroke-linejoin="round"/>
<rect x="15.1695" y="8.1875" width="2.05357" height="2.05357" rx="1.02679" stroke="white" stroke-width="0.7" stroke-linecap="round" stroke-linejoin="round"/>
<circle cx="8.80372" cy="9.2144" r="0.410714" stroke="white" stroke-width="0.7" stroke-linecap="round" stroke-linejoin="round"/>
<circle cx="16.1964" cy="9.2144" r="0.410714" stroke="white" stroke-width="0.7" stroke-linecap="round" stroke-linejoin="round"/>
<path d="M5.10699 4.28572C5.14146 3.61571 5.74668 2.33295 7.48391 1.74053C9.22114 1.14811 11.5857 1 12.5508 1C13.516 1 15.8805 1.14811 17.6178 1.74053C19.355 2.33295 19.8582 3.51303 19.8927 4.18304" stroke="white" stroke-width="0.7" stroke-linecap="round" stroke-linejoin="round"/>
<path d="M12.4999 3.05389C13.1061 3.05389 13.4097 2.3209 12.981 1.89222C12.7153 1.62647 12.2844 1.62647 12.0187 1.89222C11.59 2.3209 11.8936 3.05389 12.4999 3.05389Z" stroke="white" stroke-width="0.7" stroke-linecap="round" stroke-linejoin="round"/>
<path d="M14.5535 14.1427V11.6784C16.2306 11.6441 19.9749 11.7194 21.5356 12.2944" stroke="white" stroke-width="0.7" stroke-linecap="round" stroke-linejoin="round"/>
<path d="M10.4465 14.1427V11.6784C8.76942 11.6441 5.02507 11.7194 3.46436 12.2944" stroke="white" stroke-width="0.7" stroke-linecap="round" stroke-linejoin="round"/>
<path d="M10.4465 4.69632V6.7499C8.90632 6.7499 5.41525 6.7499 3.46436 7.57132" stroke="white" stroke-width="0.7" stroke-linecap="round" stroke-linejoin="round"/>
<path d="M14.5535 4.69632V6.7499C16.0937 6.7499 19.5848 6.7499 21.5356 7.57132" stroke="white" stroke-width="0.7" stroke-linecap="round" stroke-linejoin="round"/>
<path d="M23.9263 11.2432C23.6905 9.74258 23.761 8.54346 23.8023 7.98248C23.7313 7.91403 23.5482 7.81819 23.3839 7.98248C23.3129 8.70123 23.3198 10.4917 23.4866 11.5762C23.692 12.9111 23.2812 14.5539 22.4598 16.1968C22.3914 16.3337 22.3982 16.6075 22.5625 16.6075C23.3064 15.766 24.2762 13.4698 23.9263 11.2432Z" stroke="white" stroke-width="0.7" stroke-linecap="round" stroke-linejoin="round"/>
<path d="M22.6327 12.295C23.1178 12.5973 23.3144 13.241 23.08 14.3056C22.8457 15.3701 22.4752 16.1792 22.1035 16.5574C21.8018 16.8645 21.1872 17.232 20.3458 16.8645C19.4083 16.455 19.4298 15.6247 19.5275 15.3176" stroke="white" stroke-width="0.7" stroke-linecap="round" stroke-linejoin="round"/>
<path d="M1.07368 11.2432C1.30948 9.74258 1.23899 8.54346 1.19766 7.98248C1.26868 7.91403 1.45179 7.81819 1.61607 7.98248C1.68709 8.70123 1.68025 10.4917 1.51339 11.5762C1.30804 12.9111 1.71875 14.5539 2.54018 16.1968C2.60863 16.3337 2.60179 16.6075 2.4375 16.6075C1.6936 15.766 0.723772 13.4698 1.07368 11.2432Z" stroke="white" stroke-width="0.7" stroke-linecap="round" stroke-linejoin="round"/>
<path d="M2.36739 12.295C1.88223 12.5973 1.68565 13.241 1.92002 14.3056C2.15438 15.3701 2.52489 16.1792 2.89654 16.5574C3.19827 16.8645 3.81288 17.232 4.65428 16.8645C5.59174 16.455 5.57021 15.6247 5.47256 15.3176" stroke="white" stroke-width="0.7" stroke-linecap="round" stroke-linejoin="round"/>
<path d="M23.7945 13.9375C23.726 14.2113 23.5275 14.8616 23.2811 15.2723" stroke="white" stroke-width="0.7" stroke-linecap="round" stroke-linejoin="round"/>
<path d="M1.20551 13.9375C1.27396 14.2113 1.47247 14.8616 1.7189 15.2723" stroke="white" stroke-width="0.7" stroke-linecap="round" stroke-linejoin="round"/>
</svg>
