<svg width="16" height="15" viewBox="0 0 16 15" fill="none" xmlns="http://www.w3.org/2000/svg">
<path d="M8.18064 14.4667C12.1512 14.4667 15.3701 11.2479 15.3701 7.27732C15.3701 3.30671 12.1512 0.0878906 8.18064 0.0878906C4.21003 0.0878906 0.991211 3.30671 0.991211 7.27732C0.991211 11.2479 4.21003 14.4667 8.18064 14.4667Z" fill="url(#paint0_linear_104_1104)"/>
<path d="M8.18064 14.4667C12.1512 14.4667 15.3701 11.2479 15.3701 7.27732C15.3701 3.30671 12.1512 0.0878906 8.18064 0.0878906C4.21003 0.0878906 0.991211 3.30671 0.991211 7.27732C0.991211 11.2479 4.21003 14.4667 8.18064 14.4667Z" fill="black" fill-opacity="0.2"/>
<path d="M10.4136 4.55859C10.3164 4.55859 10.2213 4.58743 10.1404 4.64147C10.0596 4.6955 9.99653 4.77231 9.95931 4.86216C9.92209 4.95202 9.91235 5.05089 9.93132 5.14628C9.9503 5.24167 9.99713 5.3293 10.0659 5.39807C10.1347 5.46684 10.2223 5.51367 10.3177 5.53265C10.4131 5.55162 10.512 5.54188 10.6018 5.50466C10.6917 5.46744 10.7685 5.40442 10.8225 5.32355C10.8765 5.24268 10.9054 5.14761 10.9054 5.05035C10.9054 4.91993 10.8536 4.79485 10.7613 4.70262C10.6691 4.6104 10.544 4.55859 10.4136 4.55859Z" fill="white"/>
<path d="M8.21511 5.20234C7.80287 5.20137 7.39963 5.32292 7.0566 5.55155C6.71357 5.78018 6.4462 6.10559 6.28845 6.48645C6.1307 6.86732 6.08968 7.28647 6.17058 7.6907C6.25149 8.09492 6.45068 8.46599 6.74288 8.7568C7.03507 9.04761 7.40708 9.24503 7.81169 9.32402C8.21629 9.40301 8.63524 9.35999 9.01535 9.20043C9.39547 9.04087 9.7196 8.77197 9.9466 8.42785C10.1736 8.08374 10.2932 7.67993 10.2903 7.2677C10.2864 6.71943 10.0662 6.19486 9.67761 5.80809C9.28899 5.42132 8.76339 5.20362 8.21511 5.20234ZM8.21511 8.61019C7.95133 8.61116 7.69319 8.53383 7.47339 8.38799C7.25359 8.24215 7.08202 8.03436 6.9804 7.79094C6.87878 7.54751 6.85169 7.27941 6.90255 7.02058C6.95342 6.76174 7.07995 6.52383 7.26613 6.33696C7.4523 6.15009 7.68975 6.02268 7.94839 5.97086C8.20703 5.91904 8.47523 5.94515 8.71903 6.04586C8.96283 6.14658 9.17125 6.31739 9.3179 6.53665C9.46456 6.7559 9.54284 7.01375 9.54284 7.27754C9.53899 7.62802 9.39771 7.96299 9.1494 8.21037C8.9011 8.45776 8.5656 8.5978 8.21511 8.60035V8.61019Z" fill="white"/>
<path d="M9.86292 11.4873H6.49933C5.82806 11.486 5.18465 11.2187 4.70999 10.7441C4.23533 10.2694 3.9681 9.62601 3.9668 8.95475V5.58624C3.9681 4.91497 4.23533 4.27157 4.70999 3.79691C5.18465 3.32225 5.82806 3.05501 6.49933 3.05371H9.86292C10.5342 3.05501 11.1776 3.32225 11.6522 3.79691C12.1269 4.27157 12.3941 4.91497 12.3954 5.58624V8.95475C12.3941 9.62601 12.1269 10.2694 11.6522 10.7441C11.1776 11.2187 10.5342 11.486 9.86292 11.4873ZM6.49933 3.84543C6.03803 3.84673 5.59601 4.03055 5.26982 4.35674C4.94364 4.68292 4.75982 5.12495 4.75852 5.58624V8.95475C4.75982 9.41558 4.9438 9.8571 5.27013 10.1825C5.59645 10.5079 6.03849 10.6906 6.49933 10.6906H9.86292C10.3238 10.6906 10.7658 10.5079 11.0921 10.1825C11.4184 9.8571 11.6024 9.41558 11.6037 8.95475V5.58624C11.6024 5.12495 11.4186 4.68292 11.0924 4.35674C10.7662 4.03055 10.3242 3.84673 9.86292 3.84543H6.49933Z" fill="white"/>
<defs>
<linearGradient id="paint0_linear_104_1104" x1="13.2654" y1="2.19259" x2="3.09591" y2="12.362" gradientUnits="userSpaceOnUse">
<stop stop-color="#FBE18A"/>
<stop offset="0.21" stop-color="#FCBB45"/>
<stop offset="0.38" stop-color="#F75274"/>
<stop offset="0.52" stop-color="#D53692"/>
<stop offset="0.74" stop-color="#8F39CE"/>
<stop offset="1" stop-color="#5B4FE9"/>
</linearGradient>
</defs>
</svg>
