<svg width="15" height="15" viewBox="0 0 15 15" fill="none" xmlns="http://www.w3.org/2000/svg">
<path d="M7.63474 14.4667C11.6054 14.4667 14.8242 11.2479 14.8242 7.27732C14.8242 3.30671 11.6054 0.0878906 7.63474 0.0878906C3.66413 0.0878906 0.445312 3.30671 0.445312 7.27732C0.445312 11.2479 3.66413 14.4667 7.63474 14.4667Z" fill="url(#paint0_linear_104_1115)"/>
<path d="M11.6076 4.81384C11.3545 4.9227 11.0884 4.99872 10.8159 5.04004C10.9438 5.04004 11.1306 4.78925 11.2044 4.69582C11.3234 4.55032 11.4136 4.3834 11.47 4.20406C11.47 4.20406 11.47 4.17456 11.47 4.16472C11.464 4.16127 11.4572 4.15945 11.4503 4.15945C11.4434 4.15945 11.4366 4.16127 11.4306 4.16472C11.1324 4.32397 10.8151 4.4446 10.4864 4.52371C10.4767 4.52932 10.4657 4.53227 10.4545 4.53227C10.4433 4.53227 10.4322 4.52932 10.4225 4.52371C10.3989 4.49352 10.3725 4.46553 10.3438 4.4401C10.2064 4.32541 10.0522 4.23253 9.88651 4.16472C9.66558 4.07367 9.42659 4.03496 9.18822 4.05162C8.95627 4.06667 8.73009 4.13033 8.52436 4.23849C8.3137 4.3473 8.12852 4.49955 7.98102 4.68519C7.83353 4.87083 7.72708 5.08563 7.6687 5.31543C7.62445 5.53781 7.62445 5.76674 7.6687 5.98913C7.6687 6.02847 7.6687 6.03339 7.63428 6.02847C6.38971 5.90105 5.23754 5.31357 4.40346 4.3811C4.36904 4.34176 4.34937 4.34176 4.31495 4.3811C4.14754 4.69136 4.08441 5.04726 4.13489 5.39617C4.18537 5.74509 4.34677 6.0685 4.59525 6.3186C4.65918 6.37761 4.7231 6.43662 4.79195 6.49072C4.57626 6.47373 4.36588 6.41529 4.17234 6.3186C4.133 6.3186 4.11333 6.3186 4.10841 6.34811C4.10373 6.41031 4.10373 6.47277 4.10841 6.53497C4.14572 6.82527 4.25968 7.10038 4.43859 7.33201C4.6175 7.56364 4.85489 7.74343 5.12634 7.85287C5.19185 7.88376 5.26137 7.90528 5.33288 7.9168C5.13123 7.95298 4.92475 7.95298 4.7231 7.9168C4.67884 7.9168 4.65917 7.9168 4.67884 7.97581C4.78361 8.24911 4.95653 8.49109 5.18118 8.67872C5.40582 8.86636 5.67472 8.99342 5.96232 9.04783C6.02133 9.04783 6.08034 9.04783 6.13935 9.04783C6.13935 9.04783 6.19836 9.04783 6.13935 9.04783C5.88858 9.27323 5.58633 9.43364 5.25912 9.51499C4.83247 9.66763 4.37789 9.72634 3.92646 9.68711C3.85762 9.68711 3.84287 9.68711 3.8232 9.68711C3.80353 9.68711 3.8232 9.71661 3.8232 9.73137C3.91208 9.79175 4.004 9.84756 4.09858 9.89856C4.38176 10.0481 4.68016 10.1668 4.98865 10.2526C5.78372 10.4924 6.62783 10.5192 7.43649 10.3302C8.24515 10.1412 8.98996 9.74306 9.59637 9.17569C10.0289 8.70857 10.3646 8.16039 10.584 7.56281C10.8035 6.96522 10.9023 6.33009 10.8749 5.69408C10.8749 5.6449 10.9339 5.6154 10.9733 5.59081C11.2118 5.40395 11.4222 5.18367 11.5978 4.93678C11.6273 4.90269 11.643 4.85888 11.6421 4.81384C11.6421 4.81384 11.6421 4.79908 11.6076 4.81384Z" fill="white"/>
<defs>
<linearGradient id="paint0_linear_104_1115" x1="12.7195" y1="2.19259" x2="2.55002" y2="12.362" gradientUnits="userSpaceOnUse">
<stop stop-color="#33CCFF"/>
<stop offset="1" stop-color="#337FFF"/>
</linearGradient>
</defs>
</svg>
