<svg width="444" height="93" viewBox="0 0 444 93" fill="none" xmlns="http://www.w3.org/2000/svg">
<path d="M0 8C0 3.58172 3.58172 0 8 0H436C440.418 0 444 3.58172 444 8V15H0V8Z" fill="url(#paint0_linear_776_1963)"/>
<path d="M0 85C0 89.4183 3.58172 93 8 93H436C440.418 93 444 89.4183 444 85V75H0V85Z" fill="url(#paint1_linear_776_1963)"/>
<path d="M377.135 70.7195H371.035V65.9195H377.135V70.7195Z" fill="#CCCCCC"/>
<path d="M188.405 73.8526L185.705 72.8276L188.255 65.5776L191.155 66.6526L188.405 73.8526Z" fill="#CCCCCC"/>
<path d="M240.169 14.7559H191.427C190.686 14.7559 190.086 15.3608 190.086 16.1071V80.922C190.086 81.6683 190.686 82.2733 191.427 82.2733H240.169C240.909 82.2733 241.509 81.6683 241.509 80.922V16.1071C241.509 15.3608 240.909 14.7559 240.169 14.7559Z" fill="black"/>
<path d="M192.767 54.4452V41.7524H194.364C194.505 41.7562 194.639 41.8154 194.738 41.9174C194.836 42.0195 194.891 42.1563 194.891 42.2987V53.9134C194.888 54.0533 194.831 54.1864 194.733 54.2854C194.635 54.3844 194.503 54.4416 194.364 54.4452H192.767Z" fill="url(#paint2_linear_776_1963)"/>
<path d="M195.447 42.2975V47.4292C195.451 47.5692 195.508 47.7023 195.606 47.8013C195.704 47.9003 195.836 47.9575 195.975 47.9611H235.621C235.761 47.9611 235.895 47.9051 235.994 47.8053C236.093 47.7056 236.149 47.5703 236.149 47.4292V42.2975C236.149 42.0116 236.262 41.7374 236.462 41.5352C236.663 41.333 236.935 41.2194 237.218 41.2194H238.302C238.443 41.2157 238.577 41.1565 238.675 41.0544C238.774 40.9524 238.829 40.8156 238.829 40.6732V18.2632C238.829 18.0484 238.745 17.8421 238.596 17.6888C238.447 17.5356 238.244 17.4476 238.031 17.4438H193.565C193.352 17.4476 193.149 17.5356 193 17.6888C192.851 17.8421 192.767 18.0484 192.767 18.2632V40.6732C192.767 40.8156 192.822 40.9524 192.921 41.0544C193.019 41.1565 193.153 41.2157 193.295 41.2194H194.364C194.505 41.2175 194.646 41.244 194.777 41.2973C194.909 41.3506 195.028 41.4297 195.129 41.53C195.23 41.6303 195.31 41.7499 195.365 41.8816C195.419 42.0133 195.447 42.1547 195.447 42.2975Z" fill="url(#paint3_linear_776_1963)"/>
<path d="M195.447 54.1853V49.0392C195.451 48.8993 195.508 48.7661 195.606 48.6671C195.704 48.5682 195.836 48.511 195.975 48.5073H235.622C235.761 48.5073 235.896 48.5634 235.995 48.6631C236.093 48.7628 236.149 48.8981 236.149 49.0392V54.1853C236.153 54.47 236.267 54.7421 236.466 54.9435C236.666 55.1448 236.936 55.2596 237.218 55.2634H238.302C238.442 55.2634 238.576 55.3194 238.675 55.4192C238.774 55.5189 238.829 55.6542 238.829 55.7952V78.2052C238.831 78.3121 238.812 78.4184 238.773 78.5177C238.733 78.617 238.675 78.7075 238.6 78.7837C238.526 78.86 238.437 78.9206 238.34 78.9619C238.242 79.0033 238.137 79.0245 238.031 79.0245H193.566C193.459 79.0245 193.354 79.0033 193.257 78.9619C193.159 78.9206 193.07 78.86 192.996 78.7837C192.922 78.7075 192.863 78.617 192.824 78.5177C192.785 78.4184 192.765 78.3121 192.767 78.2052V55.7952C192.767 55.6542 192.823 55.5189 192.922 55.4192C193.021 55.3194 193.155 55.2634 193.295 55.2634H194.364C194.649 55.2634 194.922 55.1503 195.125 54.9485C195.328 54.7467 195.444 54.4725 195.447 54.1853Z" fill="black"/>
<path d="M239.271 54.7592V42.0664H237.66C237.519 42.0702 237.385 42.1294 237.286 42.2314C237.188 42.3334 237.132 42.4702 237.133 42.6126V54.2273C237.136 54.3672 237.193 54.5004 237.291 54.5994C237.389 54.6983 237.521 54.7555 237.66 54.7592H239.271Z" fill="url(#paint4_linear_776_1963)"/>
<path d="M170.692 53.9978C170.726 55.8916 170.377 57.7723 169.668 59.5221C169.03 61.0841 168.058 62.4801 166.823 63.6071C165.514 64.7431 163.995 65.5984 162.357 66.1221C160.517 66.7183 158.597 67.0127 156.667 66.9944C155.553 66.9959 154.441 66.9133 153.339 66.7472C152.377 66.6044 151.426 66.3906 150.494 66.1076C149.805 65.9139 149.13 65.671 148.474 65.3807C148.113 65.2416 147.773 65.0508 147.464 64.8138C147.339 64.7055 147.238 64.5718 147.166 64.4212C147.095 64.2868 147.038 64.1456 146.995 63.9997C146.941 63.7854 146.908 63.5663 146.895 63.3455C146.895 63.0983 146.895 62.7785 146.895 62.4296C146.879 62.1245 146.879 61.8188 146.895 61.5137C146.915 61.2889 146.968 61.0684 147.052 60.8595C147.116 60.712 147.213 60.5823 147.336 60.4815C147.445 60.4047 147.574 60.3641 147.706 60.3653C148.031 60.4121 148.34 60.5421 148.602 60.7432C149.135 61.0456 149.686 61.3127 150.252 61.5428C151.09 61.8803 151.951 62.1571 152.827 62.3714C154.022 62.6398 155.244 62.7667 156.468 62.7494C157.682 62.7591 158.893 62.6026 160.067 62.2842C161.101 62.0011 162.069 61.5066 162.911 60.8304C163.713 60.1314 164.349 59.2569 164.775 58.2719C165.25 57.0827 165.478 55.8053 165.443 54.5211C165.467 53.4031 165.273 52.2915 164.874 51.2502C164.502 50.3184 163.893 49.5053 163.11 48.8951C162.224 48.2051 161.207 47.7102 160.124 47.4414C158.724 47.1145 157.292 46.9583 155.856 46.9761C154.829 46.9629 153.802 47.0261 152.784 47.1651C151.992 47.2765 151.194 47.3348 150.394 47.3396C150.182 47.3608 149.967 47.3369 149.764 47.2694C149.561 47.2018 149.374 47.0921 149.214 46.9471C148.947 46.5141 148.827 46.0031 148.873 45.4933V29.7201C148.85 29.459 148.879 29.196 148.957 28.9465C149.035 28.6969 149.161 28.4657 149.328 28.2663C149.499 28.0981 149.702 27.9685 149.925 27.8858C150.148 27.8032 150.385 27.7694 150.622 27.7866H167.363C167.524 27.787 167.681 27.8323 167.819 27.9174C167.973 28.0197 168.1 28.1595 168.188 28.3245C168.299 28.5371 168.372 28.7687 168.402 29.0077C168.457 29.3341 168.481 29.6652 168.473 29.9963C168.501 30.5669 168.408 31.137 168.203 31.6681C168.147 31.8373 168.043 31.9851 167.903 32.0916C167.763 32.1982 167.595 32.2584 167.42 32.2641H153.894V43.1091C154.562 43.0059 155.237 42.9476 155.913 42.9347H158.289C160.138 42.901 161.982 43.166 163.751 43.7197C165.19 44.1767 166.518 44.9397 167.648 45.9585C168.691 46.9281 169.5 48.1326 170.009 49.4766C170.516 50.9256 170.748 52.4601 170.692 53.9978Z" fill="#CCCCCC"/>
<path d="M184.082 14.7559H135.34C134.6 14.7559 134 15.3608 134 16.1071V80.922C134 81.6683 134.6 82.2733 135.34 82.2733H184.082C184.822 82.2733 185.422 81.6683 185.422 80.922V16.1071C185.422 15.3608 184.822 14.7559 184.082 14.7559Z" fill="black"/>
<path d="M136.68 54.4452V41.7524H138.276C138.418 41.7562 138.552 41.8154 138.65 41.9174C138.749 42.0195 138.804 42.1563 138.804 42.2987V53.9134C138.8 54.0533 138.744 54.1864 138.645 54.2854C138.547 54.3844 138.415 54.4416 138.276 54.4452H136.68Z" fill="url(#paint5_linear_776_1963)"/>
<path d="M139.36 42.2975V47.4292C139.363 47.5692 139.42 47.7023 139.518 47.8013C139.616 47.9003 139.749 47.9575 139.887 47.9611H179.534C179.674 47.9611 179.808 47.9051 179.907 47.8053C180.006 47.7056 180.061 47.5703 180.061 47.4292V42.2975C180.061 42.0116 180.174 41.7374 180.375 41.5352C180.575 41.333 180.847 41.2194 181.131 41.2194H182.214C182.355 41.2157 182.49 41.1565 182.588 41.0544C182.687 40.9524 182.742 40.8156 182.742 40.6732V18.2632C182.742 18.0484 182.658 17.8421 182.509 17.6888C182.359 17.5356 182.156 17.4476 181.943 17.4438H137.478C137.265 17.4476 137.062 17.5356 136.913 17.6888C136.763 17.8421 136.68 18.0484 136.68 18.2632V40.6732C136.68 40.8156 136.735 40.9524 136.833 41.0544C136.932 41.1565 137.066 41.2157 137.207 41.2194H138.276C138.418 41.2175 138.559 41.244 138.69 41.2973C138.821 41.3506 138.941 41.4297 139.042 41.53C139.142 41.6303 139.222 41.7499 139.277 41.8816C139.332 42.0133 139.36 42.1547 139.36 42.2975Z" fill="url(#paint6_linear_776_1963)"/>
<path d="M139.36 54.1853V49.0392C139.364 48.8993 139.42 48.7661 139.518 48.6671C139.617 48.5682 139.749 48.511 139.887 48.5073H179.534C179.674 48.5073 179.808 48.5634 179.907 48.6631C180.006 48.7628 180.062 48.8981 180.062 49.0392V54.1853C180.065 54.47 180.179 54.7421 180.379 54.9435C180.579 55.1448 180.848 55.2596 181.131 55.2634H182.214C182.354 55.2634 182.488 55.3194 182.587 55.4192C182.686 55.5189 182.742 55.6542 182.742 55.7952V78.2052C182.744 78.3121 182.724 78.4184 182.685 78.5177C182.646 78.617 182.587 78.7075 182.513 78.7837C182.439 78.86 182.35 78.9206 182.252 78.9619C182.154 79.0033 182.049 79.0245 181.943 79.0245H137.478C137.372 79.0245 137.267 79.0033 137.169 78.9619C137.071 78.9206 136.983 78.86 136.909 78.7837C136.834 78.7075 136.776 78.617 136.736 78.5177C136.697 78.4184 136.678 78.3121 136.68 78.2052V55.7952C136.68 55.6542 136.735 55.5189 136.834 55.4192C136.933 55.3194 137.067 55.2634 137.207 55.2634H138.276C138.561 55.2634 138.835 55.1503 139.038 54.9485C139.24 54.7467 139.356 54.4725 139.36 54.1853Z" fill="black"/>
<path d="M183.185 54.7592V42.0664H181.574C181.432 42.0702 181.298 42.1294 181.2 42.2314C181.101 42.3334 181.046 42.4702 181.046 42.6126V54.2273C181.05 54.3672 181.106 54.5004 181.205 54.5994C181.303 54.6983 181.435 54.7555 181.574 54.7592H183.185Z" fill="url(#paint7_linear_776_1963)"/>
<path d="M174.013 55.4384C174.034 55.9722 173.937 56.5041 173.728 56.9939C173.659 57.16 173.545 57.302 173.398 57.4026C173.252 57.5033 173.08 57.5583 172.903 57.5609H168.636V65.6873C168.639 65.8271 168.6 65.9644 168.522 66.0799C168.407 66.2127 168.26 66.3128 168.096 66.3706C167.841 66.4548 167.579 66.5133 167.313 66.5451C166.901 66.5711 166.488 66.5711 166.076 66.5451C165.673 66.5708 165.27 66.5708 164.867 66.5451C164.606 66.5135 164.349 66.455 164.099 66.3706C163.946 66.3131 163.813 66.2122 163.715 66.0799C163.642 65.9631 163.607 65.8257 163.615 65.6873V57.5609H148.14C147.942 57.5672 147.745 57.5376 147.557 57.4736C147.391 57.3981 147.244 57.2836 147.13 57.1393C146.999 56.9324 146.912 56.6996 146.874 56.456C146.824 56.0705 146.8 55.6819 146.803 55.293C146.803 54.915 146.803 54.5661 146.803 54.2754C146.816 53.9962 146.854 53.7188 146.917 53.4467C146.977 53.2045 147.053 52.9666 147.144 52.7344C147.248 52.4851 147.367 52.2423 147.5 52.0075L161.027 28.5148C161.136 28.3474 161.282 28.2081 161.453 28.1078C161.681 27.9732 161.925 27.8705 162.179 27.8025C162.544 27.7176 162.915 27.6641 163.288 27.6426C163.729 27.6426 164.241 27.6426 164.839 27.6426C165.408 27.6339 165.978 27.6582 166.545 27.7152C166.943 27.7491 167.337 27.8123 167.726 27.9042C167.972 27.9635 168.204 28.0722 168.409 28.2241C168.482 28.2767 168.542 28.3462 168.584 28.4271C168.626 28.5079 168.649 28.5978 168.65 28.6893V53.4031H172.918C173.086 53.4078 173.251 53.4589 173.393 53.551C173.536 53.6431 173.652 53.7728 173.728 53.9265C173.94 54.4001 174.037 54.9185 174.013 55.4384ZM163.615 32.1783L151.468 53.3886H163.686L163.615 32.1783Z" fill="#CCCCCC"/>
<path d="M128.165 14.7559H79.4225C78.6823 14.7559 78.0824 15.3608 78.0824 16.1071V80.922C78.0824 81.6683 78.6823 82.2733 79.4225 82.2733H128.165C128.905 82.2733 129.505 81.6683 129.505 80.922V16.1071C129.505 15.3608 128.905 14.7559 128.165 14.7559Z" fill="black"/>
<path d="M80.762 54.4452V41.7524H82.3587C82.4999 41.7562 82.6341 41.8154 82.7326 41.9174C82.8311 42.0195 82.8863 42.1563 82.8862 42.2987V53.9134C82.8826 54.0533 82.8259 54.1864 82.7277 54.2854C82.6296 54.3844 82.4975 54.4416 82.3587 54.4452H80.762Z" fill="url(#paint8_linear_776_1963)"/>
<path d="M83.4422 42.2975V47.4292C83.4458 47.5692 83.5025 47.7023 83.6007 47.8013C83.6988 47.9003 83.8309 47.9575 83.9697 47.9611H123.616C123.756 47.9611 123.89 47.9051 123.989 47.8053C124.088 47.7056 124.144 47.5703 124.144 47.4292V42.2975C124.144 42.0116 124.257 41.7374 124.457 41.5352C124.658 41.333 124.93 41.2194 125.213 41.2194H126.297C126.438 41.2157 126.572 41.1565 126.67 41.0544C126.769 40.9524 126.824 40.8156 126.824 40.6732V18.2632C126.824 18.0484 126.74 17.8421 126.591 17.6888C126.442 17.5356 126.239 17.4476 126.026 17.4438H81.5604C81.3473 17.4476 81.1443 17.5356 80.995 17.6888C80.8456 17.8421 80.762 18.0484 80.762 18.2632V40.6732C80.762 40.8156 80.8171 40.9524 80.9156 41.0544C81.0142 41.1565 81.1483 41.2157 81.2895 41.2194H82.3587C82.5003 41.2175 82.6409 41.244 82.7723 41.2973C82.9037 41.3506 83.0232 41.4297 83.124 41.53C83.2248 41.6303 83.3049 41.7499 83.3595 41.8816C83.4141 42.0133 83.4422 42.1547 83.4422 42.2975Z" fill="url(#paint9_linear_776_1963)"/>
<path d="M83.4423 54.1853V49.0392C83.4459 48.8993 83.5027 48.7661 83.6008 48.6671C83.699 48.5682 83.8311 48.511 83.9698 48.5073H123.616C123.756 48.5073 123.891 48.5634 123.989 48.6631C124.088 48.7628 124.144 48.8981 124.144 49.0392V54.1853C124.148 54.47 124.262 54.7421 124.461 54.9435C124.661 55.1448 124.931 55.2596 125.213 55.2634H126.297C126.437 55.2634 126.571 55.3194 126.67 55.4192C126.769 55.5189 126.824 55.6542 126.824 55.7952V78.2052C126.826 78.3121 126.807 78.4184 126.768 78.5177C126.728 78.617 126.67 78.7075 126.595 78.7837C126.521 78.86 126.432 78.9206 126.335 78.9619C126.237 79.0033 126.132 79.0245 126.026 79.0245H81.5605C81.4545 79.0245 81.3495 79.0033 81.2517 78.9619C81.1539 78.9206 81.0652 78.86 80.9909 78.7837C80.9166 78.7075 80.8581 78.617 80.8188 78.5177C80.7795 78.4184 80.7603 78.3121 80.7622 78.2052V55.7952C80.7622 55.6542 80.8177 55.5189 80.9166 55.4192C81.0156 55.3194 81.1497 55.2634 81.2896 55.2634H82.3589C82.6438 55.2634 82.9172 55.1503 83.12 54.9485C83.3228 54.7467 83.4386 54.4725 83.4423 54.1853Z" fill="black"/>
<path d="M127.267 54.7592V42.0664H125.656C125.515 42.0702 125.381 42.1294 125.282 42.2314C125.184 42.3334 125.128 42.4702 125.128 42.6126V54.2273C125.132 54.3672 125.189 54.5004 125.287 54.5994C125.385 54.6983 125.517 54.7555 125.656 54.7592H127.267Z" fill="url(#paint10_linear_776_1963)"/>
<path d="M118.095 55.4384C118.117 55.9722 118.019 56.5041 117.811 56.9939C117.742 57.16 117.627 57.302 117.481 57.4026C117.334 57.5033 117.162 57.5583 116.986 57.5609H112.719V65.6873C112.722 65.8271 112.682 65.9644 112.605 66.0799C112.489 66.2127 112.342 66.3128 112.178 66.3706C111.924 66.4548 111.662 66.5133 111.396 66.5451C110.984 66.5711 110.57 66.5711 110.158 66.5451C109.756 66.5708 109.352 66.5708 108.949 66.5451C108.688 66.5135 108.431 66.455 108.181 66.3706C108.029 66.3131 107.896 66.2122 107.797 66.0799C107.724 65.9631 107.689 65.8257 107.698 65.6873V57.5609H92.2223C92.0244 57.5672 91.8269 57.5376 91.6391 57.4736C91.4731 57.3981 91.3268 57.2836 91.2124 57.1393C91.0811 56.9324 90.9939 56.6996 90.9564 56.456C90.9063 56.0705 90.8825 55.6819 90.8852 55.293C90.8852 54.915 90.8852 54.5661 90.8852 54.2754C90.8982 53.9962 90.9363 53.7188 90.999 53.4467C91.0598 53.2045 91.1359 52.9666 91.2266 52.7344C91.3308 52.4851 91.4496 52.2423 91.5822 52.0075L105.109 28.5148C105.219 28.3474 105.365 28.2081 105.536 28.1078C105.763 27.9732 106.007 27.8705 106.261 27.8025C106.626 27.7176 106.997 27.6641 107.371 27.6426C107.811 27.6426 108.324 27.6426 108.921 27.6426C109.491 27.6339 110.061 27.6582 110.628 27.7152C111.025 27.7491 111.42 27.8123 111.808 27.9042C112.054 27.9635 112.286 28.0722 112.491 28.2241C112.564 28.2767 112.624 28.3462 112.666 28.4271C112.708 28.5079 112.731 28.5978 112.733 28.6893V53.4031H117C117.169 53.4078 117.333 53.4589 117.476 53.551C117.618 53.6431 117.734 53.7728 117.811 53.9265C118.022 54.4001 118.119 54.9185 118.095 55.4384ZM107.698 32.1783L95.5506 53.3886H107.769L107.698 32.1783Z" fill="#CCCCCC"/>
<path d="M72.0823 15H23.3401C22.6 15 22 15.605 22 16.3512V81.1662C22 81.9124 22.6 82.5174 23.3401 82.5174H72.0823C72.8224 82.5174 73.4224 81.9124 73.4224 81.1662V16.3512C73.4224 15.605 72.8224 15 72.0823 15Z" fill="black"/>
<path d="M24.6796 54.4452V41.7524H26.2763C26.4175 41.7562 26.5517 41.8154 26.6502 41.9174C26.7487 42.0195 26.8039 42.1563 26.8038 42.2987V53.9134C26.8002 54.0533 26.7435 54.1864 26.6453 54.2854C26.5472 54.3844 26.4151 54.4416 26.2763 54.4452H24.6796Z" fill="url(#paint11_linear_776_1963)"/>
<path d="M27.3598 42.2975V47.4292C27.3634 47.5692 27.4201 47.7023 27.5183 47.8013C27.6164 47.9003 27.7485 47.9575 27.8873 47.9611H67.534C67.6739 47.9611 67.808 47.9051 67.907 47.8053C68.0059 47.7056 68.0615 47.5703 68.0615 47.4292V42.2975C68.0615 42.0116 68.1741 41.7374 68.3746 41.5352C68.5751 41.333 68.8471 41.2194 69.1307 41.2194H70.2142C70.3553 41.2157 70.4895 41.1565 70.588 41.0544C70.6866 40.9524 70.7417 40.8156 70.7416 40.6732V18.2632C70.7417 18.0484 70.658 17.8421 70.5087 17.6888C70.3594 17.5356 70.1563 17.4476 69.9433 17.4438H25.478C25.2649 17.4476 25.0619 17.5356 24.9126 17.6888C24.7632 17.8421 24.6796 18.0484 24.6796 18.2632V40.6732C24.6796 40.8156 24.7347 40.9524 24.8332 41.0544C24.9318 41.1565 25.0659 41.2157 25.2071 41.2194H26.2763C26.4179 41.2175 26.5585 41.244 26.6899 41.2973C26.8213 41.3506 26.9408 41.4297 27.0416 41.53C27.1424 41.6303 27.2225 41.7499 27.2771 41.8816C27.3317 42.0133 27.3598 42.1547 27.3598 42.2975Z" fill="url(#paint12_linear_776_1963)"/>
<path d="M27.3599 54.1853V49.0392C27.3635 48.8993 27.4203 48.7661 27.5184 48.6671C27.6166 48.5682 27.7487 48.511 27.8874 48.5073H67.5341C67.674 48.5073 67.8082 48.5634 67.9071 48.6631C68.006 48.7628 68.0616 48.8981 68.0616 49.0392V54.1853C68.0653 54.47 68.1791 54.7421 68.3788 54.9435C68.5786 55.1448 68.8484 55.2596 69.1308 55.2634H70.2143C70.3542 55.2634 70.4883 55.3194 70.5873 55.4192C70.6862 55.5189 70.7418 55.6542 70.7418 55.7952V78.2052C70.7437 78.3121 70.7244 78.4184 70.6851 78.5177C70.6459 78.617 70.5874 78.7075 70.513 78.7837C70.4387 78.86 70.3501 78.9206 70.2523 78.9619C70.1545 79.0033 70.0495 79.0245 69.9434 79.0245H25.4781C25.3721 79.0245 25.2671 79.0033 25.1693 78.9619C25.0715 78.9206 24.9828 78.86 24.9085 78.7837C24.8342 78.7075 24.7757 78.617 24.7364 78.5177C24.6971 78.4184 24.6779 78.3121 24.6798 78.2052V55.7952C24.6798 55.6542 24.7353 55.5189 24.8343 55.4192C24.9332 55.3194 25.0673 55.2634 25.2072 55.2634H26.2765C26.5614 55.2634 26.8348 55.1503 27.0376 54.9485C27.2404 54.7467 27.3562 54.4725 27.3599 54.1853Z" fill="black"/>
<path d="M71.1846 54.7592V42.0664H69.5736C69.4324 42.0702 69.2983 42.1294 69.1997 42.2314C69.1012 42.3334 69.0461 42.4702 69.0461 42.6126V54.2273C69.0497 54.3672 69.1065 54.5004 69.2046 54.5994C69.3028 54.6983 69.4349 54.7555 69.5736 54.7592H71.1846Z" fill="url(#paint13_linear_776_1963)"/>
<path d="M45.8 63L38.6 50.44V47.48H41C41.96 47.48 42.8 47.3467 43.52 47.08C44.2667 46.7867 44.88 46.3733 45.36 45.84C45.8667 45.3067 46.2133 44.6667 46.4 43.92H38.6V40.96H46.36C46.2 40.2667 45.92 39.6533 45.52 39.12C45.1467 38.5867 44.64 38.1733 44 37.88C43.3867 37.56 42.64 37.4 41.76 37.4H38.6V34.44H56.64V37.4H50.36C50.8133 37.9067 51.1867 38.4533 51.48 39.04C51.8 39.6267 52.0133 40.2667 52.12 40.96H56.64V43.92H52.2C51.9333 45.8933 51.1733 47.44 49.92 48.56C48.6667 49.6533 47.0533 50.4 45.08 50.8L52.92 63H45.8Z" fill="#CCCCCC"/>
<path d="M242.634 14.7559H193.891C193.151 14.7559 192.551 15.3608 192.551 16.1071V80.922C192.551 81.6683 193.151 82.2733 193.891 82.2733H242.634C243.374 82.2733 243.974 81.6683 243.974 80.922V16.1071C243.974 15.3608 243.374 14.7559 242.634 14.7559Z" fill="black"/>
<path d="M195.232 54.4452V41.7524H196.829C196.97 41.7562 197.104 41.8154 197.203 41.9174C197.301 42.0195 197.356 42.1563 197.356 42.2987V53.9134C197.353 54.0533 197.296 54.1864 197.198 54.2854C197.1 54.3844 196.967 54.4416 196.829 54.4452H195.232Z" fill="url(#paint14_linear_776_1963)"/>
<path d="M197.912 42.2975V47.4292C197.916 47.5692 197.973 47.7023 198.071 47.8013C198.169 47.9003 198.301 47.9575 198.44 47.9611H238.086C238.226 47.9611 238.36 47.9051 238.459 47.8053C238.558 47.7056 238.614 47.5703 238.614 47.4292V42.2975C238.614 42.0116 238.726 41.7374 238.927 41.5352C239.128 41.333 239.399 41.2194 239.683 41.2194H240.767C240.908 41.2157 241.042 41.1565 241.14 41.0544C241.239 40.9524 241.294 40.8156 241.294 40.6732V18.2632C241.294 18.0484 241.21 17.8421 241.061 17.6888C240.912 17.5356 240.709 17.4476 240.496 17.4438H196.03C195.817 17.4476 195.614 17.5356 195.465 17.6888C195.316 17.8421 195.232 18.0484 195.232 18.2632V40.6732C195.232 40.8156 195.287 40.9524 195.386 41.0544C195.484 41.1565 195.618 41.2157 195.759 41.2194H196.829C196.97 41.2175 197.111 41.244 197.242 41.2973C197.374 41.3506 197.493 41.4297 197.594 41.53C197.695 41.6303 197.775 41.7499 197.829 41.8816C197.884 42.0133 197.912 42.1547 197.912 42.2975Z" fill="url(#paint15_linear_776_1963)"/>
<path d="M197.912 54.1853V49.0392C197.916 48.8993 197.973 48.7661 198.071 48.6671C198.169 48.5682 198.301 48.511 198.44 48.5073H238.086C238.226 48.5073 238.361 48.5634 238.459 48.6631C238.558 48.7628 238.614 48.8981 238.614 49.0392V54.1853C238.618 54.47 238.731 54.7421 238.931 54.9435C239.131 55.1448 239.401 55.2596 239.683 55.2634H240.767C240.907 55.2634 241.041 55.3194 241.14 55.4192C241.239 55.5189 241.294 55.6542 241.294 55.7952V78.2052C241.296 78.3121 241.277 78.4184 241.237 78.5177C241.198 78.617 241.14 78.7075 241.065 78.7837C240.991 78.86 240.902 78.9206 240.805 78.9619C240.707 79.0033 240.602 79.0245 240.496 79.0245H196.03C195.924 79.0245 195.819 79.0033 195.722 78.9619C195.624 78.9206 195.535 78.86 195.461 78.7837C195.387 78.7075 195.328 78.617 195.289 78.5177C195.249 78.4184 195.23 78.3121 195.232 78.2052V55.7952C195.232 55.6542 195.288 55.5189 195.387 55.4192C195.486 55.3194 195.62 55.2634 195.76 55.2634H196.829C197.114 55.2634 197.387 55.1503 197.59 54.9485C197.793 54.7467 197.909 54.4725 197.912 54.1853Z" fill="black"/>
<path d="M241.736 54.7592V42.0664H240.125C239.984 42.0702 239.85 42.1294 239.751 42.2314C239.653 42.3334 239.597 42.4702 239.597 42.6126V54.2273C239.601 54.3672 239.658 54.5004 239.756 54.5994C239.854 54.6983 239.986 54.7555 240.125 54.7592H241.736Z" fill="url(#paint16_linear_776_1963)"/>
<path d="M231.229 64.2206C231.254 64.5399 231.254 64.8608 231.229 65.1801C231.184 65.4201 231.112 65.6541 231.016 65.8779C230.946 66.0502 230.827 66.1971 230.674 66.2995C230.527 66.385 230.36 66.4301 230.191 66.4303H209.225C208.979 66.4374 208.734 66.403 208.5 66.3285C208.301 66.2537 208.121 66.1345 207.973 65.9796C207.808 65.7864 207.7 65.5496 207.66 65.2964C207.581 64.9339 207.542 64.5631 207.547 64.1915C207.523 63.843 207.523 63.4933 207.547 63.1448C207.568 62.8702 207.63 62.6005 207.732 62.3452C207.841 62.1071 207.97 61.8786 208.116 61.662C208.291 61.404 208.486 61.1609 208.699 60.9351L216.266 52.9831C217.766 51.4339 219.168 49.7878 220.462 48.0548C221.387 46.8058 222.205 45.478 222.908 44.0861C223.419 43.0549 223.797 41.9603 224.032 40.8297C224.208 39.9248 224.298 39.0047 224.302 38.0821C224.308 37.2528 224.163 36.4297 223.876 35.6543C223.606 34.9029 223.19 34.2154 222.652 33.6336C222.088 33.0316 221.404 32.5606 220.647 32.2525C219.741 31.8897 218.774 31.7167 217.802 31.7437C216.682 31.7301 215.568 31.9019 214.502 32.2525C213.625 32.56 212.769 32.9292 211.942 33.3574C211.202 33.7644 210.519 34.1279 210.107 34.4622C209.788 34.7303 209.405 34.906 208.998 34.971C208.866 34.9704 208.737 34.9299 208.628 34.8547C208.498 34.7574 208.403 34.6196 208.357 34.4622C208.272 34.2329 208.215 33.9936 208.187 33.7498C208.162 33.3917 208.162 33.0322 208.187 32.6741C208.171 32.4175 208.171 32.1602 208.187 31.9036C208.2 31.7115 208.233 31.5214 208.286 31.3367C208.331 31.1796 208.393 31.0283 208.471 30.886C208.602 30.689 208.76 30.5126 208.941 30.3626C209.326 30.0441 209.735 29.7573 210.164 29.5049C210.855 29.0918 211.578 28.7368 212.326 28.4436C213.249 28.0747 214.201 27.783 215.171 27.5714C216.249 27.3222 217.351 27.2003 218.456 27.2079C220.092 27.1741 221.72 27.44 223.264 27.993C224.542 28.4626 225.71 29.2005 226.692 30.1591C227.58 31.0666 228.268 32.1569 228.712 33.3574C229.17 34.5975 229.401 35.9132 229.394 37.2389C229.392 38.4772 229.283 39.7128 229.067 40.9314C228.781 42.317 228.302 43.6535 227.645 44.9002C226.806 46.5823 225.806 48.1748 224.658 49.6539C223.037 51.7609 221.299 53.7705 219.452 55.6725L213.464 62.069H230.091C230.252 62.0716 230.408 62.1167 230.546 62.1999C230.701 62.3021 230.828 62.442 230.916 62.6069C231.035 62.8133 231.117 63.0398 231.158 63.2757C231.206 63.5882 231.23 63.9042 231.229 64.2206Z" fill="#CCCCCC"/>
<path d="M301.187 14.7559H252.445C251.705 14.7559 251.105 15.3608 251.105 16.1071V80.922C251.105 81.6683 251.705 82.2733 252.445 82.2733H301.187C301.927 82.2733 302.527 81.6683 302.527 80.922V16.1071C302.527 15.3608 301.927 14.7559 301.187 14.7559Z" fill="black"/>
<path d="M253.785 54.4452V41.7524H255.382C255.523 41.7562 255.657 41.8154 255.756 41.9174C255.854 42.0195 255.91 42.1563 255.909 42.2987V53.9134C255.906 54.0533 255.849 54.1864 255.751 54.2854C255.653 54.3844 255.521 54.4416 255.382 54.4452H253.785Z" fill="url(#paint17_linear_776_1963)"/>
<path d="M256.465 42.2975V47.4292C256.469 47.5692 256.526 47.7023 256.624 47.8013C256.722 47.9003 256.854 47.9575 256.993 47.9611H296.64C296.78 47.9611 296.914 47.9051 297.013 47.8053C297.112 47.7056 297.167 47.5703 297.167 47.4292V42.2975C297.167 42.0116 297.28 41.7374 297.48 41.5352C297.681 41.333 297.953 41.2194 298.236 41.2194H299.32C299.461 41.2157 299.595 41.1565 299.694 41.0544C299.792 40.9524 299.847 40.8156 299.847 40.6732V18.2632C299.847 18.0484 299.764 17.8421 299.614 17.6888C299.465 17.5356 299.262 17.4476 299.049 17.4438H254.584C254.371 17.4476 254.168 17.5356 254.018 17.6888C253.869 17.8421 253.785 18.0484 253.785 18.2632V40.6732C253.785 40.8156 253.84 40.9524 253.939 41.0544C254.037 41.1565 254.172 41.2157 254.313 41.2194H255.382C255.524 41.2175 255.664 41.244 255.796 41.2973C255.927 41.3506 256.046 41.4297 256.147 41.53C256.248 41.6303 256.328 41.7499 256.383 41.8816C256.437 42.0133 256.466 42.1547 256.465 42.2975Z" fill="url(#paint18_linear_776_1963)"/>
<path d="M256.466 54.1853V49.0392C256.469 48.8993 256.526 48.7661 256.624 48.6671C256.722 48.5682 256.854 48.511 256.993 48.5073H296.64C296.78 48.5073 296.914 48.5634 297.013 48.6631C297.112 48.7628 297.167 48.8981 297.167 49.0392V54.1853C297.171 54.47 297.285 54.7421 297.485 54.9435C297.684 55.1448 297.954 55.2596 298.236 55.2634H299.32C299.46 55.2634 299.594 55.3194 299.693 55.4192C299.792 55.5189 299.847 55.6542 299.847 55.7952V78.2052C299.849 78.3121 299.83 78.4184 299.791 78.5177C299.752 78.617 299.693 78.7075 299.619 78.7837C299.544 78.86 299.456 78.9206 299.358 78.9619C299.26 79.0033 299.155 79.0245 299.049 79.0245H254.584C254.478 79.0245 254.373 79.0033 254.275 78.9619C254.177 78.9206 254.088 78.86 254.014 78.7837C253.94 78.7075 253.881 78.617 253.842 78.5177C253.803 78.4184 253.784 78.3121 253.785 78.2052V55.7952C253.785 55.6542 253.841 55.5189 253.94 55.4192C254.039 55.3194 254.173 55.2634 254.313 55.2634H255.382C255.667 55.2634 255.94 55.1503 256.143 54.9485C256.346 54.7467 256.462 54.4725 256.466 54.1853Z" fill="black"/>
<path d="M300.289 54.7592V42.0664H298.678C298.537 42.0702 298.403 42.1294 298.304 42.2314C298.206 42.3334 298.151 42.4702 298.151 42.6126V54.2273C298.154 54.3672 298.211 54.5004 298.309 54.5994C298.407 54.6983 298.54 54.7555 298.678 54.7592H300.289Z" fill="url(#paint19_linear_776_1963)"/>
<path d="M290.387 47.0072C290.409 49.7319 290.181 52.4526 289.705 55.1336C289.322 57.3659 288.546 59.5087 287.415 61.4575C286.407 63.1698 284.974 64.5792 283.261 65.5425C281.332 66.4722 279.231 66.9676 277.098 66.9952C274.966 67.0227 272.852 66.5819 270.901 65.7024C269.271 64.8238 267.912 63.5002 266.975 61.8791C265.896 59.9578 265.178 57.8477 264.856 55.657C264.408 52.8605 264.198 50.0296 264.23 47.1961C264.207 44.4755 264.441 41.7591 264.927 39.0842C265.311 36.85 266.082 34.7037 267.203 32.7458C268.21 31.0335 269.643 29.6241 271.356 28.6607C273.306 27.6342 275.48 27.1338 277.671 27.207C279.759 27.1402 281.831 27.5838 283.717 28.5008C285.346 29.3795 286.705 30.7031 287.642 32.3242C288.715 34.2484 289.433 36.3573 289.762 38.5463C290.203 41.3436 290.412 44.1739 290.387 47.0072ZM285.238 47.3706C285.238 45.4371 285.167 43.7071 285.039 42.1807C284.922 40.8126 284.723 39.4531 284.442 38.1101C284.216 37.0651 283.873 36.0504 283.418 35.0863C283.045 34.2999 282.534 33.5903 281.91 32.9929C281.333 32.4492 280.65 32.0379 279.905 31.7863C279.089 31.5313 278.24 31.4087 277.387 31.4229C275.949 31.353 274.528 31.7722 273.347 32.6149C272.266 33.4733 271.422 34.6059 270.901 35.9004C270.27 37.4656 269.863 39.1157 269.692 40.7996C269.239 45.2578 269.277 49.7538 269.806 54.2032C270.02 55.9175 270.5 57.586 271.228 59.146C271.751 60.2978 272.598 61.2644 273.66 61.9227C274.755 62.5272 275.987 62.8232 277.231 62.7804C278.204 62.7965 279.172 62.6137 280.075 62.2425C280.892 61.9017 281.622 61.3746 282.209 60.7015C282.811 59.989 283.292 59.1782 283.631 58.3028C284.049 57.3021 284.364 56.2594 284.57 55.1918C284.82 53.9797 284.982 52.7503 285.054 51.5138C285.177 50.1957 285.238 48.8147 285.238 47.3706Z" fill="#CCCCCC"/>
<path d="M359.738 14.7559H310.996C310.256 14.7559 309.656 15.3608 309.656 16.1071V80.922C309.656 81.6683 310.256 82.2733 310.996 82.2733H359.738C360.478 82.2733 361.078 81.6683 361.078 80.922V16.1071C361.078 15.3608 360.478 14.7559 359.738 14.7559Z" fill="black"/>
<path d="M312.337 54.4452V41.7524H313.933C314.075 41.7562 314.209 41.8154 314.307 41.9174C314.406 42.0195 314.461 42.1563 314.461 42.2987V53.9134C314.457 54.0533 314.401 54.1864 314.302 54.2854C314.204 54.3844 314.072 54.4416 313.933 54.4452H312.337Z" fill="url(#paint20_linear_776_1963)"/>
<path d="M315.017 42.2975V47.4292C315.02 47.5692 315.077 47.7023 315.175 47.8013C315.274 47.9003 315.406 47.9575 315.544 47.9611H355.191C355.331 47.9611 355.465 47.9051 355.564 47.8053C355.663 47.7056 355.719 47.5703 355.719 47.4292V42.2975C355.719 42.0116 355.831 41.7374 356.032 41.5352C356.232 41.333 356.504 41.2194 356.788 41.2194H357.871C358.012 41.2157 358.147 41.1565 358.245 41.0544C358.344 40.9524 358.399 40.8156 358.399 40.6732V18.2632C358.399 18.0484 358.315 17.8421 358.166 17.6888C358.016 17.5356 357.813 17.4476 357.6 17.4438H313.135C312.922 17.4476 312.719 17.5356 312.57 17.6888C312.42 17.8421 312.337 18.0484 312.337 18.2632V40.6732C312.337 40.8156 312.392 40.9524 312.49 41.0544C312.589 41.1565 312.723 41.2157 312.864 41.2194H313.933C314.075 41.2175 314.216 41.244 314.347 41.2973C314.478 41.3506 314.598 41.4297 314.699 41.53C314.799 41.6303 314.88 41.7499 314.934 41.8816C314.989 42.0133 315.017 42.1547 315.017 42.2975Z" fill="url(#paint21_linear_776_1963)"/>
<path d="M315.017 54.1853V49.0392C315.021 48.8993 315.077 48.7661 315.175 48.6671C315.274 48.5682 315.406 48.511 315.544 48.5073H355.191C355.331 48.5073 355.465 48.5634 355.564 48.6631C355.663 48.7628 355.719 48.8981 355.719 49.0392V54.1853C355.722 54.47 355.836 54.7421 356.036 54.9435C356.236 55.1448 356.505 55.2596 356.788 55.2634H357.871C358.011 55.2634 358.145 55.3194 358.244 55.4192C358.343 55.5189 358.399 55.6542 358.399 55.7952V78.2052C358.401 78.3121 358.381 78.4184 358.342 78.5177C358.303 78.617 358.244 78.7075 358.17 78.7837C358.096 78.86 358.007 78.9206 357.909 78.9619C357.812 79.0033 357.707 79.0245 357.6 79.0245H313.135C313.029 79.0245 312.924 79.0033 312.826 78.9619C312.729 78.9206 312.64 78.86 312.566 78.7837C312.491 78.7075 312.433 78.617 312.393 78.5177C312.354 78.4184 312.335 78.3121 312.337 78.2052V55.7952C312.337 55.6542 312.392 55.5189 312.491 55.4192C312.59 55.3194 312.724 55.2634 312.864 55.2634H313.934C314.218 55.2634 314.492 55.1503 314.695 54.9485C314.897 54.7467 315.013 54.4725 315.017 54.1853Z" fill="black"/>
<path d="M358.841 54.7592V42.0664H357.23C357.088 42.0702 356.954 42.1294 356.856 42.2314C356.757 42.3334 356.702 42.4702 356.702 42.6126V54.2273C356.706 54.3672 356.763 54.5004 356.861 54.5994C356.959 54.6983 357.091 54.7555 357.23 54.7592H358.841Z" fill="url(#paint22_linear_776_1963)"/>
<path d="M349.667 55.4384C349.689 55.9722 349.592 56.5041 349.383 56.9939C349.314 57.16 349.199 57.302 349.053 57.4026C348.906 57.5033 348.734 57.5583 348.558 57.5609H344.291V65.6873C344.294 65.8271 344.254 65.9644 344.177 66.0799C344.062 66.2127 343.915 66.3128 343.75 66.3706C343.496 66.4548 343.234 66.5133 342.968 66.5451C342.556 66.5711 342.143 66.5711 341.73 66.5451C341.328 66.5708 340.924 66.5708 340.521 66.5451C340.26 66.5135 340.003 66.455 339.753 66.3706C339.601 66.3131 339.468 66.2122 339.369 66.0799C339.296 65.9631 339.261 65.8257 339.27 65.6873V57.5609H323.794C323.596 57.5672 323.399 57.5376 323.211 57.4736C323.045 57.3981 322.899 57.2836 322.784 57.1393C322.653 56.9324 322.566 56.6996 322.528 56.456C322.478 56.0705 322.455 55.6819 322.457 55.293C322.457 54.915 322.457 54.5661 322.457 54.2754C322.47 53.9962 322.508 53.7188 322.571 53.4467C322.632 53.2045 322.708 52.9666 322.799 52.7344C322.903 52.4851 323.022 52.2423 323.154 52.0075L336.681 28.5148C336.791 28.3474 336.937 28.2081 337.108 28.1078C337.335 27.9732 337.579 27.8705 337.833 27.8025C338.198 27.7176 338.569 27.6641 338.943 27.6426C339.384 27.6426 339.896 27.6426 340.493 27.6426C341.063 27.6339 341.633 27.6582 342.2 27.7152C342.597 27.7491 342.992 27.8123 343.38 27.9042C343.627 27.9635 343.859 28.0722 344.063 28.2241C344.136 28.2767 344.197 28.3462 344.239 28.4271C344.281 28.5079 344.303 28.5978 344.305 28.6893V53.4031H348.572C348.741 53.4078 348.905 53.4589 349.048 53.551C349.19 53.6431 349.306 53.7728 349.383 53.9265C349.594 54.4001 349.692 54.9185 349.667 55.4384ZM339.27 32.1783L327.123 53.3886H339.341L339.27 32.1783Z" fill="#CCCCCC"/>
<path d="M420.711 14.7559H371.969C371.229 14.7559 370.629 15.3608 370.629 16.1071V80.922C370.629 81.6683 371.229 82.2733 371.969 82.2733H420.711C421.451 82.2733 422.051 81.6683 422.051 80.922V16.1071C422.051 15.3608 421.451 14.7559 420.711 14.7559Z" fill="black"/>
<path d="M373.309 54.4452V41.7524H374.906C375.047 41.7562 375.182 41.8154 375.28 41.9174C375.379 42.0195 375.434 42.1563 375.434 42.2987V53.9134C375.43 54.0533 375.373 54.1864 375.275 54.2854C375.177 54.3844 375.045 54.4416 374.906 54.4452H373.309Z" fill="url(#paint23_linear_776_1963)"/>
<path d="M375.99 42.2975V47.4292C375.993 47.5692 376.05 47.7023 376.148 47.8013C376.246 47.9003 376.378 47.9575 376.517 47.9611H416.164C416.304 47.9611 416.438 47.9051 416.537 47.8053C416.636 47.7056 416.691 47.5703 416.691 47.4292V42.2975C416.691 42.0116 416.804 41.7374 417.004 41.5352C417.205 41.333 417.477 41.2194 417.761 41.2194H418.844C418.985 41.2157 419.119 41.1565 419.218 41.0544C419.316 40.9524 419.372 40.8156 419.371 40.6732V18.2632C419.372 18.0484 419.288 17.8421 419.139 17.6888C418.989 17.5356 418.786 17.4476 418.573 17.4438H374.108C373.895 17.4476 373.692 17.5356 373.542 17.6888C373.393 17.8421 373.309 18.0484 373.309 18.2632V40.6732C373.309 40.8156 373.365 40.9524 373.463 41.0544C373.562 41.1565 373.696 41.2157 373.837 41.2194H374.906C375.048 41.2175 375.188 41.244 375.32 41.2973C375.451 41.3506 375.571 41.4297 375.671 41.53C375.772 41.6303 375.852 41.7499 375.907 41.8816C375.962 42.0133 375.99 42.1547 375.99 42.2975Z" fill="url(#paint24_linear_776_1963)"/>
<path d="M375.99 54.1853V49.0392C375.993 48.8993 376.05 48.7661 376.148 48.6671C376.246 48.5682 376.379 48.511 376.517 48.5073H416.164C416.304 48.5073 416.438 48.5634 416.537 48.6631C416.636 48.7628 416.691 48.8981 416.691 49.0392V54.1853C416.695 54.47 416.809 54.7421 417.009 54.9435C417.208 55.1448 417.478 55.2596 417.761 55.2634H418.844C418.984 55.2634 419.118 55.3194 419.217 55.4192C419.316 55.5189 419.372 55.6542 419.372 55.7952V78.2052C419.374 78.3121 419.354 78.4184 419.315 78.5177C419.276 78.617 419.217 78.7075 419.143 78.7837C419.069 78.86 418.98 78.9206 418.882 78.9619C418.784 79.0033 418.679 79.0245 418.573 79.0245H374.108C374.002 79.0245 373.897 79.0033 373.799 78.9619C373.701 78.9206 373.613 78.86 373.538 78.7837C373.464 78.7075 373.406 78.617 373.366 78.5177C373.327 78.4184 373.308 78.3121 373.31 78.2052V55.7952C373.31 55.6542 373.365 55.5189 373.464 55.4192C373.563 55.3194 373.697 55.2634 373.837 55.2634H374.906C375.191 55.2634 375.465 55.1503 375.667 54.9485C375.87 54.7467 375.986 54.4725 375.99 54.1853Z" fill="black"/>
<path d="M419.813 54.7592V42.0664H418.202C418.061 42.0702 417.927 42.1294 417.829 42.2314C417.73 42.3334 417.675 42.4702 417.675 42.6126V54.2273C417.679 54.3672 417.735 54.5004 417.833 54.5994C417.932 54.6983 418.064 54.7555 418.202 54.7592H419.813Z" fill="url(#paint25_linear_776_1963)"/>
<path d="M410.64 55.4379C410.662 55.9717 410.565 56.5036 410.356 56.9934C410.287 57.1595 410.172 57.3015 410.026 57.4022C409.879 57.5028 409.708 57.5578 409.531 57.5604H405.264V65.6869C405.267 65.8266 405.227 65.9639 405.15 66.0794C405.035 66.2122 404.888 66.3123 404.723 66.3701C404.469 66.4543 404.207 66.5128 403.941 66.5446C403.529 66.5706 403.116 66.5706 402.704 66.5446C402.301 66.5703 401.897 66.5703 401.495 66.5446C401.234 66.513 400.976 66.4545 400.727 66.3701C400.574 66.3126 400.441 66.2117 400.343 66.0794C400.269 65.9626 400.235 65.8252 400.243 65.6869V57.5604H384.768C384.57 57.5667 384.372 57.5371 384.184 57.4731C384.018 57.3976 383.872 57.2831 383.758 57.1388C383.626 56.9319 383.539 56.6991 383.502 56.4555C383.452 56.07 383.428 55.6814 383.431 55.2925C383.431 54.9145 383.431 54.5657 383.431 54.2749C383.443 53.9957 383.482 53.7183 383.544 53.4463C383.605 53.2041 383.681 52.9661 383.772 52.7339C383.876 52.4846 383.995 52.2418 384.128 52.007L397.654 28.5143C397.764 28.3469 397.91 28.2076 398.081 28.1073C398.308 27.9728 398.552 27.87 398.806 27.802C399.171 27.7171 399.542 27.6636 399.916 27.6421C400.357 27.6421 400.869 27.6421 401.466 27.6421C402.036 27.6334 402.606 27.6577 403.173 27.7148C403.571 27.7486 403.965 27.8118 404.354 27.9037C404.6 27.963 404.832 28.0717 405.036 28.2236C405.11 28.2762 405.17 28.3458 405.212 28.4266C405.254 28.5074 405.277 28.5973 405.278 28.6888V53.4026H409.545C409.714 53.4073 409.878 53.4584 410.021 53.5505C410.164 53.6426 410.279 53.7723 410.356 53.926C410.567 54.3996 410.665 54.918 410.64 55.4379ZM400.243 32.1778L388.096 53.3881H400.314L400.243 32.1778Z" fill="#CCCCCC"/>
<defs>
<linearGradient id="paint0_linear_776_1963" x1="222" y1="0" x2="222" y2="15" gradientUnits="userSpaceOnUse">
<stop stop-color="#4E4E4E"/>
<stop offset="1" stop-color="#2B2929" stop-opacity="0.2"/>
</linearGradient>
<linearGradient id="paint1_linear_776_1963" x1="222" y1="93" x2="222" y2="75" gradientUnits="userSpaceOnUse">
<stop stop-color="#4E4E4E"/>
<stop offset="1" stop-color="#060505" stop-opacity="0.3"/>
</linearGradient>
<linearGradient id="paint2_linear_776_1963" x1="193.836" y1="54.4452" x2="193.836" y2="41.7524" gradientUnits="userSpaceOnUse">
<stop stop-color="#1C1C1C"/>
<stop offset="0.12" stop-color="#606060"/>
<stop offset="0.15" stop-color="#090909"/>
<stop offset="0.56" stop-color="#C0C0C0"/>
<stop offset="0.77" stop-color="#707070"/>
<stop offset="0.79" stop-color="#919191"/>
<stop offset="0.92" stop-color="#848484"/>
<stop offset="0.93" stop-color="#555555"/>
<stop offset="1" stop-color="#1A1A1A"/>
</linearGradient>
<linearGradient id="paint3_linear_776_1963" x1="215.805" y1="47.9611" x2="215.805" y2="17.4438" gradientUnits="userSpaceOnUse">
<stop stop-color="#333333"/>
<stop offset="0.13" stop-color="#3C3C3C"/>
<stop offset="0.32" stop-color="#454545"/>
<stop offset="1" stop-color="#292929"/>
</linearGradient>
<linearGradient id="paint4_linear_776_1963" x1="238.202" y1="54.7592" x2="238.202" y2="42.0664" gradientUnits="userSpaceOnUse">
<stop stop-color="#1C1C1C"/>
<stop offset="0.12" stop-color="#606060"/>
<stop offset="0.15" stop-color="#090909"/>
<stop offset="0.56" stop-color="#C0C0C0"/>
<stop offset="0.77" stop-color="#707070"/>
<stop offset="0.79" stop-color="#919191"/>
<stop offset="0.92" stop-color="#848484"/>
<stop offset="0.93" stop-color="#555555"/>
<stop offset="1" stop-color="#1A1A1A"/>
</linearGradient>
<linearGradient id="paint5_linear_776_1963" x1="137.749" y1="54.4452" x2="137.749" y2="41.7524" gradientUnits="userSpaceOnUse">
<stop stop-color="#1C1C1C"/>
<stop offset="0.12" stop-color="#606060"/>
<stop offset="0.15" stop-color="#090909"/>
<stop offset="0.56" stop-color="#C0C0C0"/>
<stop offset="0.77" stop-color="#707070"/>
<stop offset="0.79" stop-color="#919191"/>
<stop offset="0.92" stop-color="#848484"/>
<stop offset="0.93" stop-color="#555555"/>
<stop offset="1" stop-color="#1A1A1A"/>
</linearGradient>
<linearGradient id="paint6_linear_776_1963" x1="159.718" y1="47.9611" x2="159.718" y2="17.4438" gradientUnits="userSpaceOnUse">
<stop stop-color="#333333"/>
<stop offset="0.13" stop-color="#3C3C3C"/>
<stop offset="0.32" stop-color="#454545"/>
<stop offset="1" stop-color="#292929"/>
</linearGradient>
<linearGradient id="paint7_linear_776_1963" x1="182.115" y1="54.7592" x2="182.115" y2="42.0664" gradientUnits="userSpaceOnUse">
<stop stop-color="#1C1C1C"/>
<stop offset="0.12" stop-color="#606060"/>
<stop offset="0.15" stop-color="#090909"/>
<stop offset="0.56" stop-color="#C0C0C0"/>
<stop offset="0.77" stop-color="#707070"/>
<stop offset="0.79" stop-color="#919191"/>
<stop offset="0.92" stop-color="#848484"/>
<stop offset="0.93" stop-color="#555555"/>
<stop offset="1" stop-color="#1A1A1A"/>
</linearGradient>
<linearGradient id="paint8_linear_776_1963" x1="81.8312" y1="54.4452" x2="81.8312" y2="41.7524" gradientUnits="userSpaceOnUse">
<stop stop-color="#1C1C1C"/>
<stop offset="0.12" stop-color="#606060"/>
<stop offset="0.15" stop-color="#090909"/>
<stop offset="0.56" stop-color="#C0C0C0"/>
<stop offset="0.77" stop-color="#707070"/>
<stop offset="0.79" stop-color="#919191"/>
<stop offset="0.92" stop-color="#848484"/>
<stop offset="0.93" stop-color="#555555"/>
<stop offset="1" stop-color="#1A1A1A"/>
</linearGradient>
<linearGradient id="paint9_linear_776_1963" x1="103.8" y1="47.9611" x2="103.8" y2="17.4438" gradientUnits="userSpaceOnUse">
<stop stop-color="#333333"/>
<stop offset="0.13" stop-color="#3C3C3C"/>
<stop offset="0.32" stop-color="#454545"/>
<stop offset="1" stop-color="#292929"/>
</linearGradient>
<linearGradient id="paint10_linear_776_1963" x1="126.198" y1="54.7592" x2="126.198" y2="42.0664" gradientUnits="userSpaceOnUse">
<stop stop-color="#1C1C1C"/>
<stop offset="0.12" stop-color="#606060"/>
<stop offset="0.15" stop-color="#090909"/>
<stop offset="0.56" stop-color="#C0C0C0"/>
<stop offset="0.77" stop-color="#707070"/>
<stop offset="0.79" stop-color="#919191"/>
<stop offset="0.92" stop-color="#848484"/>
<stop offset="0.93" stop-color="#555555"/>
<stop offset="1" stop-color="#1A1A1A"/>
</linearGradient>
<linearGradient id="paint11_linear_776_1963" x1="25.7488" y1="54.4452" x2="25.7488" y2="41.7524" gradientUnits="userSpaceOnUse">
<stop stop-color="#1C1C1C"/>
<stop offset="0.12" stop-color="#606060"/>
<stop offset="0.15" stop-color="#090909"/>
<stop offset="0.56" stop-color="#C0C0C0"/>
<stop offset="0.77" stop-color="#707070"/>
<stop offset="0.79" stop-color="#919191"/>
<stop offset="0.92" stop-color="#848484"/>
<stop offset="0.93" stop-color="#555555"/>
<stop offset="1" stop-color="#1A1A1A"/>
</linearGradient>
<linearGradient id="paint12_linear_776_1963" x1="47.7178" y1="47.9611" x2="47.7178" y2="17.4438" gradientUnits="userSpaceOnUse">
<stop stop-color="#333333"/>
<stop offset="0.13" stop-color="#3C3C3C"/>
<stop offset="0.32" stop-color="#454545"/>
<stop offset="1" stop-color="#292929"/>
</linearGradient>
<linearGradient id="paint13_linear_776_1963" x1="70.1154" y1="54.7592" x2="70.1154" y2="42.0664" gradientUnits="userSpaceOnUse">
<stop stop-color="#1C1C1C"/>
<stop offset="0.12" stop-color="#606060"/>
<stop offset="0.15" stop-color="#090909"/>
<stop offset="0.56" stop-color="#C0C0C0"/>
<stop offset="0.77" stop-color="#707070"/>
<stop offset="0.79" stop-color="#919191"/>
<stop offset="0.92" stop-color="#848484"/>
<stop offset="0.93" stop-color="#555555"/>
<stop offset="1" stop-color="#1A1A1A"/>
</linearGradient>
<linearGradient id="paint14_linear_776_1963" x1="196.301" y1="54.4452" x2="196.301" y2="41.7524" gradientUnits="userSpaceOnUse">
<stop stop-color="#1C1C1C"/>
<stop offset="0.12" stop-color="#606060"/>
<stop offset="0.15" stop-color="#090909"/>
<stop offset="0.56" stop-color="#C0C0C0"/>
<stop offset="0.77" stop-color="#707070"/>
<stop offset="0.79" stop-color="#919191"/>
<stop offset="0.92" stop-color="#848484"/>
<stop offset="0.93" stop-color="#555555"/>
<stop offset="1" stop-color="#1A1A1A"/>
</linearGradient>
<linearGradient id="paint15_linear_776_1963" x1="218.27" y1="47.9611" x2="218.27" y2="17.4438" gradientUnits="userSpaceOnUse">
<stop stop-color="#333333"/>
<stop offset="0.13" stop-color="#3C3C3C"/>
<stop offset="0.32" stop-color="#454545"/>
<stop offset="1" stop-color="#292929"/>
</linearGradient>
<linearGradient id="paint16_linear_776_1963" x1="240.667" y1="54.7592" x2="240.667" y2="42.0664" gradientUnits="userSpaceOnUse">
<stop stop-color="#1C1C1C"/>
<stop offset="0.12" stop-color="#606060"/>
<stop offset="0.15" stop-color="#090909"/>
<stop offset="0.56" stop-color="#C0C0C0"/>
<stop offset="0.77" stop-color="#707070"/>
<stop offset="0.79" stop-color="#919191"/>
<stop offset="0.92" stop-color="#848484"/>
<stop offset="0.93" stop-color="#555555"/>
<stop offset="1" stop-color="#1A1A1A"/>
</linearGradient>
<linearGradient id="paint17_linear_776_1963" x1="254.855" y1="54.4452" x2="254.855" y2="41.7524" gradientUnits="userSpaceOnUse">
<stop stop-color="#1C1C1C"/>
<stop offset="0.12" stop-color="#606060"/>
<stop offset="0.15" stop-color="#090909"/>
<stop offset="0.56" stop-color="#C0C0C0"/>
<stop offset="0.77" stop-color="#707070"/>
<stop offset="0.79" stop-color="#919191"/>
<stop offset="0.92" stop-color="#848484"/>
<stop offset="0.93" stop-color="#555555"/>
<stop offset="1" stop-color="#1A1A1A"/>
</linearGradient>
<linearGradient id="paint18_linear_776_1963" x1="276.823" y1="47.9611" x2="276.823" y2="17.4438" gradientUnits="userSpaceOnUse">
<stop stop-color="#333333"/>
<stop offset="0.13" stop-color="#3C3C3C"/>
<stop offset="0.32" stop-color="#454545"/>
<stop offset="1" stop-color="#292929"/>
</linearGradient>
<linearGradient id="paint19_linear_776_1963" x1="299.22" y1="54.7592" x2="299.22" y2="42.0664" gradientUnits="userSpaceOnUse">
<stop stop-color="#1C1C1C"/>
<stop offset="0.12" stop-color="#606060"/>
<stop offset="0.15" stop-color="#090909"/>
<stop offset="0.56" stop-color="#C0C0C0"/>
<stop offset="0.77" stop-color="#707070"/>
<stop offset="0.79" stop-color="#919191"/>
<stop offset="0.92" stop-color="#848484"/>
<stop offset="0.93" stop-color="#555555"/>
<stop offset="1" stop-color="#1A1A1A"/>
</linearGradient>
<linearGradient id="paint20_linear_776_1963" x1="313.406" y1="54.4452" x2="313.406" y2="41.7524" gradientUnits="userSpaceOnUse">
<stop stop-color="#1C1C1C"/>
<stop offset="0.12" stop-color="#606060"/>
<stop offset="0.15" stop-color="#090909"/>
<stop offset="0.56" stop-color="#C0C0C0"/>
<stop offset="0.77" stop-color="#707070"/>
<stop offset="0.79" stop-color="#919191"/>
<stop offset="0.92" stop-color="#848484"/>
<stop offset="0.93" stop-color="#555555"/>
<stop offset="1" stop-color="#1A1A1A"/>
</linearGradient>
<linearGradient id="paint21_linear_776_1963" x1="335.375" y1="47.9611" x2="335.375" y2="17.4438" gradientUnits="userSpaceOnUse">
<stop stop-color="#333333"/>
<stop offset="0.13" stop-color="#3C3C3C"/>
<stop offset="0.32" stop-color="#454545"/>
<stop offset="1" stop-color="#292929"/>
</linearGradient>
<linearGradient id="paint22_linear_776_1963" x1="357.771" y1="54.7592" x2="357.771" y2="42.0664" gradientUnits="userSpaceOnUse">
<stop stop-color="#1C1C1C"/>
<stop offset="0.12" stop-color="#606060"/>
<stop offset="0.15" stop-color="#090909"/>
<stop offset="0.56" stop-color="#C0C0C0"/>
<stop offset="0.77" stop-color="#707070"/>
<stop offset="0.79" stop-color="#919191"/>
<stop offset="0.92" stop-color="#848484"/>
<stop offset="0.93" stop-color="#555555"/>
<stop offset="1" stop-color="#1A1A1A"/>
</linearGradient>
<linearGradient id="paint23_linear_776_1963" x1="374.379" y1="54.4452" x2="374.379" y2="41.7524" gradientUnits="userSpaceOnUse">
<stop stop-color="#1C1C1C"/>
<stop offset="0.12" stop-color="#606060"/>
<stop offset="0.15" stop-color="#090909"/>
<stop offset="0.56" stop-color="#C0C0C0"/>
<stop offset="0.77" stop-color="#707070"/>
<stop offset="0.79" stop-color="#919191"/>
<stop offset="0.92" stop-color="#848484"/>
<stop offset="0.93" stop-color="#555555"/>
<stop offset="1" stop-color="#1A1A1A"/>
</linearGradient>
<linearGradient id="paint24_linear_776_1963" x1="396.348" y1="47.9611" x2="396.348" y2="17.4438" gradientUnits="userSpaceOnUse">
<stop stop-color="#333333"/>
<stop offset="0.13" stop-color="#3C3C3C"/>
<stop offset="0.32" stop-color="#454545"/>
<stop offset="1" stop-color="#292929"/>
</linearGradient>
<linearGradient id="paint25_linear_776_1963" x1="418.744" y1="54.7592" x2="418.744" y2="42.0664" gradientUnits="userSpaceOnUse">
<stop stop-color="#1C1C1C"/>
<stop offset="0.12" stop-color="#606060"/>
<stop offset="0.15" stop-color="#090909"/>
<stop offset="0.56" stop-color="#C0C0C0"/>
<stop offset="0.77" stop-color="#707070"/>
<stop offset="0.79" stop-color="#919191"/>
<stop offset="0.92" stop-color="#848484"/>
<stop offset="0.93" stop-color="#555555"/>
<stop offset="1" stop-color="#1A1A1A"/>
</linearGradient>
</defs>
</svg>
