<svg width="254" height="12" viewBox="0 0 254 12" fill="none" xmlns="http://www.w3.org/2000/svg">
<path d="M4.096 2.016V12H2.704V2.016H0.24V0.799999H6.56V2.016H4.096ZM19.1969 12V10.832H20.3169V1.968H19.1969V0.799999H22.8289V1.968H21.7089V10.832H22.8289V12H19.1969ZM42.627 12V1.952L40.915 8.24H39.587L37.875 1.952V12H36.595V0.799999H38.851L40.307 6.528L41.747 0.799999H43.955V12H42.627ZM58.3531 12V0.799999H63.6011V1.968H59.7451V5.632H63.2011V6.8H59.7451V10.832H63.6011V12H58.3531ZM96.2479 7.36H94.8239V12H93.4319V0.799999H96.2959C97.2025 0.799999 97.8852 1.00267 98.3439 1.408C98.8132 1.80267 99.0479 2.432 99.0479 3.296V4.832C99.0479 6.03733 98.5679 6.78933 97.6079 7.088L99.8319 12H98.3119L96.2479 7.36ZM97.6559 3.152C97.6559 2.74667 97.5599 2.45333 97.3679 2.272C97.1865 2.09067 96.8932 2 96.4879 2H94.8239V6.16H96.4879C96.8932 6.16 97.1865 6.06933 97.3679 5.888C97.5599 5.696 97.6559 5.39733 97.6559 4.992V3.152ZM113.424 12V0.799999H118.672V1.968H114.816V5.632H118.272V6.8H114.816V10.832H118.672V12H113.424ZM138.699 12V1.952L136.987 8.24H135.659L133.947 1.952V12H132.667V0.799999H134.923L136.379 6.528L137.819 0.799999H140.027V12H138.699ZM159.241 12L158.633 9.168H155.513L154.889 12H153.465L156.169 0.799999H158.009L160.665 12H159.241ZM157.065 1.856L155.769 7.968H158.377L157.065 1.856ZM173.465 12V10.832H174.585V1.968H173.465V0.799999H177.097V1.968H175.977V10.832H177.097V12H173.465ZM194.607 12L192.159 1.984V12H190.863V0.799999H193.135L195.599 10.816V0.799999H196.895V12H194.607ZM210.653 12V10.832H211.773V1.968H210.653V0.799999H214.285V1.968H213.165V10.832H214.285V12H210.653ZM231.795 12L229.347 1.984V12H228.051V0.799999H230.323L232.787 10.816V0.799999H234.083V12H231.795ZM251.201 12C250.273 12 249.559 11.776 249.057 11.328C248.567 10.8693 248.321 10.1867 248.321 9.28V3.52C248.321 2.61333 248.567 1.936 249.057 1.488C249.559 1.02933 250.273 0.799999 251.201 0.799999H253.361V2.016H251.041C250.647 2.016 250.327 2.13333 250.081 2.368C249.836 2.60267 249.713 2.88533 249.713 3.216V9.584C249.713 9.91467 249.836 10.1973 250.081 10.432C250.327 10.6667 250.647 10.784 251.041 10.784H252.513V7.312H251.169V6.112H253.841V12H251.201Z" fill="#FF0000" fill-opacity="0.8"/>
</svg>
