<svg width="15" height="15" viewBox="0 0 15 15" fill="none" xmlns="http://www.w3.org/2000/svg">
<path d="M14.916 7.71825C14.9144 6.34563 14.5199 5.00216 13.7791 3.84659C13.0384 2.69102 11.9823 1.77165 10.7357 1.19714C9.48907 0.622636 8.10405 0.416998 6.74431 0.604527C5.38456 0.792056 4.10691 1.36492 3.06236 2.25541C2.0178 3.1459 1.24999 4.31681 0.849668 5.62975C0.449345 6.94269 0.43324 8.34279 0.803257 9.6646C1.17327 10.9864 1.91395 12.1747 2.93775 13.0889C3.96154 14.0032 5.22567 14.6053 6.58075 14.8241V9.79836H4.75634V7.71825H6.58075V6.14464C6.58075 4.34482 7.65769 3.34656 9.30014 3.34656C9.83895 3.35413 10.3764 3.4018 10.9082 3.48917V5.25948H9.99843C9.84394 5.23908 9.68684 5.25358 9.53869 5.3019C9.39054 5.35022 9.25511 5.43114 9.14236 5.5387C9.02961 5.64627 8.9424 5.77774 8.88716 5.92345C8.83191 6.06916 8.81004 6.2254 8.82314 6.38068V7.71825H10.8197L10.4902 9.79836H8.82806V14.8241C10.523 14.5593 12.0677 13.6979 13.1839 12.3951C14.3 11.0923 14.9143 9.43377 14.916 7.71825Z" fill="url(#paint0_linear_104_1095)"/>
<defs>
<linearGradient id="paint0_linear_104_1095" x1="2.62214" y1="2.63844" x2="12.7916" y2="12.803" gradientUnits="userSpaceOnUse">
<stop stop-color="#4676ED"/>
<stop offset="0.19" stop-color="#436DE4"/>
<stop offset="0.49" stop-color="#3C55CD"/>
<stop offset="0.87" stop-color="#302EA8"/>
<stop offset="1" stop-color="#2B1E99"/>
</linearGradient>
</defs>
</svg>
